<?xml version="1.0" encoding="utf-8"?>
<!-- Generator: Adobe Illustrator 16.0.0, SVG Export Plug-In . SVG Version: 6.00 Build 0)  -->
<!DOCTYPE svg PUBLIC "-//W3C//DTD SVG 1.1//EN" "http://www.w3.org/Graphics/SVG/1.1/DTD/svg11.dtd">
<svg version="1.1" xmlns="http://www.w3.org/2000/svg" xmlns:xlink="http://www.w3.org/1999/xlink" x="0px" y="0px"
	 width="425.265px" height="80.849px" viewBox="0 0 425.265 80.849" enable-background="new 0 0 425.265 80.849"
	 xml:space="preserve">
<g id="Layer_2" display="none">
	<rect x="-2.928" display="inline" stroke="#000000" stroke-miterlimit="10" width="428.193" height="80.849"/>
</g>
<g id="Layer_1">
	<g>
		<path fill="#FFFFFF" d="M151.974,33.794h20.43l10.347,30.184h0.132l10.347-30.184h20.431l-21.089,47.055h-19.508L151.974,33.794z"
			/>
		<path fill="#FFFFFF" d="M225.125,33.794h22.803l20.034,47.055h-19.771l-1.978-5.404h-19.375l-1.978,5.404H205.09L225.125,33.794z
			 M236.592,48.029h-0.132l-5.536,15.948h11.203L236.592,48.029z"/>
		<path fill="#FFFFFF" d="M270.332,33.794h18.585v34.401h28.8v12.653h-47.385V33.794z"/>
		<path fill="#FFFFFF" d="M322.788,33.794h18.585v34.401h28.8v12.653h-47.385V33.794z"/>
		<path fill="#FFFFFF" d="M375.245,33.794h50.021v11.467H393.83v6.327h29.195v11.467H393.83v6.327h31.436v11.467h-50.021V33.794z"/>
	</g>
	<path fill="#F7941E" d="M0,33.782h47.647V45.25H18.584v7.183h26.756V63.9H18.584v16.937H0V33.782z"/>
	<path fill="#F7941E" d="M52.457,33.782h18.584v34.401H99.84v12.653H52.457V33.782z"/>
	<g>
		<g>
			<path d="M247.683,38.197c-0.609-2.05-4.407-7.264-6.662-9.206c-2.259-1.943-8.646-7.3-14.592-10.207
				c-5.944-2.906-7.985-3.011-8.222-3.025c-0.238-0.014-0.429-0.084-0.659-0.356c-0.229-0.272-0.519-0.674-0.527-0.99
				c-0.011-0.316,0.188-0.604,0.415-1.314c0.226-0.712-0.721-1.292-0.721-1.292s-1-0.474-1.473,0.103
				c-0.474,0.578-0.604,0.903-0.874,1.068c-0.269,0.166-0.765,0.142-1.118,0.099c-0.353-0.043-0.516-0.166-0.658-0.356
				c-0.142-0.192-1.344-1.842-7.03-5.229c-5.686-3.387-13.663-5.806-16.523-6.633c-2.862-0.828-9.302-1.152-11.353-0.542
				s-3.325,1.001-3.707,1.827c-0.381,0.825,0.335,3.587,0.727,4.47c0.39,0.884,1.732,1.822,2.85,2.722
				c1.117,0.9,2.801,2.4,3.301,3.163s1.515,2.238,1.868,2.845c0.351,0.607,1.138,2.19,1.831,3.153
				c0.692,0.962,0.855,1.232,1.158,1.609c0.305,0.379,1.469,1.254,1.469,1.254s-1.466,2.434-1.42,4.408
				c0.047,1.974,0.404,2.809,0.444,3.237c0.04,0.43,0.101,1.841,0.719,2.39c0.622,0.549,0.76,1.868,1.369,2.558
				c0.61,0.69,1.883,1.183,2.397,1.444c0.513,0.262,1.457,1.362,1.947,1.727c0.491,0.364,1.736,0.48,2.331,0.835
				s0.932,0.52,1.507,0.668c0.574,0.147,1.119-0.345,2.149-0.099c1.03,0.247,1.402-0.322,1.601-0.295
				c0.199,0.025,0.411,0.302,0.835,0.335c0.425,0.034,1.695-0.965,1.695-0.965s-0.142,1.612,0.118,1.948
				c0.262,0.337,0.607,0.36,0.738,0.512c0.13,0.153-0.143,0.777,0.628,1.504c0.77,0.728,0.655,1.452,1.093,1.853
				c0.438,0.403,0.762,0.592,1.383,0.896c0.621,0.304,1.402,1.284,1.975,1.496c0.573,0.21,2.012,0.399,2.511,0.686
				c0.501,0.287,1.609,1.083,2.52,1.216c0.911,0.132,2.091-0.473,2.889-0.253c0.799,0.218,2.014-0.503,2.396-0.702
				c0.381-0.201,1.276-0.36,2.952-1.401c1.678-1.042,2.915-3.598,2.915-3.598s1.37,0.495,1.851,0.543
				c0.482,0.046,0.798,0.035,1.983,0.089c1.184,0.054,2.939-0.154,3.641-0.191c0.7-0.038,2.491,0.004,3.403,0.008
				c0.913,0,3.087,0.589,4.453,1.032c1.364,0.444,2.885,1.055,3.837,0.897c0.953-0.155,3.656-1.067,4.14-1.837
				C248.663,41.529,248.294,40.247,247.683,38.197z"/>
			<path d="M217.204,12.258c0,0,0.844-0.666,1.122-0.804c0.28-0.14,5.003-1.058,5.288-1.179c0.284-0.123,0.504-0.392,0.697-0.399
				c0.193-0.005,0.595,0.218,0.657,0.357c0.063,0.138,0.091,0.772-0.06,0.686c-0.152-0.085-0.331-0.217-0.333-0.484
				c-0.003-0.267-0.125-0.238-0.261-0.251c-0.136-0.014-0.429,0.201-0.581,0.238c-0.154,0.037-5.005,1.137-5.278,1.267
				c-0.273,0.129-1.066,0.836-1.066,0.836L217.204,12.258z"/>
			<path d="M216.214,11.704c0,0-0.88-1.918-1.442-2.779c-0.563-0.858-3.506-3.672-3.821-3.894c-0.314-0.224-0.658-0.49-0.84-0.522
				c-0.179-0.033-0.53-0.125-0.713,0.006s-0.144,0.227-0.026,0.256c0.117,0.03,0.209,0.107,0.28,0.07
				c0.071-0.038,0.309-0.389,1.119,0.28c0.739,0.537,3.47,3.369,3.794,3.841c0.322,0.473,1.31,2.667,1.31,2.667L216.214,11.704z"/>
		</g>
		<g>
			<g>
				<path fill="#F7941E" d="M194.244,7.702c0.181,0.165,2.401,1.638,2.932,1.855c0.528,0.219,3.373,1.113,3.799,1.248
					c0.425,0.135,5.44,1.301,5.44,1.301l5.578,1.644c0,0-2.616-2.439-3.052-2.729c-0.437-0.29-5.443-2.516-6.187-2.81
					c-0.745-0.294-4.726-1.802-5.326-1.913c-0.6-0.108-1.72,0.243-2.005,0.319c-0.281,0.075-1.559,0.166-1.598,0.266
					C193.786,6.982,194.064,7.538,194.244,7.702z"/>
				<path fill="#F7941E" d="M194.221,9.038c-0.05-0.164-0.761-0.386-1.207-0.654c-0.448-0.27-0.63-0.53-1.335-0.723
					c-0.704-0.193-1.781-0.225-2.157-0.197c-0.376,0.029-1.709,0.333-2.483,0.705c-0.775,0.373-2.686,1.674-2.686,1.674
					s2.212-0.411,2.43-0.303c0.218,0.107,0.52,0.453,1.066,0.417c0.55-0.037,1.516-0.117,2.576-0.277
					C191.486,9.518,194.271,9.202,194.221,9.038z"/>
				<path fill="#F7941E" d="M198.957,11.195c0,0-1.579-0.666-2.516-0.956c-0.933-0.29-1.859-0.173-2.541-0.083
					c-0.682,0.089-4.482,0.835-5.189,1.072c-0.707,0.237-1.449,0.511-1.692,0.741c-0.248,0.229-0.553,0.82-0.438,1.218
					c0.114,0.399,0.449,0.824,1.019,0.996c0.564,0.172,0.881,0.14,1.612,0.004C189.945,14.052,198.957,11.195,198.957,11.195z"/>
				<path fill="#F7941E" d="M203.188,15.85c0.585-0.108,8.713-1.934,8.713-1.934s-6.155-1-6.651-1.094
					c-0.493-0.091-3.459-1.01-4.375-0.953c-0.914,0.057-3.251,0.929-3.251,0.929s-6.758,2.117-7.995,2.484
					c-1.236,0.368-1.652,1.463-1.479,2.089c0.172,0.626,0.872,1.423,2.053,1.111c1.18-0.311,5.575-1.637,6.405-1.788
					C197.436,16.544,202.604,15.959,203.188,15.85z"/>
				<path fill="#F7941E" d="M202.166,23.093c0.384-0.303,7.776-5.953,7.776-5.953s-1.011-0.415-1.339-0.319
					c-0.324,0.097-1.935,1.099-2.63,1.378c-0.696,0.279-5.4,1.014-5.4,1.014s-0.109,0.477-0.283,0.923
					c-0.176,0.445-0.665,0.826-0.665,0.826s-0.689,0.421-1.085,0.814c-0.398,0.393-0.704,0.938-0.821,1.119
					c-0.117,0.18-0.697,1.166-0.79,1.459c-0.094,0.293-0.235,0.473,0.101,0.809c0.337,0.336,0.699,0.275,1.185,0.102
					c0.486-0.174,2.224-1.083,2.652-1.314C201.292,23.719,201.783,23.395,202.166,23.093z"/>
				<path fill="#F7941E" d="M207.687,22.9c0.349-0.565,1.956-2.727,2.292-3.341c0.336-0.615,0.461-1.709,0.418-1.768
					c-0.043-0.059-0.587,0.07-1.055,0.453c-0.466,0.384-2.272,1.91-2.272,1.91l-1.764,1.565l-2.035,1.971l-1.21,2.633
					c0,0-1.316,2.198-1.55,2.665c-0.233,0.469-1.433,3.319-1.562,3.683c-0.129,0.364-0.196,0.808-0.137,0.951
					c0.06,0.143,0.498,0.266,0.603,0.38c0.104,0.115,0.279,0.495,0.485,0.695c0.207,0.199,0.438,0.245,0.69,0.318
					s0.893,0.058,0.979-0.117c0.086-0.174,2.102-4.919,2.88-6.417C205.23,26.981,207.337,23.465,207.687,22.9z"/>
				<path fill="#F7941E" d="M204.174,32.479c0.27-0.753,5.25-11.496,5.25-11.496l-4.154,7.076c0,0-2.743,5.658-2.865,5.996
					c-0.124,0.337-0.105,0.364,0,0.594c0.109,0.229,0.377,0.429,0.494,0.482c0.117,0.054,0.31,0.088,0.425,0.014
					c0.114-0.075,0.637-1.379,0.637-1.379S203.904,33.232,204.174,32.479z"/>
				<path fill="#F7941E" d="M199.026,29.64c0.412-1.102,1.715-3.168,1.715-3.168l1.3-2.1c0,0-0.384-0.022-0.642,0.086
					c-0.256,0.107-2.377,1.117-2.869,1.519c-0.49,0.401-0.885,1.137-0.885,1.137l-1.347,2.289c0,0-1.83,3.044-1.91,3.332
					c-0.084,0.288-0.027,0.379,0.068,0.469c0.096,0.09,0.42,0.09,0.61,0.168c0.189,0.079,0.451,0.48,0.596,0.591
					c0.146,0.112,0.442,0.079,0.442,0.079s0.646-0.119,0.894-0.057c0.247,0.063,0.923,0.358,1.028,0.289
					c0.108-0.069,0.316-1.877,0.316-1.877S198.616,30.74,199.026,29.64z"/>
				<path fill="#F7941E" d="M196.839,27.109c0.167-0.247,0.478-0.444,0.485-0.6s-0.067-0.263-0.137-0.344
					c-0.069-0.081-0.252-0.167-0.545-0.188c-0.294-0.02-0.6,0.05-1.135,0.302c-0.533,0.253-2.165,1.457-2.517,1.764
					c-0.354,0.308-1.425,1.502-1.561,1.688c-0.138,0.186-0.394,0.5-0.403,0.645c-0.01,0.146,0.306,0.399,0.388,0.479
					c0.08,0.08,2.281,1.639,2.538,1.482c0.258-0.155,0.81-1.633,1.426-2.732C195.996,28.507,196.672,27.354,196.839,27.109z"/>
				<path fill="#F7941E" d="M195.042,25.651c0.302-0.243,1.203-1.051,1.421-1.333c0.221-0.282,1.214-2.039,1.214-2.039
					s-6.788,3.293-7.266,3.561c-0.479,0.267-0.974,0.609-1.151,0.833c-0.178,0.222-0.411,0.708-0.288,1.029
					c0.125,0.322,1.159,1.544,1.159,1.544s0.285,0.3,0.414,0.331c0.128,0.03,0.497-0.205,0.605-0.319
					c0.106-0.114,0.813-1.116,1.085-1.408c0.268-0.291,1.063-1.006,1.659-1.472C194.486,25.91,194.74,25.893,195.042,25.651z"/>
				<path fill="#F7941E" d="M194.654,23.177l2.281-1.028c0,0,1.365-0.717,1.73-1.004c0.364-0.289,0.833-0.725,0.966-0.987
					c0.13-0.263,0.233-0.635,0.088-0.76c-0.146-0.125-3.727,0.855-4.382,1.023c-0.656,0.17-4.275,1.444-4.613,1.655
					c-0.339,0.209-0.667,0.633-0.67,1.039c-0.005,0.404,0.384,0.572,0.376,0.797c-0.005,0.226-0.485,0.62-0.647,0.997
					c-0.159,0.376-0.281,0.857-0.069,0.824c0.215-0.03,1.983-1.211,2.489-1.509C192.708,23.925,194.654,23.177,194.654,23.177z"/>
				<path fill="#F7941E" d="M226.215,24.466c0.346,0.283,2.649,2.175,3.121,2.499c0.473,0.323,2.92,1.377,3.157,1.439
					c0.235,0.06,0.855-0.011,0.915-0.099c0.061-0.089-0.561-1.206-0.651-1.484c-0.093-0.28-0.41-1.408-0.831-1.852
					c-0.421-0.442-3.86-2.951-4.513-3.413c-0.654-0.461-5.256-3.437-5.736-3.644c-0.481-0.205-3.953-1.06-3.953-1.06l4.428,3.77
					C222.152,20.622,225.871,24.185,226.215,24.466z"/>
				<path fill="#F7941E" d="M236.043,34.688c-0.112-0.851-0.587-2.132-0.769-2.463c-0.182-0.329-0.799-1.213-1.345-1.698
					c-0.547-0.483-0.864-0.494-1.333-0.721c-0.471-0.229-1.044-0.703-1.21-0.655c-0.165,0.048,1.096,2.553,1.54,3.529
					c0.446,0.976,0.907,1.829,1.178,2.309c0.27,0.479,0.723,0.542,0.932,0.666c0.21,0.124,1.075,2.198,1.075,2.198
					S236.157,35.542,236.043,34.688z"/>
				<path fill="#F7941E" d="M232.566,34.963c-0.188-0.722-1.642-4.311-1.939-4.93c-0.297-0.619-0.705-1.46-1.459-2.084
					c-0.753-0.624-2.175-1.581-2.175-1.581s2.535,9.106,2.823,9.794c0.287,0.688,0.433,0.969,0.887,1.35
					c0.453,0.378,0.993,0.43,1.391,0.306c0.396-0.121,0.722-0.7,0.781-1.03C232.93,36.455,232.756,35.687,232.566,34.963z"/>
				<path fill="#F7941E" d="M226.378,28.361c0,0-0.551-2.433-1.001-3.23c-0.451-0.796-2.843-2.777-3.19-3.142
					c-0.348-0.363-4.554-4.97-4.554-4.97s2.918,7.805,3.146,8.353c0.229,0.548,2.565,5.194,2.892,5.971
					c0.328,0.777,1.623,5.182,2.006,6.341c0.386,1.157,1.437,1.308,2.054,1.11c0.62-0.196,1.307-1.146,0.939-2.382
					C228.302,35.176,226.378,28.361,226.378,28.361z"/>
				<path fill="#F7941E" d="M216.352,35.621c0.465,0.098,0.539-0.12,0.732-0.359c0.193-0.237,0.704-1.261,0.79-1.458
					c0.086-0.196,0.376-0.751,0.487-1.299c0.111-0.547,0.086-1.355,0.086-1.355s0.053-0.616,0.329-1.007
					c0.277-0.392,0.618-0.742,0.618-0.742s-1.957-4.339-2.104-5.074c-0.146-0.735-0.189-2.633-0.286-2.958
					c-0.097-0.326-0.998-0.944-0.998-0.944s-0.688,9.278-0.729,9.764c-0.043,0.487-0.049,1.075-0.009,1.558
					c0.041,0.485,0.229,2.436,0.35,2.939C215.739,35.186,215.885,35.521,216.352,35.621z"/>
				<path fill="#F7941E" d="M212.628,32.042l1.544-2.453l0.535-2.782l0.347-2.333c0,0,0.289-2.347,0.354-2.947
					c0.066-0.6-0.125-1.127-0.197-1.131s-0.92,0.699-1.251,1.317c-0.33,0.619-1.261,3.145-1.543,3.747
					c-0.281,0.602-2.072,4.289-2.901,5.76c-0.829,1.472-3.698,5.754-3.797,5.922c-0.099,0.167,0.237,0.712,0.437,0.883
					c0.199,0.171,0.366,0.34,0.645,0.403c0.281,0.063,0.696,0.002,0.848,0.028c0.153,0.025,0.497,0.325,0.648,0.295
					c0.152-0.029,0.486-0.327,0.72-0.633c0.233-0.308,1.966-2.87,2.229-3.322C211.51,34.346,212.628,32.042,212.628,32.042z"/>
				<path fill="#F7941E" d="M213.072,22.958c0,0-6.269,10.046-6.752,10.683c-0.482,0.637-0.96,0.881-0.96,0.881
					s-0.809,1.151-0.807,1.29c0,0.136,0.134,0.277,0.242,0.346c0.108,0.07,0.422,0.186,0.674,0.148
					c0.251-0.035,0.283-0.033,0.497-0.322c0.217-0.289,3.451-5.679,3.451-5.679L213.072,22.958z"/>
				<path fill="#F7941E" d="M214.383,36.171c0,0,0.4-0.732,0.467-1.363c0.068-0.631-0.246-2.961-0.298-3.233
					c-0.051-0.274-0.278-0.582-0.278-0.582l-1.048,2.234c0,0-1.017,2.222-1.714,3.169c-0.697,0.947-1.936,2.079-1.936,2.079
					s-1.399,1.163-1.398,1.291c0.001,0.127,0.618,0.533,0.806,0.706c0.187,0.172,0.44,0.777,0.44,0.777s0.134,0.268,0.309,0.33
					c0.172,0.059,0.65,0.058,0.821,0.175c0.169,0.114,0.346,0.386,0.474,0.417c0.129,0.033,0.233,0.026,0.43-0.197
					c0.198-0.226,1.745-3.423,1.745-3.423L214.383,36.171z"/>
				<path fill="#F7941E" d="M216.149,40.576c0.063-0.463,0.177-2.486,0.099-3.071c-0.081-0.585-0.188-0.88-0.365-1.115
					c-0.179-0.236-0.351-0.34-0.457-0.354c-0.104-0.013-0.236-0.019-0.362,0.074c-0.126,0.091-0.122,0.459-0.236,0.734
					c-0.113,0.273-0.71,1.472-1.293,2.589c-0.583,1.116-1.516,2.387-1.509,2.685c0.013,0.303,2.521,1.292,2.633,1.317
					c0.109,0.024,0.495,0.149,0.61,0.062c0.116-0.087,0.24-0.472,0.321-0.689C215.669,42.59,216.084,41.041,216.149,40.576z"/>
				<path fill="#F7941E" d="M219.405,41.531c-0.037-0.545-0.993-8.029-0.993-8.029s-0.925,1.793-1.043,2.129
					c-0.115,0.338-0.3,1.534-0.338,1.919c-0.037,0.385,0.087,0.607,0.021,1.358c-0.065,0.75-0.229,1.811-0.327,2.194
					c-0.096,0.385-0.547,1.527-0.583,1.678c-0.039,0.153-0.033,0.59,0.063,0.682c0.094,0.091,0.502,0.165,0.502,0.165
					s1.59,0.2,1.927,0.126c0.339-0.072,0.615-0.532,0.703-0.806C219.429,42.679,219.441,42.076,219.405,41.531z"/>
				<path fill="#F7941E" d="M221.247,34.443c-0.218-0.642-1.354-4.175-1.539-4.229c-0.185-0.054-0.44,0.236-0.588,0.491
					c-0.147,0.253-0.256,0.883-0.298,1.346c-0.043,0.464,0.105,1.999,0.105,1.999l0.386,2.473c0,0,0.439,2.039,0.466,2.624
					c0.027,0.585,0.006,2.713,0.097,2.909c0.091,0.196,0.427-0.168,0.653-0.509c0.227-0.34,0.295-0.958,0.48-1.087
					s0.536,0.104,0.874-0.119c0.336-0.224,0.513-0.73,0.504-1.129C222.377,38.812,221.463,35.083,221.247,34.443z"/>
			</g>
			<g>
				
					<ellipse transform="matrix(0.9998 -0.0224 0.0224 0.9998 -0.0856 4.2754)" fill="#F7941E" cx="191.172" cy="5.964" rx="1.245" ry="0.454"/>
				<path fill="#F7941E" d="M192.252,3.969c0.219,0.047,0.204,0.152,0.393,0.213c0.189,0.063,1.24,0.053,1.125,0.609
					c-0.114,0.556-2.082,0.369-2.06,0.178c0.021-0.19,0.139-0.208,0.186-0.344c0.048-0.135-0.132-0.239-0.074-0.414
					C191.877,4.036,192.033,3.922,192.252,3.969z"/>
				<path fill="#F7941E" d="M183.182,6.213c0.208-0.415,1.646-0.768,2.028-0.429c0.384,0.339,0.191,0.847,0.111,1.029
					c-0.081,0.18-0.421,0.578-0.684,0.66c-0.264,0.083-0.722,0.029-0.94-0.066c-0.22-0.095-0.417-0.288-0.521-0.413
					C183.074,6.869,182.973,6.627,183.182,6.213z"/>
				<path fill="#F1F2F2" d="M198.881,4.698c0.047-0.097,0.477,0.01,0.78,0.145c0.307,0.134,0.633,0.34,0.588,0.457
					c-0.045,0.116-0.458-0.068-0.611-0.117c-0.154-0.048-0.371-0.208-0.474-0.257C199.058,4.878,198.838,4.797,198.881,4.698z"/>
				<path fill="#F1F2F2" d="M193.864,2.882c0.045-0.098,0.477,0.011,0.78,0.144c0.305,0.135,0.632,0.341,0.588,0.457
					c-0.045,0.116-0.458-0.068-0.612-0.117s-0.371-0.209-0.476-0.257C194.041,3.062,193.818,2.979,193.864,2.882z"/>
				<path fill="#F1F2F2" d="M189.377,1.717c0.026-0.105,0.471-0.083,0.794-0.011c0.323,0.072,0.687,0.209,0.664,0.331
					c-0.021,0.123-0.461,0.024-0.622,0.008c-0.16-0.018-0.404-0.133-0.515-0.16C189.586,1.859,189.354,1.823,189.377,1.717z"/>
				<path fill="#F1F2F2" d="M180.088,0.515c0.01-0.107,0.453-0.147,0.784-0.123c0.332,0.026,0.709,0.113,0.704,0.236
					s-0.453,0.088-0.616,0.093c-0.16,0.006-0.417-0.074-0.531-0.084S180.079,0.623,180.088,0.515z"/>
				<path fill="#F1F2F2" d="M178.491,1.486c0.035-0.349,0.579-0.644,0.974-0.684c0.397-0.038,0.835,0.102,0.803,0.504
					s-0.567,0.449-0.764,0.527c-0.196,0.077-0.49-0.086-0.627-0.079C178.742,1.762,178.456,1.837,178.491,1.486z"/>
				<path fill="#F1F2F2" d="M178.52,2.973c-0.045,0.331-0.51,0.602-0.839,0.633c-0.328,0.03-0.683-0.108-0.637-0.487
					c0.047-0.379,0.491-0.417,0.658-0.487c0.167-0.071,0.401,0.088,0.514,0.083C178.328,2.71,178.568,2.642,178.52,2.973z"/>
				<path fill="#F1F2F2" d="M189.125,2.16c0.057-0.158,0.521-0.15,0.842-0.061s0.662,0.274,0.604,0.457s-0.496,0.06-0.661,0.043
					c-0.164-0.017-0.388-0.173-0.497-0.207C189.302,2.358,189.066,2.317,189.125,2.16z"/>
				<path fill="#F1F2F2" d="M193.641,3.526c0.029-0.095,0.545,0.004,0.921,0.13c0.376,0.126,0.794,0.322,0.768,0.435
					c-0.024,0.113-0.535-0.061-0.721-0.105c-0.187-0.045-0.468-0.197-0.597-0.243C193.882,3.699,193.611,3.622,193.641,3.526z"/>
				<path fill="#F1F2F2" d="M177.536,5.178c0,0,0.346-0.218,0.484-0.256c0.14-0.039,0.296,0.162,0.296,0.162s0.2,0.24,0.232,0.35
					c0.033,0.111-0.062,0.229-0.157,0.294c-0.098,0.065-0.421,0.205-0.56,0.207c-0.138,0.002-0.624,0.042-0.668-0.228
					C177.119,5.437,177.536,5.178,177.536,5.178z"/>
				<path fill="#F1F2F2" d="M182.269,9.135c0,0,0.346-0.218,0.485-0.256c0.139-0.039,0.298,0.161,0.298,0.161
					s0.197,0.241,0.23,0.351c0.034,0.111-0.063,0.229-0.159,0.294c-0.099,0.066-0.419,0.205-0.558,0.207
					c-0.141,0.001-0.625,0.042-0.669-0.229C181.853,9.393,182.269,9.135,182.269,9.135z"/>
				<path fill="#F1F2F2" d="M184.1,10.803c0,0,0.263-0.134,0.374-0.151c0.109-0.018,0.252,0.136,0.252,0.136
					s0.176,0.187,0.211,0.269c0.035,0.082-0.035,0.161-0.109,0.199c-0.073,0.041-0.324,0.12-0.438,0.111
					c-0.112-0.009-0.5-0.012-0.555-0.209C183.781,10.958,184.1,10.803,184.1,10.803z"/>
				<path fill="#F1F2F2" d="M186.5,19.217c0,0,0.265-0.133,0.373-0.151c0.11-0.018,0.252,0.136,0.252,0.136s0.177,0.187,0.212,0.269
					c0.033,0.081-0.034,0.159-0.107,0.2c-0.074,0.04-0.327,0.117-0.438,0.109c-0.113-0.009-0.503-0.014-0.558-0.21
					C186.179,19.372,186.5,19.217,186.5,19.217z"/>
				<path fill="#F1F2F2" d="M189.484,21.514c0,0,0.188-0.063,0.27-0.065c0.081-0.002,0.201,0.108,0.201,0.108
					s0.148,0.136,0.182,0.19c0.032,0.055-0.013,0.099-0.064,0.119c-0.053,0.021-0.236,0.048-0.32,0.033
					c-0.085-0.015-0.379-0.051-0.437-0.182C189.258,21.588,189.484,21.514,189.484,21.514z"/>
				<path fill="#F1F2F2" d="M187.801,24.077c0,0,0.069-0.215,0.117-0.286c0.053-0.07,0.22-0.074,0.22-0.074s0.204-0.005,0.269,0.016
					c0.064,0.021,0.072,0.099,0.055,0.16c-0.019,0.063-0.112,0.242-0.18,0.301c-0.065,0.059-0.282,0.276-0.425,0.208
					C187.714,24.333,187.801,24.077,187.801,24.077z"/>
				<path fill="#F1F2F2" d="M186.533,25.543c0,0-0.05-0.163-0.048-0.228c0-0.066,0.103-0.139,0.103-0.139s0.123-0.092,0.174-0.107
					c0.049-0.015,0.087,0.031,0.103,0.076c0.015,0.046,0.032,0.197,0.019,0.262c-0.017,0.065-0.059,0.293-0.176,0.313
					C186.589,25.739,186.533,25.543,186.533,25.543z"/>
				<path fill="#F1F2F2" d="M187.272,27.053c0,0,0.066,0.156,0.074,0.22c0.008,0.065-0.086,0.149-0.086,0.149
					s-0.113,0.106-0.16,0.125c-0.048,0.022-0.09-0.019-0.109-0.063c-0.022-0.043-0.058-0.191-0.049-0.258
					c0.009-0.066,0.022-0.296,0.138-0.33C187.195,26.865,187.272,27.053,187.272,27.053z"/>
				<path fill="#F1F2F2" d="M187.296,29.921c0,0,0.133,0.106,0.169,0.159c0.036,0.054-0.005,0.174-0.005,0.174
					s-0.051,0.144-0.082,0.185c-0.034,0.041-0.092,0.025-0.129-0.004c-0.038-0.029-0.14-0.144-0.165-0.206
					c-0.021-0.063-0.116-0.274-0.032-0.356C187.138,29.792,187.296,29.921,187.296,29.921z"/>
				<path fill="#F1F2F2" d="M188.452,31.689c0,0,0.133,0.106,0.169,0.16s-0.005,0.172-0.005,0.172s-0.05,0.146-0.083,0.186
					s-0.089,0.024-0.126-0.005c-0.04-0.029-0.141-0.143-0.167-0.206c-0.022-0.062-0.117-0.272-0.03-0.354
					C188.294,31.559,188.452,31.689,188.452,31.689z"/>
				<path fill="#F1F2F2" d="M190.354,31.976c0,0,0.17,0.011,0.23,0.036c0.06,0.023,0.094,0.145,0.094,0.145s0.041,0.146,0.038,0.2
					c-0.005,0.051-0.06,0.07-0.109,0.068c-0.046,0-0.195-0.037-0.249-0.075c-0.058-0.038-0.254-0.158-0.231-0.275
					C190.152,31.959,190.354,31.976,190.354,31.976z"/>
				<path fill="#F1F2F2" d="M192.966,33.183c0,0,0.137,0.01,0.186,0.029c0.051,0.02,0.076,0.118,0.076,0.118
					s0.034,0.122,0.031,0.163c-0.002,0.041-0.048,0.057-0.086,0.057c-0.04-0.002-0.161-0.032-0.206-0.063
					c-0.043-0.03-0.206-0.128-0.187-0.223C192.799,33.171,192.966,33.183,192.966,33.183z"/>
				<path fill="#F1F2F2" d="M194.284,34.634c0,0,0.137,0.009,0.187,0.029c0.05,0.019,0.077,0.118,0.077,0.118
					s0.033,0.121,0.029,0.163C194.575,34.986,194.53,35,194.49,35c-0.04-0.002-0.159-0.031-0.204-0.062
					c-0.047-0.03-0.207-0.127-0.189-0.222C194.119,34.621,194.284,34.634,194.284,34.634z"/>
				<path fill="#F1F2F2" d="M196.826,35.664c0,0,0.158-0.06,0.227-0.061c0.064-0.003,0.146,0.095,0.146,0.095
					s0.106,0.118,0.124,0.166c0.02,0.05-0.022,0.09-0.067,0.108c-0.045,0.019-0.197,0.044-0.264,0.033
					c-0.067-0.013-0.299-0.042-0.329-0.157C196.633,35.731,196.826,35.664,196.826,35.664z"/>
				<path fill="#F1F2F2" d="M200.341,36.073c0,0,0.035-0.267,0.072-0.353c0.04-0.085,0.204-0.077,0.204-0.077
					s0.204,0.007,0.271,0.038c0.067,0.033,0.086,0.131,0.078,0.208c-0.009,0.077-0.073,0.297-0.131,0.366
					c-0.056,0.07-0.237,0.33-0.389,0.233C200.295,36.392,200.341,36.073,200.341,36.073z"/>
				<path fill="#F1F2F2" d="M200.115,37.501c0,0,0.082,0.147,0.095,0.214c0.015,0.063-0.068,0.162-0.068,0.162
					s-0.101,0.12-0.146,0.147c-0.046,0.025-0.092-0.01-0.117-0.051c-0.024-0.041-0.076-0.187-0.073-0.254
					c0.001-0.068-0.006-0.303,0.104-0.351C200.018,37.321,200.115,37.501,200.115,37.501z"/>
				<path fill="#F1F2F2" d="M193.828,36.292c0,0,0.205-0.067,0.291-0.068c0.085-0.001,0.194,0.125,0.194,0.125
					s0.139,0.152,0.167,0.214c0.024,0.061-0.027,0.11-0.085,0.133c-0.059,0.02-0.252,0.049-0.341,0.032
					c-0.087-0.018-0.39-0.063-0.432-0.209C193.582,36.37,193.828,36.292,193.828,36.292z"/>
				<path fill="#F1F2F2" d="M198.213,36.995c0,0,0.204-0.068,0.287-0.07c0.086-0.001,0.198,0.125,0.198,0.125
					s0.137,0.152,0.164,0.215c0.026,0.062-0.027,0.111-0.084,0.132c-0.058,0.021-0.253,0.051-0.339,0.032
					c-0.089-0.017-0.391-0.062-0.434-0.209C197.964,37.073,198.213,36.995,198.213,36.995z"/>
				<path fill="#F1F2F2" d="M189.953,33.822c0,0,0.147,0.025,0.204,0.053c0.053,0.027,0.092,0.146,0.092,0.146
					s0.05,0.144,0.051,0.192c0,0.049-0.046,0.062-0.088,0.057c-0.043-0.006-0.172-0.053-0.225-0.094
					c-0.052-0.041-0.232-0.17-0.222-0.278C189.776,33.788,189.953,33.822,189.953,33.822z"/>
				<path fill="#F1F2F2" d="M191.842,34.699c0,0,0.182,0.076,0.253,0.13c0.072,0.054,0.149,0.231,0.149,0.231
					s0.095,0.218,0.109,0.287c0.016,0.069-0.034,0.075-0.086,0.056c-0.052-0.02-0.22-0.122-0.29-0.193
					c-0.072-0.072-0.318-0.304-0.336-0.456C191.627,34.604,191.842,34.699,191.842,34.699z"/>
				<path fill="#F1F2F2" d="M201.093,37.664c0,0,0.149-0.127,0.229-0.167c0.083-0.04,0.274-0.029,0.274-0.029
					s0.237,0.011,0.306,0.029c0.067,0.018,0.053,0.065,0.013,0.102c-0.042,0.038-0.208,0.142-0.304,0.173
					c-0.095,0.031-0.414,0.149-0.558,0.096C200.912,37.816,201.093,37.664,201.093,37.664z"/>
				<path fill="#F1F2F2" d="M188.003,28.454c0,0,0.16,0.124,0.205,0.188c0.044,0.063-0.001,0.207-0.001,0.207
					s-0.055,0.178-0.092,0.228c-0.038,0.049-0.104,0.033-0.152-0.001c-0.045-0.034-0.169-0.168-0.199-0.243
					c-0.029-0.075-0.149-0.326-0.05-0.428C187.813,28.303,188.003,28.454,188.003,28.454z"/>
				<path fill="#F1F2F2" d="M184.883,12.925c0,0-0.203,0.249-0.308,0.316c-0.103,0.067-0.322-0.019-0.322-0.019
					s-0.271-0.102-0.345-0.165c-0.074-0.065-0.041-0.172,0.016-0.245c0.057-0.073,0.274-0.262,0.393-0.304
					c0.118-0.043,0.518-0.215,0.667-0.047C185.133,12.629,184.883,12.925,184.883,12.925z"/>
				<path fill="#F1F2F2" d="M187.57,4.547c0,0-0.579,0.288-0.796,0.325c-0.219,0.038-0.387-0.296-0.387-0.296
					s-0.213-0.405-0.224-0.582c-0.014-0.177,0.166-0.347,0.331-0.433c0.165-0.087,0.688-0.253,0.894-0.235
					c0.204,0.019,0.935,0.031,0.91,0.458C188.272,4.21,187.57,4.547,187.57,4.547z"/>
				<path fill="#F1F2F2" d="M187.087,2.127c0,0,0.4-0.066,0.546-0.045c0.146,0.022,0.23,0.274,0.23,0.274s0.112,0.307,0.108,0.425
					c-0.006,0.117-0.136,0.189-0.25,0.211c-0.114,0.022-0.468,0.022-0.603-0.034c-0.133-0.055-0.611-0.216-0.563-0.487
					C186.602,2.199,187.087,2.127,187.087,2.127z"/>
				<path fill="#F1F2F2" d="M175.72,1.473c0.032-0.015,0.214-0.101,0.279-0.1c0.066,0.001,0.156,0.106,0.136,0.167
					c-0.021,0.059-0.236,0.139-0.271,0.161c-0.038,0.021-0.165-0.011-0.198-0.052C175.63,1.608,175.688,1.488,175.72,1.473z"/>
				<path fill="#F1F2F2" d="M175.496,2.465c0.053-0.007,0.09-0.003,0.148-0.057c0.058-0.055,0.104-0.114,0.158-0.101
					c0.054,0.014,0.064,0.096,0.032,0.147c-0.03,0.05-0.113,0.199-0.193,0.233c-0.078,0.035-0.224,0.007-0.252-0.028
					C175.363,2.625,175.443,2.475,175.496,2.465z"/>
				<path fill="#F1F2F2" d="M178.209,4.116c0.047-0.02,0.241-0.12,0.343-0.149c0.103-0.029,0.202-0.007,0.223,0.033
					c0.021,0.04-0.061,0.195-0.118,0.219c-0.057,0.025-0.286,0.127-0.32,0.125c-0.033-0.003-0.099,0.002-0.145-0.08
					C178.144,4.181,178.165,4.135,178.209,4.116z"/>
				<path fill="#F1F2F2" d="M175.103,4.14c0,0,0.174-0.064,0.229-0.051c0.053,0.013,0.075,0.033,0.107,0.058
					c0.032,0.026,0.069,0.077,0.059,0.12c-0.014,0.043-0.167,0.15-0.208,0.176c-0.043,0.024-0.114,0.037-0.188,0.025
					c-0.074-0.013-0.101-0.065-0.12-0.101c-0.022-0.037-0.026-0.113-0.004-0.155C175.001,4.168,175.103,4.14,175.103,4.14z"/>
				<path fill="#F1F2F2" d="M177.663,8.167c0,0,0.217-0.028,0.282,0c0.067,0.027,0.091,0.056,0.13,0.093
					c0.037,0.037,0.083,0.104,0.065,0.15c-0.017,0.046-0.214,0.127-0.265,0.145c-0.053,0.019-0.146,0.015-0.235-0.018
					c-0.088-0.033-0.117-0.098-0.143-0.145c-0.022-0.047-0.024-0.136,0.007-0.179C177.535,8.172,177.663,8.167,177.663,8.167z"/>
				<path fill="#F1F2F2" d="M179.299,9.26c0,0-0.217,0.093-0.294,0.083c-0.077-0.009-0.11-0.031-0.16-0.059
					c-0.052-0.028-0.116-0.084-0.111-0.138s0.185-0.197,0.234-0.23c0.047-0.035,0.145-0.058,0.246-0.051
					c0.104,0.008,0.149,0.069,0.19,0.11c0.039,0.042,0.066,0.134,0.045,0.188C179.43,9.216,179.299,9.26,179.299,9.26z"/>
				<path fill="#F1F2F2" d="M180.68,10.879c0,0-0.271-0.017-0.354-0.064c-0.085-0.048-0.116-0.087-0.168-0.14
					c-0.047-0.053-0.105-0.144-0.087-0.195c0.021-0.05,0.263-0.102,0.327-0.112c0.065-0.009,0.181,0.016,0.294,0.075
					c0.113,0.059,0.15,0.142,0.185,0.204c0.032,0.063,0.037,0.167,0,0.21C180.84,10.902,180.68,10.879,180.68,10.879z"/>
				<path fill="#F1F2F2" d="M182.04,12.179c0,0-0.237-0.135-0.29-0.216c-0.056-0.08-0.065-0.128-0.087-0.198
					c-0.02-0.069-0.033-0.176,0.006-0.212c0.04-0.037,0.281,0.024,0.343,0.043c0.063,0.02,0.155,0.094,0.231,0.198
					c0.074,0.103,0.07,0.194,0.073,0.265c0.003,0.069-0.04,0.165-0.091,0.187C182.171,12.271,182.04,12.179,182.04,12.179z"/>
				<path fill="#F1F2F2" d="M185.732,15.364c0,0-0.235-0.134-0.29-0.215c-0.055-0.082-0.064-0.13-0.087-0.199
					c-0.02-0.07-0.032-0.177,0.008-0.213c0.039-0.037,0.281,0.024,0.343,0.043c0.063,0.02,0.154,0.095,0.229,0.198
					c0.077,0.103,0.072,0.195,0.074,0.265c0.003,0.07-0.039,0.166-0.092,0.189C185.866,15.455,185.732,15.364,185.732,15.364z"/>
				<path fill="#F1F2F2" d="M185.232,17.748c0,0-0.21-0.108-0.258-0.176c-0.046-0.066-0.055-0.107-0.072-0.167
					c-0.018-0.058-0.024-0.148,0.013-0.181c0.037-0.032,0.254,0.013,0.309,0.027c0.058,0.014,0.138,0.077,0.205,0.161
					c0.066,0.088,0.059,0.165,0.059,0.225c0,0.059-0.04,0.142-0.09,0.164C185.35,17.821,185.232,17.748,185.232,17.748z"/>
				<path fill="#F1F2F2" d="M187.266,22.907c0,0-0.021-0.237,0.011-0.302c0.033-0.067,0.064-0.087,0.106-0.122
					c0.045-0.035,0.118-0.069,0.17-0.043c0.05,0.026,0.129,0.25,0.149,0.31c0.017,0.059,0.008,0.156-0.03,0.245
					c-0.04,0.091-0.112,0.108-0.166,0.127c-0.051,0.018-0.15,0.001-0.195-0.039C187.268,23.044,187.266,22.907,187.266,22.907z"/>
				<path fill="#F1F2F2" d="M186.557,16.961c0,0-0.226,0.071-0.306,0.056c-0.08-0.016-0.116-0.04-0.17-0.068
					c-0.052-0.031-0.123-0.089-0.118-0.138c0.004-0.05,0.19-0.169,0.24-0.198c0.05-0.029,0.152-0.042,0.258-0.028
					c0.107,0.015,0.158,0.075,0.2,0.118c0.042,0.042,0.071,0.131,0.051,0.179C186.694,16.93,186.557,16.961,186.557,16.961z"/>
				<path fill="#F1F2F2" d="M182.947,14.348c0,0-0.235-0.135-0.29-0.215c-0.055-0.082-0.065-0.129-0.086-0.199
					c-0.021-0.07-0.033-0.175,0.007-0.211c0.039-0.038,0.281,0.022,0.343,0.043c0.062,0.019,0.154,0.094,0.23,0.197
					c0.075,0.103,0.071,0.195,0.073,0.265c0.003,0.07-0.04,0.166-0.091,0.188C183.08,14.439,182.947,14.348,182.947,14.348z"/>
				<path fill="#F1F2F2" d="M184.021,15.225c0,0,0.163,0.217,0.181,0.313c0.019,0.096,0.009,0.145,0.001,0.217
					c-0.01,0.071-0.04,0.175-0.092,0.192c-0.05,0.017-0.248-0.134-0.297-0.176c-0.05-0.042-0.104-0.148-0.133-0.272
					s0.01-0.208,0.036-0.272c0.024-0.065,0.102-0.136,0.159-0.138C183.934,15.088,184.021,15.225,184.021,15.225z"/>
				<path fill="#F1F2F2" d="M175.432,5.097c-0.006-0.025,0.031-0.072,0.066-0.085c0.036-0.014,0.36-0.014,0.371,0.014
					c0.01,0.025-0.075,0.089-0.104,0.097c-0.03,0.006-0.17,0.047-0.199,0.046C175.536,5.167,175.439,5.121,175.432,5.097z"/>
				<path fill="#F1F2F2" d="M175.808,6.48c0,0,0.29-0.084,0.375-0.066c0.084,0.019,0.179,0.03,0.191,0.074
					c0.013,0.045,0.069,0.209,0.01,0.263c-0.06,0.053-0.24,0.042-0.24,0.042s-0.131,0.066-0.205,0.052
					c-0.072-0.014-0.063-0.098-0.109-0.104c-0.046-0.009-0.191-0.018-0.177-0.111S175.808,6.48,175.808,6.48z"/>
				<path fill="#F1F2F2" d="M178.891,7.415c0.022-0.089,0.143-0.34,0.331-0.416c0.187-0.076,0.526,0.032,0.62,0.093
					s0.229,0.231,0.202,0.297c-0.023,0.067-0.192,0.073-0.241,0.131c-0.05,0.058-0.166,0.203-0.264,0.246
					c-0.1,0.043-0.384-0.021-0.384-0.021s-0.208-0.044-0.235-0.126S178.866,7.504,178.891,7.415z"/>
				<path fill="#F1F2F2" d="M195.828,37.088c0,0,0.158-0.125,0.251-0.109c0.093,0.016,0.335,0.329,0.301,0.285
					c-0.035-0.044,0.174,0.069,0.238,0.175c0.065,0.105,0.086,0.198-0.02,0.317c-0.104,0.12-0.172,0.114-0.316,0.078
					c-0.142-0.038-0.509-0.291-0.535-0.429S195.828,37.088,195.828,37.088z"/>
				<path fill="#F1F2F2" d="M201.668,36.047c0,0-0.021-0.231,0.045-0.302c0.066-0.07,0.475-0.051,0.418-0.053
					c-0.059-0.002,0.156-0.102,0.285-0.081c0.128,0.022,0.218,0.071,0.265,0.253c0.045,0.182,0.003,0.236-0.109,0.334
					c-0.11,0.098-0.538,0.235-0.675,0.154C201.763,36.274,201.668,36.047,201.668,36.047z"/>
				<path fill="#F1F2F2" d="M204.56,33.956c0.132,0.071,0.172-0.245,0.035-0.317c-0.135-0.073-0.149-0.068-0.249-0.134
					c-0.097-0.067-0.142-0.387-0.142-0.387l-0.075,0.282l0.146,0.335C204.276,33.734,204.43,33.884,204.56,33.956z"/>
				<path fill="#F1F2F2" d="M203.151,36.274c0.083-0.116,0.275-0.668,0.228-0.734c-0.048-0.067-0.098-0.053-0.281,0.13
					c-0.185,0.183-0.207,0.354-0.24,0.445C202.821,36.208,203.067,36.391,203.151,36.274z"/>
				<path fill="#F1F2F2" d="M204.97,31.548c0.009-0.054,0.197-0.012,0.197-0.012l0.327,0.106c0,0,0.174,0.001,0.229,0.043
					c0.059,0.042,0.086,0.147-0.009,0.131c-0.096-0.015-0.177-0.03-0.177-0.03l-0.323-0.104
					C205.215,31.682,204.958,31.604,204.97,31.548z"/>
				<path fill="#F1F2F2" d="M205.725,30.026c0.01-0.055,0.199-0.014,0.199-0.014l0.326,0.106c0,0,0.172,0.001,0.231,0.042
					c0.058,0.042,0.082,0.146-0.011,0.132c-0.094-0.016-0.176-0.029-0.176-0.029l-0.323-0.104
					C205.972,30.16,205.715,30.082,205.725,30.026z"/>
				<path fill="#F1F2F2" d="M206.535,28.554c0.015-0.054,0.169-0.03,0.169-0.03l0.268,0.073c0,0,0.143-0.013,0.188,0.022
					c0.046,0.035,0.061,0.132-0.019,0.125c-0.078-0.007-0.146-0.014-0.146-0.014l-0.264-0.071
					C206.731,28.66,206.523,28.608,206.535,28.554z"/>
				<path fill="#F1F2F2" d="M213.753,13.382c0.135-0.076,0.494-0.042,0.528,0.071c0.033,0.113-0.367,0.255-0.367,0.255
					s-0.416,0.17-0.466,0.062C213.399,13.663,213.618,13.458,213.753,13.382z"/>
				<path fill="#F1F2F2" d="M215.402,13.399c0.11,0.02,0.007-0.212,0.065-0.369c0.058-0.158,0.398-0.19,0.296-0.299
					c-0.103-0.109-0.463-0.29-0.754,0.023C214.718,13.069,215.292,13.379,215.402,13.399z"/>
				<path fill="#F1F2F2" d="M215.856,12.311c0.034,0.085,0.44,0.008,0.485-0.074c0.046-0.084-0.062-0.236-0.226-0.257
					C215.953,11.958,215.821,12.226,215.856,12.311z"/>
				<path fill="#F1F2F2" d="M215.209,12.363c-0.057,0.047-0.137-0.028-0.2,0.028c-0.063,0.059-0.093,0.15-0.093,0.15
					s-0.061,0.159-0.147,0.077c-0.087-0.083,0.367-0.693,0.422-0.673C215.249,11.967,215.268,12.316,215.209,12.363z"/>
			</g>
			<g>
				
					<ellipse transform="matrix(-0.5276 -0.8495 0.8495 -0.5276 334.3423 245.8755)" fill="#F7941E" cx="235.537" cy="29.974" rx="1.244" ry="0.454"/>
				<path fill="#F7941E" d="M236.617,27.98c-0.159-0.159-0.239-0.089-0.395-0.215c-0.155-0.125-0.722-1.009-1.125-0.61
					c-0.403,0.401,0.83,1.948,0.979,1.825c0.146-0.123,0.097-0.231,0.186-0.345c0.088-0.113,0.272-0.02,0.388-0.163
					C236.765,28.329,236.775,28.137,236.617,27.98z"/>
				<path fill="#F7941E" d="M239.698,36.8c0.234-0.401-0.257-1.8-0.751-1.934c-0.493-0.136-0.815,0.303-0.921,0.471
					c-0.104,0.167-0.254,0.667-0.18,0.934c0.073,0.263,0.37,0.618,0.571,0.749c0.199,0.133,0.47,0.193,0.629,0.21
					C239.208,37.247,239.466,37.201,239.698,36.8z"/>
				<path fill="#F1F2F2" d="M232.379,22.826c0.057-0.091-0.271-0.393-0.548-0.573c-0.278-0.182-0.631-0.344-0.702-0.243
					c-0.073,0.102,0.307,0.346,0.433,0.449c0.124,0.103,0.377,0.195,0.474,0.256C232.133,22.777,232.321,22.918,232.379,22.826z"/>
				<path fill="#F1F2F2" d="M236.644,26.034c0.058-0.092-0.269-0.392-0.545-0.573c-0.28-0.181-0.632-0.342-0.704-0.242
					c-0.071,0.102,0.306,0.346,0.432,0.45c0.124,0.102,0.377,0.195,0.474,0.256C236.398,25.985,236.587,26.125,236.644,26.034z"/>
				<path fill="#F1F2F2" d="M240.073,29.153c0.075-0.078-0.187-0.439-0.423-0.671c-0.239-0.232-0.553-0.459-0.642-0.375
					c-0.092,0.086,0.233,0.4,0.335,0.526c0.103,0.125,0.33,0.265,0.415,0.343C239.841,29.055,240,29.232,240.073,29.153z"/>
				<path fill="#F1F2F2" d="M246.16,36.273c0.085-0.067-0.123-0.46-0.326-0.723c-0.201-0.263-0.481-0.533-0.583-0.462
					c-0.1,0.072,0.176,0.429,0.26,0.567c0.083,0.138,0.291,0.31,0.362,0.4C245.942,36.145,246.077,36.341,246.16,36.273z"/>
				<path fill="#F1F2F2" d="M246.218,38.14c0.275-0.22,0.226-0.836,0.041-1.188c-0.185-0.353-0.539-0.641-0.858-0.395
					c-0.318,0.246-0.066,0.72-0.022,0.928c0.042,0.207,0.34,0.363,0.408,0.481C245.855,38.083,245.946,38.362,246.218,38.14z"/>
				<path fill="#F1F2F2" d="M244.958,38.929c-0.249,0.221-0.223,0.757-0.069,1.048c0.153,0.292,0.464,0.514,0.756,0.268
					c0.292-0.247,0.08-0.639,0.048-0.818c-0.031-0.177-0.291-0.285-0.35-0.383C245.286,38.947,245.211,38.71,244.958,38.929z"/>
				<path fill="#F1F2F2" d="M239.841,29.608c0.101-0.134-0.159-0.519-0.408-0.739c-0.251-0.222-0.594-0.406-0.714-0.256
					c-0.121,0.149,0.221,0.448,0.324,0.578c0.104,0.127,0.358,0.228,0.445,0.303C239.578,29.568,239.742,29.742,239.841,29.608z"/>
				<path fill="#F1F2F2" d="M236.227,26.574c0.063-0.077-0.302-0.455-0.612-0.7c-0.313-0.245-0.704-0.489-0.784-0.405
					c-0.08,0.083,0.343,0.414,0.482,0.546c0.141,0.132,0.422,0.284,0.529,0.367C235.951,26.465,236.163,26.65,236.227,26.574z"/>
				<path fill="#F1F2F2" d="M243.652,40.961c0,0-0.006-0.409-0.048-0.545c-0.047-0.137-0.299-0.162-0.299-0.162
					s-0.311-0.033-0.421-0.001c-0.109,0.033-0.158,0.177-0.159,0.294s0.059,0.463,0.133,0.581c0.075,0.117,0.305,0.545,0.557,0.435
					C243.664,41.451,243.652,40.961,243.652,40.961z"/>
				<path fill="#F1F2F2" d="M237.75,39.161c0,0-0.005-0.407-0.05-0.545c-0.044-0.136-0.297-0.16-0.297-0.16
					s-0.312-0.036-0.423-0.004c-0.107,0.035-0.155,0.179-0.157,0.295c-0.002,0.118,0.059,0.464,0.132,0.58
					c0.074,0.118,0.306,0.548,0.556,0.435C237.763,39.651,237.75,39.161,237.75,39.161z"/>
				<path fill="#F1F2F2" d="M235.354,38.541c0,0-0.034-0.294-0.079-0.396c-0.043-0.101-0.25-0.136-0.25-0.136
					s-0.255-0.046-0.342-0.03c-0.087,0.016-0.113,0.117-0.107,0.2c0.007,0.085,0.078,0.337,0.147,0.426
					c0.068,0.091,0.284,0.413,0.479,0.352C235.397,38.895,235.354,38.541,235.354,38.541z"/>
				<path fill="#F1F2F2" d="M226.998,41.133c0,0-0.033-0.292-0.077-0.394c-0.046-0.102-0.252-0.137-0.252-0.137
					s-0.253-0.047-0.34-0.03c-0.087,0.016-0.117,0.115-0.109,0.2c0.006,0.085,0.079,0.337,0.149,0.427
					c0.065,0.089,0.283,0.414,0.479,0.352C227.042,41.488,226.998,41.133,226.998,41.133z"/>
				<path fill="#F1F2F2" d="M223.441,39.892c0,0-0.049-0.191-0.092-0.261c-0.041-0.069-0.202-0.109-0.202-0.109
					s-0.193-0.051-0.257-0.048c-0.063,0.002-0.077,0.065-0.065,0.118c0.013,0.054,0.089,0.224,0.147,0.287
					c0.06,0.063,0.25,0.289,0.391,0.265C223.505,40.122,223.441,39.892,223.441,39.892z"/>
				<path fill="#F1F2F2" d="M222.217,42.702c0,0,0.143-0.174,0.175-0.256c0.029-0.08-0.059-0.224-0.059-0.224
					s-0.105-0.172-0.16-0.214c-0.054-0.044-0.122-0.008-0.163,0.041c-0.043,0.047-0.143,0.226-0.153,0.315
					c-0.014,0.086-0.076,0.387,0.057,0.469C222.049,42.914,222.217,42.702,222.217,42.702z"/>
				<path fill="#F1F2F2" d="M221.684,44.566c0,0,0.161-0.049,0.216-0.084c0.054-0.038,0.061-0.163,0.061-0.163
					s0.01-0.152-0.005-0.203c-0.016-0.049-0.074-0.055-0.121-0.044c-0.046,0.012-0.183,0.08-0.23,0.129
					c-0.045,0.048-0.213,0.206-0.165,0.315C221.489,44.626,221.684,44.566,221.684,44.566z"/>
				<path fill="#F1F2F2" d="M220.014,44.772c0,0-0.166,0.029-0.225,0.06c-0.059,0.029-0.078,0.153-0.078,0.153
					s-0.027,0.151-0.018,0.202c0.009,0.05,0.066,0.065,0.114,0.058c0.046-0.005,0.191-0.056,0.243-0.101
					c0.051-0.044,0.235-0.182,0.199-0.296C220.216,44.737,220.014,44.772,220.014,44.772z"/>
				<path fill="#F1F2F2" d="M217.599,46.322c0,0-0.16-0.054-0.227-0.055c-0.064-0.001-0.141,0.099-0.141,0.099
					s-0.095,0.122-0.11,0.171c-0.017,0.048,0.028,0.088,0.073,0.104c0.046,0.017,0.196,0.04,0.264,0.025
					c0.063-0.015,0.291-0.05,0.315-0.167C217.794,46.383,217.599,46.322,217.599,46.322z"/>
				<path fill="#F1F2F2" d="M215.489,46.321c0,0-0.162-0.053-0.228-0.055c-0.065,0-0.141,0.1-0.141,0.1s-0.095,0.122-0.111,0.169
					c-0.015,0.05,0.028,0.089,0.072,0.105c0.048,0.018,0.198,0.039,0.264,0.027c0.066-0.015,0.293-0.053,0.316-0.168
					C215.683,46.381,215.489,46.321,215.489,46.321z"/>
				<path fill="#F1F2F2" d="M214.208,44.886c0,0-0.103-0.137-0.155-0.174c-0.054-0.039-0.173,0.002-0.173,0.002
					s-0.146,0.046-0.188,0.076c-0.043,0.032-0.027,0.087,0,0.129c0.028,0.04,0.141,0.145,0.201,0.168
					c0.063,0.026,0.271,0.126,0.354,0.043C214.333,45.046,214.208,44.886,214.208,44.886z"/>
				<path fill="#F1F2F2" d="M211.767,43.359c0,0-0.083-0.109-0.125-0.14c-0.045-0.033-0.143-0.001-0.143-0.001
					s-0.119,0.038-0.151,0.064c-0.035,0.025-0.022,0.071,0.001,0.104c0.021,0.033,0.113,0.117,0.163,0.14
					c0.05,0.019,0.222,0.101,0.289,0.034C211.871,43.489,211.767,43.359,211.767,43.359z"/>
				<path fill="#F1F2F2" d="M209.833,43.048c0,0-0.083-0.109-0.126-0.14c-0.045-0.031-0.142,0-0.142,0s-0.119,0.038-0.154,0.065
					c-0.032,0.024-0.021,0.069,0.003,0.105c0.021,0.03,0.113,0.116,0.164,0.137c0.05,0.021,0.219,0.102,0.288,0.034
					C209.936,43.181,209.833,43.048,209.833,43.048z"/>
				<path fill="#F1F2F2" d="M207.58,41.483c0,0-0.038-0.164-0.071-0.221c-0.036-0.057-0.16-0.074-0.16-0.074
					s-0.157-0.022-0.208-0.011c-0.051,0.011-0.062,0.067-0.051,0.114c0.008,0.049,0.069,0.19,0.114,0.239
					c0.049,0.049,0.199,0.228,0.313,0.19S207.58,41.483,207.58,41.483z"/>
				<path fill="#F1F2F2" d="M205.316,38.765c0,0,0.203-0.176,0.253-0.255c0.052-0.078-0.045-0.213-0.045-0.213
					s-0.117-0.165-0.18-0.204c-0.064-0.04-0.156,0-0.219,0.047c-0.06,0.05-0.208,0.225-0.235,0.311
					c-0.028,0.084-0.145,0.379,0.019,0.454C205.073,38.979,205.316,38.765,205.316,38.765z"/>
				<path fill="#F1F2F2" d="M204.243,39.736c0,0-0.169,0.012-0.229,0.037c-0.063,0.023-0.098,0.147-0.098,0.147
					s-0.045,0.15-0.045,0.203c0.003,0.05,0.058,0.07,0.104,0.068c0.05-0.002,0.199-0.039,0.256-0.078
					c0.056-0.039,0.255-0.159,0.237-0.278C204.449,39.718,204.243,39.736,204.243,39.736z"/>
				<path fill="#F1F2F2" d="M208.694,44.336c0,0-0.054-0.207-0.102-0.279c-0.044-0.071-0.21-0.097-0.21-0.097
					s-0.203-0.03-0.271-0.021c-0.065,0.013-0.078,0.085-0.063,0.145c0.013,0.059,0.095,0.238,0.158,0.301
					c0.063,0.064,0.266,0.293,0.411,0.25C208.762,44.587,208.694,44.336,208.694,44.336z"/>
				<path fill="#F1F2F2" d="M205.709,41.052c0,0-0.057-0.209-0.102-0.282c-0.047-0.07-0.211-0.095-0.211-0.095
					s-0.204-0.031-0.271-0.021c-0.064,0.013-0.078,0.083-0.063,0.144c0.013,0.06,0.095,0.238,0.157,0.303
					c0.063,0.063,0.267,0.292,0.41,0.245C205.779,41.302,205.709,41.052,205.709,41.052z"/>
				<path fill="#F1F2F2" d="M212.88,46.23c0,0-0.103-0.11-0.154-0.14c-0.053-0.031-0.172,0-0.172,0s-0.147,0.039-0.188,0.064
					c-0.042,0.025-0.025,0.072,0.002,0.104c0.027,0.031,0.138,0.116,0.2,0.136c0.061,0.021,0.27,0.103,0.354,0.037
					C213.007,46.361,212.88,46.23,212.88,46.23z"/>
				<path fill="#F1F2F2" d="M211.113,45.126c0,0-0.163-0.108-0.245-0.137c-0.086-0.032-0.276,0-0.276,0s-0.235,0.037-0.301,0.065
					c-0.065,0.024-0.043,0.071,0.002,0.103c0.044,0.032,0.22,0.116,0.321,0.135c0.097,0.02,0.428,0.102,0.563,0.032
					C211.312,45.259,211.113,45.126,211.113,45.126z"/>
				<path fill="#F1F2F2" d="M203.571,39.005c0,0,0.026-0.194,0.017-0.283c-0.013-0.09-0.127-0.246-0.127-0.246
					s-0.137-0.192-0.19-0.24c-0.051-0.047-0.084-0.007-0.094,0.048c-0.007,0.054-0.005,0.25,0.022,0.347
					c0.025,0.099,0.103,0.43,0.225,0.521C203.542,39.241,203.571,39.005,203.571,39.005z"/>
				<path fill="#F1F2F2" d="M218.442,44.928c0,0-0.191-0.068-0.271-0.07c-0.078-0.002-0.173,0.115-0.173,0.115
					s-0.119,0.142-0.141,0.201c-0.021,0.06,0.03,0.105,0.085,0.127c0.054,0.02,0.233,0.051,0.313,0.035
					c0.078-0.016,0.353-0.054,0.385-0.194C218.672,45.002,218.442,44.928,218.442,44.928z"/>
				<path fill="#F1F2F2" d="M233.148,39.045c0,0-0.097,0.308-0.096,0.432c-0.001,0.121,0.193,0.258,0.193,0.258
					s0.231,0.17,0.326,0.197c0.093,0.026,0.165-0.059,0.195-0.145c0.031-0.087,0.069-0.374,0.04-0.496
					c-0.029-0.123-0.103-0.551-0.326-0.584C233.26,38.674,233.148,39.045,233.148,39.045z"/>
				<path fill="#F1F2F2" d="M238.692,32.213c0,0,0.077,0.645,0.165,0.848c0.087,0.201,0.459,0.161,0.459,0.161
					s0.456-0.044,0.61-0.132c0.152-0.086,0.197-0.329,0.18-0.515c-0.019-0.186-0.164-0.714-0.291-0.875
					c-0.127-0.162-0.537-0.766-0.881-0.511C238.592,31.443,238.692,32.213,238.692,32.213z"/>
				<path fill="#F1F2F2" d="M240.984,31.296c0,0-0.166-0.373-0.263-0.483c-0.096-0.109-0.354-0.043-0.354-0.043
					s-0.318,0.075-0.416,0.143c-0.093,0.068-0.083,0.217-0.04,0.325c0.045,0.108,0.24,0.403,0.36,0.485
					c0.116,0.082,0.513,0.393,0.716,0.206C241.189,31.74,240.984,31.296,240.984,31.296z"/>
				<path fill="#F1F2F2" d="M247.748,40.455c-0.005-0.036-0.033-0.236-0.069-0.291c-0.036-0.053-0.173-0.071-0.213-0.023
					c-0.039,0.049,0.011,0.275,0.014,0.316c0.003,0.042,0.1,0.132,0.151,0.14C247.683,40.603,247.754,40.489,247.748,40.455z"/>
				<path fill="#F1F2F2" d="M247.039,41.185c-0.021-0.048-0.046-0.078-0.032-0.156c0.015-0.079,0.038-0.149-0.003-0.186
					c-0.042-0.039-0.115-0.002-0.141,0.052c-0.024,0.052-0.104,0.206-0.091,0.289c0.015,0.087,0.118,0.193,0.162,0.197
					C246.977,41.385,247.061,41.233,247.039,41.185z"/>
				<path fill="#F1F2F2" d="M244.173,39.814c-0.007-0.049-0.029-0.265-0.063-0.368c-0.029-0.102-0.104-0.172-0.149-0.17
					c-0.045,0.004-0.127,0.16-0.119,0.22c0.013,0.062,0.051,0.31,0.071,0.337c0.021,0.025,0.052,0.084,0.147,0.079
					C244.155,39.905,244.182,39.864,244.173,39.814z"/>
				<path fill="#F1F2F2" d="M245.852,42.429c0,0-0.041-0.182-0.082-0.22c-0.04-0.038-0.068-0.043-0.106-0.059
					c-0.039-0.01-0.103-0.017-0.132,0.018c-0.03,0.034-0.034,0.222-0.034,0.269c0.003,0.048,0.031,0.119,0.082,0.173
					c0.052,0.054,0.107,0.046,0.15,0.045c0.042-0.002,0.108-0.039,0.13-0.083C245.885,42.529,245.852,42.429,245.852,42.429z"/>
				<path fill="#F1F2F2" d="M241.081,42.489c0,0-0.094-0.198-0.155-0.238c-0.06-0.041-0.096-0.045-0.148-0.057
					c-0.051-0.009-0.133-0.011-0.161,0.028c-0.029,0.039,0.011,0.249,0.023,0.302c0.014,0.053,0.068,0.129,0.143,0.186
					c0.076,0.057,0.146,0.043,0.201,0.039c0.052-0.005,0.128-0.051,0.145-0.103C241.147,42.599,241.081,42.489,241.081,42.489z"/>
				<path fill="#F1F2F2" d="M239.271,41.717c0,0,0.04,0.233,0.09,0.291c0.05,0.06,0.089,0.076,0.139,0.103
					c0.052,0.027,0.134,0.051,0.175,0.017c0.043-0.032,0.063-0.261,0.065-0.322c0.002-0.058-0.031-0.153-0.094-0.234
					c-0.063-0.082-0.138-0.089-0.194-0.1c-0.057-0.01-0.147,0.019-0.181,0.065C239.237,41.583,239.271,41.717,239.271,41.717z"/>
				<path fill="#F1F2F2" d="M237.16,41.445c0,0,0.161,0.218,0.247,0.262c0.088,0.044,0.138,0.05,0.208,0.062
					c0.072,0.012,0.178,0.012,0.212-0.03c0.031-0.044-0.058-0.277-0.085-0.335c-0.027-0.059-0.113-0.143-0.224-0.206
					c-0.112-0.063-0.203-0.049-0.272-0.042c-0.068,0.007-0.161,0.061-0.176,0.115C237.052,41.324,237.16,41.445,237.16,41.445z"/>
				<path fill="#F1F2F2" d="M235.329,41.02c0,0,0.243,0.123,0.337,0.125c0.099,0,0.146-0.018,0.215-0.038
					c0.07-0.02,0.166-0.069,0.175-0.123c0.009-0.051-0.174-0.221-0.225-0.262c-0.05-0.041-0.163-0.078-0.291-0.084
					c-0.127-0.007-0.202,0.046-0.262,0.083c-0.062,0.037-0.117,0.125-0.107,0.181C235.179,40.957,235.329,41.02,235.329,41.02z"/>
				<path fill="#F1F2F2" d="M230.643,39.67c0,0,0.24,0.121,0.339,0.123c0.096,0.002,0.144-0.016,0.213-0.036
					c0.069-0.021,0.166-0.068,0.175-0.121c0.008-0.055-0.174-0.223-0.224-0.263c-0.05-0.041-0.164-0.079-0.291-0.084
					c-0.13-0.008-0.204,0.044-0.264,0.083c-0.059,0.036-0.117,0.123-0.108,0.179C230.494,39.607,230.643,39.67,230.643,39.67z"/>
				<path fill="#F1F2F2" d="M228.919,41.393c0,0,0.208,0.117,0.289,0.119c0.081,0.001,0.119-0.015,0.179-0.031
					c0.058-0.02,0.14-0.062,0.145-0.109c0.009-0.048-0.148-0.206-0.191-0.244c-0.043-0.039-0.14-0.074-0.248-0.083
					c-0.106-0.007-0.169,0.04-0.219,0.074c-0.051,0.032-0.099,0.111-0.09,0.164C228.793,41.333,228.919,41.393,228.919,41.393z"/>
				<path fill="#F1F2F2" d="M223.49,42.512c0,0,0.209-0.113,0.246-0.177c0.036-0.064,0.036-0.1,0.043-0.156
					c0.005-0.054-0.007-0.137-0.057-0.164c-0.05-0.027-0.282,0.027-0.342,0.043c-0.058,0.018-0.135,0.079-0.188,0.161
					c-0.056,0.082-0.028,0.153-0.016,0.208c0.015,0.054,0.079,0.126,0.138,0.142S223.49,42.512,223.49,42.512z"/>
				<path fill="#F1F2F2" d="M228.853,39.852c0,0,0.065,0.227,0.121,0.287c0.058,0.059,0.096,0.076,0.15,0.104
					c0.054,0.027,0.141,0.054,0.181,0.025c0.039-0.032,0.039-0.252,0.033-0.311c-0.002-0.056-0.047-0.15-0.116-0.23
					c-0.073-0.082-0.151-0.089-0.208-0.103c-0.06-0.012-0.149,0.011-0.18,0.056C228.803,39.721,228.853,39.852,228.853,39.852z"/>
				<path fill="#F1F2F2" d="M233.016,41.446c0,0,0.242,0.123,0.339,0.124c0.097,0.003,0.145-0.015,0.214-0.037
					c0.07-0.02,0.166-0.067,0.175-0.121c0.007-0.054-0.175-0.221-0.225-0.261c-0.051-0.042-0.164-0.079-0.292-0.087
					c-0.127-0.007-0.203,0.047-0.263,0.083c-0.06,0.037-0.118,0.125-0.107,0.18C232.869,41.383,233.016,41.446,233.016,41.446z"/>
				<path fill="#F1F2F2" d="M231.696,41.027c0,0-0.272-0.02-0.36,0.019c-0.09,0.037-0.127,0.072-0.182,0.118
					c-0.057,0.047-0.127,0.127-0.112,0.181c0.013,0.053,0.247,0.136,0.309,0.152c0.063,0.018,0.182,0.007,0.303-0.037
					c0.119-0.043,0.168-0.124,0.207-0.181c0.04-0.058,0.059-0.161,0.026-0.208C231.857,41.025,231.696,41.027,231.696,41.027z"/>
				<path fill="#F1F2F2" d="M244.871,42.676c0.024-0.007,0.043-0.066,0.036-0.103c-0.009-0.037-0.186-0.307-0.214-0.302
					c-0.026,0.007-0.035,0.112-0.025,0.141c0.012,0.03,0.053,0.168,0.071,0.193C244.754,42.628,244.847,42.683,244.871,42.676z"/>
				<path fill="#F1F2F2" d="M243.509,43.118c0,0-0.09-0.288-0.151-0.349c-0.063-0.06-0.123-0.134-0.168-0.12
					c-0.044,0.013-0.213,0.057-0.224,0.135c-0.014,0.08,0.096,0.224,0.096,0.224s0.017,0.144,0.068,0.199
					c0.053,0.052,0.117,0.001,0.148,0.035c0.031,0.035,0.121,0.152,0.19,0.088S243.509,43.118,243.509,43.118z"/>
				<path fill="#F1F2F2" d="M241.04,41.049c0.06-0.068,0.206-0.306,0.166-0.506c-0.039-0.197-0.313-0.422-0.417-0.468
					c-0.103-0.046-0.317-0.065-0.359-0.006c-0.042,0.057,0.043,0.2,0.022,0.274c-0.021,0.073-0.079,0.25-0.061,0.356
					c0.019,0.105,0.226,0.309,0.226,0.309s0.15,0.148,0.236,0.127C240.935,41.113,240.976,41.117,241.04,41.049z"/>
				<path fill="#F1F2F2" d="M206.934,43.099c0,0,0.019-0.201-0.047-0.27c-0.062-0.068-0.457-0.099-0.402-0.096
					c0.057,0.006-0.153-0.108-0.276-0.105c-0.125,0.006-0.212,0.038-0.254,0.191c-0.044,0.155-0.003,0.206,0.106,0.307
					c0.107,0.098,0.521,0.268,0.652,0.213C206.843,43.286,206.934,43.099,206.934,43.099z"/>
				<path fill="#F1F2F2" d="M204.613,37.641c0,0,0.201-0.11,0.227-0.204c0.021-0.093-0.217-0.425-0.185-0.377
					c0.034,0.047,0-0.189-0.087-0.284c-0.09-0.094-0.182-0.144-0.358-0.083s-0.199,0.127-0.221,0.274
					c-0.021,0.147,0.099,0.579,0.239,0.648C204.369,37.685,204.613,37.641,204.613,37.641z"/>
				<path fill="#F1F2F2" d="M204.781,34.075c-0.132-0.071,0.11-0.277,0.245-0.205c0.136,0.073,0.14,0.089,0.25,0.136
					c0.111,0.046,0.399-0.093,0.399-0.093l-0.194,0.218l-0.359,0.061C205.122,34.192,204.913,34.146,204.781,34.075z"/>
				<path fill="#F1F2F2" d="M203.611,36.523c0.051-0.133,0.407-0.596,0.489-0.593c0.082,0.004,0.099,0.052,0.045,0.308
					c-0.053,0.252-0.182,0.365-0.241,0.445C203.846,36.762,203.557,36.658,203.611,36.523z"/>
				<path fill="#F1F2F2" d="M206.572,32.417c0.04-0.039-0.099-0.175-0.099-0.175l-0.268-0.215c0,0-0.095-0.143-0.162-0.168
					c-0.065-0.025-0.169,0.01-0.104,0.081c0.067,0.07,0.122,0.13,0.122,0.13l0.264,0.214
					C206.325,32.283,206.531,32.455,206.572,32.417z"/>
				<path fill="#F1F2F2" d="M207.433,30.949c0.042-0.037-0.098-0.173-0.098-0.173l-0.269-0.216c0,0-0.095-0.142-0.162-0.168
					c-0.065-0.026-0.169,0.01-0.103,0.081c0.065,0.071,0.12,0.131,0.12,0.131l0.264,0.213
					C207.186,30.817,207.393,30.989,207.433,30.949z"/>
				<path fill="#F1F2F2" d="M208.222,29.466c0.037-0.04-0.067-0.157-0.067-0.157l-0.207-0.183c0,0-0.067-0.127-0.122-0.146
					c-0.055-0.019-0.144,0.023-0.094,0.085c0.05,0.063,0.089,0.115,0.089,0.115l0.206,0.181
					C208.027,29.361,208.184,29.507,208.222,29.466z"/>
				<path fill="#F1F2F2" d="M216.976,15.126c-0.012-0.154-0.235-0.437-0.348-0.403c-0.113,0.032-0.013,0.447-0.013,0.447
					s0.085,0.439,0.202,0.423C216.935,15.576,216.987,15.28,216.976,15.126z"/>
				<path fill="#F1F2F2" d="M216.061,13.756c-0.077-0.082,0.173-0.122,0.272-0.256c0.101-0.135-0.061-0.438,0.087-0.412
					c0.148,0.027,0.497,0.229,0.395,0.644S216.137,13.837,216.061,13.756z"/>
				<path fill="#F1F2F2" d="M216.722,12.779c-0.089,0.019-0.248-0.363-0.202-0.446c0.045-0.083,0.23-0.076,0.338,0.048
					C216.965,12.506,216.814,12.761,216.722,12.779z"/>
				<path fill="#F1F2F2" d="M217.084,13.377c-0.009,0.075,0.098,0.097,0.086,0.183c-0.014,0.085-0.075,0.161-0.075,0.161
					s-0.102,0.136,0.015,0.164c0.12,0.028,0.381-0.686,0.333-0.721C217.394,13.129,217.091,13.302,217.084,13.377z"/>
			</g>
			<g>
				<path fill="#F1F2F2" d="M215.413,14.215c0,0-0.364,0.474-0.398,0.584c-0.033,0.11-0.489,0.905-0.489,0.905
					s-0.093,0.258-0.159,0.294c-0.069,0.036-0.072,0.002-0.111,0.059c-0.041,0.055,0.012,0.082,0.003,0.142
					c-0.008,0.061-0.138,0.229-0.171,0.318c-0.035,0.089-0.192,0.506-0.192,0.506L215.413,14.215z"/>
				<path fill="#F1F2F2" d="M213.825,17.146c0,0-0.049,0.035-0.104,0.043c-0.02,0.044,0.006,0.055-0.012,0.094
					c-0.017,0.04-0.133-0.012-0.165,0.081s-0.033,0.198-0.046,0.234c-0.013,0.037-0.054,0.101-0.054,0.101s-0.055,0.087-0.077,0.139
					c-0.02,0.053-0.137,0.407-0.137,0.407L213.825,17.146z"/>
			</g>
			<g>
				<path fill="#F1F2F2" d="M215.409,14.222c0,0-0.196,0.566-0.27,0.653c-0.075,0.089-0.492,0.906-0.492,0.906
					s-0.165,0.217-0.156,0.294c0.005,0.078,0.036,0.063,0.01,0.127c-0.025,0.065-0.074,0.034-0.121,0.074
					c-0.046,0.041-0.115,0.24-0.173,0.317c-0.055,0.078-0.317,0.438-0.317,0.438L215.409,14.222z"/>
				<path fill="#F1F2F2" d="M213.825,17.156c0,0-0.004,0.06,0.021,0.111c-0.026,0.042-0.052,0.025-0.075,0.061
					c-0.022,0.036,0.085,0.105,0.023,0.183c-0.059,0.08-0.147,0.138-0.17,0.167c-0.023,0.03-0.055,0.102-0.055,0.102
					s-0.045,0.093-0.076,0.138c-0.031,0.047-0.265,0.339-0.265,0.339L213.825,17.156z"/>
			</g>
			<path fill="#F1F2F2" d="M213.717,17.199"/>
		</g>
	</g>
	<g>
		<g opacity="0.75">
			<path d="M203.101,44.353c-1.072,2.409-2.271,4.473-3.607,6.568c-1.333,2.067-2.79,4.05-4.366,5.937
				c-3.149,3.771-6.786,7.163-10.865,9.955c-4.074,2.792-8.597,4.959-13.345,6.328c-4.746,1.378-9.694,1.957-14.583,1.84
				c-9.835-0.207-19.264-3.265-27.875-7.375c-8.651-4.134-16.659-9.312-24.456-14.671c-7.798-5.369-15.382-10.988-23.191-16.239
				c-7.809-5.239-15.863-10.138-24.665-13.447c-8.753-3.43-17.851-5.99-27.086-7.854C19.821,13.559,10.436,12.31,1,12.009
				c9.443,0.093,18.868,1.135,28.178,2.771c9.306,1.667,18.508,4.036,27.413,7.3c8.982,3.151,17.291,7.956,25.25,13.048
				c7.975,5.11,15.689,10.568,23.559,15.733c7.865,5.156,15.886,10.083,24.374,13.91c8.456,3.813,17.488,6.478,26.607,6.461
				c4.547,0.009,9.071-0.63,13.367-1.98c4.297-1.342,8.352-3.396,12.007-6.021c3.657-2.624,6.922-5.802,9.744-9.337
				c1.411-1.768,2.714-3.625,3.896-5.551c1.166-1.904,2.281-3.97,3.085-5.895L203.101,44.353z"/>
		</g>
		<g>
			<path fill="#8DC63F" d="M202.101,43.353c-1.072,2.409-2.271,4.473-3.607,6.568c-1.333,2.067-2.79,4.05-4.366,5.937
				c-3.149,3.771-6.786,7.163-10.865,9.955c-4.074,2.792-8.597,4.959-13.345,6.328c-4.746,1.378-9.694,1.957-14.583,1.84
				c-9.835-0.207-19.264-3.265-27.875-7.375c-8.651-4.134-16.659-9.312-24.456-14.671c-7.798-5.369-15.382-10.988-23.191-16.239
				c-7.809-5.239-15.863-10.138-24.665-13.447c-8.753-3.43-17.851-5.99-27.086-7.854C18.821,12.559,9.436,11.31,0,11.009
				c9.443,0.093,18.868,1.135,28.178,2.771c9.306,1.667,18.508,4.036,27.413,7.3c8.982,3.151,17.291,7.956,25.25,13.048
				c7.975,5.11,15.689,10.568,23.559,15.733c7.865,5.156,15.886,10.083,24.374,13.91c8.456,3.813,17.488,6.478,26.607,6.461
				c4.547,0.009,9.071-0.63,13.367-1.98c4.297-1.342,8.352-3.396,12.007-6.021c3.657-2.624,6.922-5.802,9.744-9.337
				c1.411-1.768,2.714-3.625,3.896-5.551c1.166-1.904,2.281-3.97,3.085-5.895L202.101,43.353z"/>
		</g>
	</g>
	<path fill="#F7941E" d="M112.426,67.59L91.535,33.782h21.221l8.963,18.453l8.963-18.453h21.221L131.011,67.59v13.247h-18.585V67.59
		z"/>
</g>
</svg>
