<?xml version="1.0" encoding="utf-8"?>
<!-- Generator: Adobe Illustrator 16.0.0, SVG Export Plug-In . SVG Version: 6.00 Build 0)  -->
<!DOCTYPE svg PUBLIC "-//W3C//DTD SVG 1.1//EN" "http://www.w3.org/Graphics/SVG/1.1/DTD/svg11.dtd">
<svg version="1.1" id="Layer_1" xmlns="http://www.w3.org/2000/svg" xmlns:xlink="http://www.w3.org/1999/xlink" x="0px" y="0px"
	 width="36px" height="40.086px" viewBox="25.938 13.033 36 40.086" enable-background="new 25.938 13.033 36 40.086"
	 xml:space="preserve">
<g>
	<g>
		<g>
			<path d="M61.722,47.579c0.354-0.834,0.254-3.475-0.157-4.652c-0.413-1.18-1.621-4.47-3.38-6.829
				c-1.76-2.358-2.636-2.867-2.737-2.926c-0.101-0.06-0.164-0.128-0.183-0.273c-0.021-0.145-0.025-0.348,0.067-0.457
				c0.091-0.109,0.266-0.16,0.584-0.348c0.317-0.188,0.073-0.604,0.073-0.604s-0.3-0.392-0.686-0.307
				c-0.388,0.086-0.544,0.166-0.715,0.159c-0.169-0.007-0.384-0.13-0.528-0.226c-0.144-0.096-0.179-0.175-0.184-0.273
				c-0.004-0.097-0.035-0.934-1.533-3.395c-1.496-2.461-4.309-5.126-5.329-6.068c-1.021-0.942-3.786-2.543-4.885-2.812
				c-1.098-0.269-1.784-0.432-2.206-0.241c-0.421,0.19-0.945,1.29-1.04,1.679c-0.096,0.389,0.215,1.017,0.438,1.58
				c0.223,0.563,0.514,1.459,0.504,1.833c-0.01,0.373-0.008,1.107-0.036,1.394c-0.029,0.287-0.162,1.004-0.147,1.49
				s0.005,0.614,0.025,0.812c0.02,0.199,0.271,0.764,0.271,0.764s-1.394,0.483-1.976,1.161c-0.581,0.677-0.676,1.042-0.789,1.196
				c-0.113,0.154-0.517,0.646-0.409,0.974c0.109,0.33-0.232,0.807-0.17,1.181c0.062,0.375,0.477,0.836,0.626,1.043
				c0.148,0.208,0.233,0.798,0.34,1.034c0.107,0.237,0.626,0.564,0.783,0.822c0.156,0.258,0.256,0.391,0.467,0.574
				c0.21,0.183,0.602,0.144,0.986,0.465c0.383,0.321,0.722,0.216,0.802,0.271c0.081,0.054,0.091,0.196,0.27,0.307
				c0.178,0.11,1.048,0.065,1.048,0.065s-0.554,0.512-0.541,0.687c0.014,0.174,0.16,0.263,0.172,0.344
				c0.012,0.082-0.3,0.23-0.179,0.654c0.121,0.424-0.151,0.642-0.079,0.879s0.158,0.376,0.342,0.623
				c0.184,0.247,0.233,0.759,0.422,0.963c0.191,0.204,0.774,0.601,0.909,0.813s0.386,0.738,0.75,0.994s1.075,0.324,1.362,0.584
				c0.289,0.259,1.05,0.296,1.279,0.316c0.23,0.021,0.678,0.175,1.741,0.211c1.064,0.037,2.395-0.541,2.395-0.541
				s0.458,0.485,0.657,0.613c0.2,0.128,0.344,0.195,0.854,0.488c0.51,0.292,1.354,0.628,1.678,0.778
				c0.324,0.149,1.107,0.578,1.512,0.792c0.405,0.211,1.193,0.913,1.667,1.379c0.47,0.467,0.962,1.024,1.433,1.19
				c0.471,0.169,1.952,0.487,2.401,0.339C61.142,48.933,61.368,48.415,61.722,47.579z"/>
			<path d="M56.069,31.756c0,0,0.578-0.029,0.745-0.011c0.166,0.017,2.548,0.801,2.711,0.826c0.164,0.024,0.344-0.016,0.432,0.027
				s0.198,0.211,0.184,0.273c-0.013,0.061-0.195,0.282-0.236,0.218c-0.042-0.063-0.08-0.149,0-0.24
				c0.079-0.091,0.017-0.109-0.04-0.146c-0.055-0.036-0.25-0.031-0.33-0.054c-0.08-0.023-2.573-0.775-2.734-0.795
				s-0.73,0.036-0.73,0.036V31.756z"/>
			<path d="M55.799,31.34c0,0,0.193-0.853,0.205-1.273c0.01-0.42-0.439-2.053-0.513-2.201c-0.071-0.148-0.144-0.318-0.214-0.371
				c-0.068-0.052-0.197-0.166-0.318-0.163c-0.121,0.002-0.132,0.043-0.09,0.081s0.06,0.085,0.103,0.088
				c0.043,0.004,0.256-0.06,0.412,0.354c0.167,0.353,0.517,1.942,0.519,2.177c-0.002,0.234-0.231,1.205-0.231,1.205L55.799,31.34z"
				/>
		</g>
		<g>
			<g>
				<path fill="#F7941E" d="M47.244,24.899c0.03,0.097,0.569,1.109,0.739,1.306c0.169,0.196,1.161,1.157,1.31,1.301
					c0.147,0.144,2.022,1.699,2.022,1.699l1.98,1.847c0,0-0.419-1.43-0.525-1.629c-0.105-0.199-1.655-2.11-1.896-2.382
					c-0.242-0.272-1.554-1.703-1.786-1.88c-0.234-0.175-0.84-0.316-0.989-0.356c-0.147-0.04-0.743-0.305-0.792-0.28
					C47.26,24.55,47.214,24.802,47.244,24.899z"/>
				<path fill="#F7941E" d="M46.827,25.346c0.027-0.067-0.221-0.307-0.338-0.5c-0.117-0.195-0.118-0.325-0.373-0.554
					c-0.255-0.228-0.724-0.489-0.899-0.566c-0.176-0.078-0.862-0.284-1.32-0.337c-0.458-0.054-1.705-0.057-1.705-0.057
					s1.109,0.374,1.173,0.461c0.064,0.086,0.093,0.273,0.348,0.387c0.256,0.115,0.709,0.312,1.23,0.503
					C45.464,24.875,46.799,25.413,46.827,25.346z"/>
				<path fill="#F7941E" d="M48.276,27.171c0,0-0.5-0.591-0.828-0.905c-0.326-0.314-0.774-0.489-1.104-0.616
					c-0.331-0.128-2.249-0.756-2.636-0.839c-0.387-0.084-0.8-0.163-0.979-0.142c-0.18,0.02-0.496,0.149-0.567,0.31
					c-0.07,0.162-0.051,0.383,0.149,0.572c0.2,0.189,0.349,0.252,0.716,0.375C43.396,26.05,48.276,27.171,48.276,27.171z"/>
				<path fill="#F7941E" d="M48.739,29.724c0.294,0.099,4.465,1.364,4.465,1.364s-2.433-1.764-2.625-1.91
					c-0.19-0.145-1.23-1.142-1.656-1.335c-0.423-0.193-1.729-0.439-1.729-0.439s-3.652-0.85-4.314-1.012
					c-0.663-0.162-1.181,0.112-1.295,0.363s-0.045,0.683,0.574,0.851s2.979,0.738,3.394,0.879
					C45.969,28.627,48.446,29.625,48.739,29.724z"/>
				<path fill="#F7941E" d="M46.077,31.936c0.263-0.014,5.274-0.211,5.274-0.211s-0.324-0.374-0.499-0.417
					c-0.174-0.043-1.195-0.077-1.59-0.144c-0.396-0.067-2.712-0.908-2.712-0.908s-0.194,0.136-0.407,0.247
					c-0.214,0.11-0.548,0.125-0.548,0.125s-0.436-0.017-0.73,0.023c-0.298,0.041-0.6,0.154-0.707,0.188
					c-0.108,0.034-0.666,0.232-0.797,0.31c-0.131,0.077-0.249,0.105-0.202,0.297c0.047,0.191,0.227,0.255,0.496,0.309
					s1.32,0.149,1.581,0.17C45.497,31.944,45.813,31.949,46.077,31.936z"/>
				<path fill="#F7941E" d="M48.591,33.149c0.328-0.11,1.702-0.469,2.039-0.598c0.337-0.13,0.726-0.471,0.726-0.5
					c-0.001-0.03-0.282-0.113-0.607-0.091c-0.324,0.022-1.593,0.119-1.593,0.119l-1.262,0.121l-1.506,0.195l-1.34,0.609
					c0,0-1.257,0.438-1.503,0.542c-0.247,0.104-1.649,0.79-1.817,0.882c-0.168,0.094-0.333,0.229-0.35,0.29
					c-0.017,0.062,0.141,0.205,0.152,0.268s-0.027,0.231,0.003,0.348c0.032,0.115,0.121,0.185,0.211,0.267
					c0.09,0.083,0.38,0.228,0.471,0.188c0.092-0.039,2.435-1.175,3.238-1.502C46.254,33.958,48.264,33.259,48.591,33.149z"/>
				<path fill="#F7941E" d="M44.108,35.573c0.35-0.193,5.84-2.67,5.84-2.67l-4.005,1.43c0,0-2.945,1.277-3.103,1.363
					c-0.158,0.085-0.158,0.098-0.181,0.2c-0.021,0.103,0.038,0.231,0.073,0.277c0.036,0.045,0.111,0.101,0.185,0.103
					s0.704-0.318,0.704-0.318S43.758,35.765,44.108,35.573z"/>
				<path fill="#F7941E" d="M42.684,33.42c0.519-0.277,1.729-0.673,1.729-0.673l1.219-0.409c0,0-0.164-0.096-0.313-0.12
					c-0.146-0.023-1.398-0.173-1.74-0.151c-0.341,0.022-0.74,0.179-0.74,0.179l-1.297,0.462c0,0-1.742,0.605-1.866,0.684
					c-0.125,0.078-0.127,0.122-0.112,0.174c0.015,0.053,0.16,0.128,0.221,0.198c0.06,0.07,0.054,0.266,0.084,0.337
					c0.031,0.072,0.173,0.129,0.173,0.129s0.324,0.109,0.415,0.188c0.091,0.078,0.302,0.334,0.37,0.335
					c0.069,0.002,0.713-0.561,0.713-0.561S42.167,33.697,42.684,33.42z"/>
				<path fill="#F7941E" d="M42.483,32.059c0.149-0.045,0.348-0.04,0.398-0.09s0.051-0.104,0.044-0.147
					c-0.005-0.043-0.061-0.115-0.185-0.19c-0.125-0.075-0.282-0.122-0.597-0.161c-0.314-0.039-1.407-0.009-1.657,0.013
					c-0.251,0.022-1.091,0.178-1.209,0.209c-0.118,0.031-0.327,0.077-0.375,0.125c-0.048,0.047,0.014,0.206,0.026,0.252
					c0.012,0.045,0.516,1.082,0.677,1.088c0.162,0.007,0.858-0.365,1.468-0.593C41.681,32.336,42.333,32.104,42.483,32.059z"/>
				<path fill="#F7941E" d="M42.127,31.15c0.208-0.012,0.856-0.077,1.039-0.122c0.185-0.044,1.162-0.408,1.162-0.408
					s-4.024-0.459-4.318-0.479c-0.294-0.021-0.619-0.02-0.766,0.015c-0.146,0.034-0.399,0.144-0.442,0.281
					c-0.042,0.138,0.044,0.791,0.044,0.791s0.035,0.167,0.084,0.208c0.047,0.04,0.283,0.046,0.367,0.032
					c0.082-0.014,0.702-0.188,0.912-0.224c0.208-0.037,0.78-0.094,1.188-0.113C41.801,31.108,41.919,31.162,42.127,31.15z"/>
				<path fill="#F7941E" d="M42.709,30.224l1.328,0.181c0,0,0.825,0.074,1.076,0.062c0.249-0.014,0.59-0.052,0.729-0.11
					c0.139-0.059,0.298-0.161,0.271-0.237c-0.026-0.077-1.919-0.574-2.262-0.669c-0.344-0.095-2.342-0.502-2.557-0.509
					c-0.215-0.008-0.49,0.06-0.615,0.196s-0.003,0.282-0.075,0.356c-0.072,0.076-0.405,0.098-0.593,0.188
					c-0.186,0.09-0.386,0.224-0.282,0.263c0.105,0.039,1.251,0.05,1.568,0.066C41.615,30.026,42.709,30.224,42.709,30.224z"/>
				<path fill="#F7941E" d="M56.356,37.969c0.068,0.177,0.517,1.349,0.628,1.566c0.11,0.219,0.879,1.142,0.965,1.219
					c0.086,0.075,0.384,0.194,0.437,0.179c0.055-0.016,0.119-0.538,0.163-0.652c0.043-0.116,0.247-0.571,0.194-0.818
					c-0.052-0.247-0.818-1.892-0.967-2.198c-0.15-0.307-1.29-2.378-1.441-2.56c-0.151-0.181-1.436-1.273-1.436-1.273l0.821,2.3
					C55.721,35.729,56.29,37.794,56.356,37.969z"/>
				<path fill="#F7941E" d="M57.612,43.699c0.211-0.313,0.391-0.856,0.41-1.011c0.019-0.153,0.015-0.595-0.08-0.886
					c-0.097-0.29-0.234-0.367-0.373-0.552c-0.141-0.187-0.25-0.48-0.338-0.503c-0.089-0.022-0.293,1.118-0.392,1.549
					c-0.1,0.435-0.153,0.828-0.18,1.054c-0.025,0.224,0.156,0.35,0.212,0.44s-0.191,0.991-0.191,0.991S57.403,44.013,57.612,43.699z
					"/>
				<path fill="#F7941E" d="M55.982,42.987c0.136-0.287,0.583-1.837,0.64-2.115c0.057-0.279,0.132-0.657-0.013-1.042
					c-0.146-0.385-0.486-1.038-0.486-1.038s-1.648,3.664-1.73,3.965c-0.082,0.299-0.103,0.427-0.017,0.661
					c0.086,0.231,0.31,0.374,0.526,0.425c0.213,0.05,0.533-0.069,0.66-0.167C55.689,43.575,55.846,43.276,55.982,42.987z"/>
				<path fill="#F7941E" d="M55.242,39.322c0,0,0.497-0.95,0.539-1.323s-0.418-1.596-0.461-1.801
					c-0.044-0.203-0.511-2.734-0.511-2.734s-1.082,3.313-1.147,3.55c-0.065,0.239-0.441,2.351-0.533,2.688
					c-0.091,0.339-0.857,2.127-1.041,2.607c-0.182,0.48,0.239,0.774,0.574,0.851c0.336,0.077,0.931-0.085,1.144-0.588
					C54.021,42.071,55.242,39.322,55.242,39.322z"/>
				<path fill="#F7941E" d="M48.568,39.454c0.177,0.142,0.276,0.084,0.436,0.048c0.158-0.035,0.696-0.263,0.796-0.31
					c0.098-0.047,0.396-0.167,0.611-0.326c0.217-0.16,0.452-0.438,0.452-0.438s0.212-0.195,0.454-0.264
					c0.241-0.069,0.501-0.108,0.501-0.108s0.453-1.92,0.61-2.201c0.16-0.283,0.719-0.935,0.775-1.067
					c0.057-0.132-0.157-0.55-0.157-0.55s-3.133,2.976-3.3,3.131c-0.169,0.155-0.35,0.352-0.479,0.523
					c-0.13,0.174-0.641,0.877-0.741,1.075C48.428,39.164,48.392,39.313,48.568,39.454z"/>
				<path fill="#F7941E" d="M48.003,37.383l1.434-0.471l1.086-0.816l0.865-0.709c0,0,0.844-0.726,1.056-0.913
					c0.213-0.188,0.289-0.41,0.258-0.428c-0.031-0.018-0.623,0.024-0.957,0.156c-0.336,0.133-1.521,0.771-1.829,0.908
					c-0.309,0.139-2.229,0.97-3.048,1.274c-0.817,0.306-3.399,1.088-3.494,1.122s-0.111,0.296-0.075,0.4
					c0.037,0.104,0.059,0.199,0.164,0.285c0.106,0.085,0.309,0.162,0.369,0.205c0.06,0.043,0.123,0.226,0.198,0.249
					c0.077,0.026,0.316,0.003,0.514-0.047c0.197-0.049,1.749-0.514,2.004-0.605C46.804,37.901,48.003,37.383,48.003,37.383z"/>
				<path fill="#F7941E" d="M50.97,34.415c0,0-5.852,1.943-6.261,2.046c-0.409,0.104-0.696,0.076-0.696,0.076
					s-0.71,0.203-0.752,0.249c-0.042,0.046-0.025,0.125,0.002,0.174c0.026,0.048,0.131,0.161,0.255,0.206
					c0.123,0.046,0.136,0.055,0.319,0.007c0.185-0.048,3.267-1.12,3.267-1.12L50.97,34.415z"/>
				<path fill="#F7941E" d="M47.524,39.184c0,0,0.401-0.154,0.623-0.353c0.224-0.196,0.794-1.057,0.854-1.161
					c0.061-0.104,0.054-0.262,0.054-0.262l-1.147,0.513c0,0-1.13,0.517-1.729,0.675c-0.6,0.159-1.494,0.254-1.494,0.254
					s-0.978,0.068-1.016,0.111c-0.039,0.043,0.112,0.323,0.144,0.425s-0.042,0.366-0.042,0.366s-0.022,0.121,0.037,0.182
					c0.059,0.061,0.271,0.171,0.312,0.249c0.041,0.078,0.037,0.211,0.084,0.251c0.047,0.041,0.096,0.063,0.251,0.032
					c0.157-0.03,1.819-0.753,1.819-0.753L47.524,39.184z"/>
				<path fill="#F7941E" d="M46.968,41.081c0.168-0.143,0.836-0.798,0.981-1.015c0.142-0.218,0.183-0.342,0.177-0.461
					c-0.009-0.123-0.053-0.196-0.095-0.227c-0.043-0.028-0.1-0.062-0.185-0.06c-0.082,0.003-0.193,0.128-0.327,0.193
					c-0.134,0.066-0.765,0.333-1.365,0.575c-0.599,0.243-1.402,0.456-1.489,0.559c-0.088,0.105,0.727,1.02,0.769,1.054
					c0.043,0.034,0.176,0.165,0.253,0.163c0.079-0.002,0.251-0.104,0.354-0.158C46.141,41.651,46.797,41.224,46.968,41.081z"/>
				<path fill="#F7941E" d="M48.125,42.158c0.149-0.193,2.006-2.943,2.006-2.943s-0.959,0.392-1.113,0.479s-0.602,0.448-0.735,0.57
					s-0.146,0.226-0.404,0.464s-0.655,0.559-0.815,0.666c-0.159,0.108-0.708,0.389-0.771,0.432
					c-0.064,0.043-0.195,0.192-0.179,0.246c0.014,0.053,0.172,0.172,0.172,0.172s0.647,0.436,0.818,0.488
					c0.173,0.054,0.437-0.037,0.559-0.109C47.786,42.552,47.975,42.351,48.125,42.158z"/>
				<path fill="#F7941E" d="M51.104,40.188c0.1-0.267,0.671-1.724,0.604-1.784c-0.064-0.062-0.268-0.022-0.411,0.028
					c-0.143,0.053-0.384,0.239-0.542,0.387c-0.161,0.146-0.563,0.7-0.563,0.7l-0.584,0.924c0,0-0.425,0.792-0.591,0.996
					s-0.825,0.917-0.845,1.005c-0.019,0.088,0.242,0.042,0.446-0.021c0.205-0.062,0.424-0.256,0.545-0.256
					c0.122-0.001,0.207,0.159,0.425,0.162c0.218,0.002,0.452-0.128,0.569-0.265C50.275,41.929,51.006,40.456,51.104,40.188z"/>
			</g>
			<g>
				<path fill="#F7941E" d="M46.541,23.445c0.312,0.154,0.503,0.349,0.429,0.435s-0.385,0.031-0.695-0.123
					c-0.312-0.154-0.503-0.349-0.43-0.435C45.92,23.236,46.23,23.291,46.541,23.445z"/>
				<path fill="#F7941E" d="M47.497,23.177c0.082,0.067,0.044,0.099,0.11,0.163c0.064,0.065,0.535,0.305,0.314,0.466
					c-0.221,0.162-1.039-0.357-0.971-0.417c0.067-0.059,0.125-0.038,0.188-0.073c0.063-0.035,0.015-0.111,0.094-0.157
					C47.309,23.113,47.413,23.11,47.497,23.177z"/>
				<path fill="#F7941E" d="M42.777,21.835c0.219-0.092,0.966,0.122,1.033,0.325c0.068,0.204-0.173,0.331-0.264,0.374
					c-0.091,0.042-0.364,0.098-0.505,0.065c-0.143-0.033-0.33-0.157-0.398-0.24c-0.068-0.083-0.098-0.194-0.105-0.26
					C42.529,22.031,42.557,21.926,42.777,21.835z"/>
				<path fill="#F1F2F2" d="M50.223,24.958c0.051-0.022,0.209,0.113,0.304,0.229s0.178,0.262,0.123,0.291
					c-0.056,0.029-0.184-0.129-0.236-0.181c-0.054-0.052-0.102-0.156-0.133-0.196C50.247,25.06,50.174,24.981,50.223,24.958z"/>
				<path fill="#F1F2F2" d="M48.545,23.183c0.051-0.023,0.209,0.114,0.303,0.229c0.094,0.116,0.178,0.262,0.123,0.291
					c-0.057,0.029-0.184-0.129-0.237-0.181s-0.102-0.156-0.134-0.197C48.568,23.284,48.494,23.205,48.545,23.183z"/>
				<path fill="#F1F2F2" d="M46.903,21.75c0.044-0.029,0.235,0.081,0.356,0.18c0.122,0.099,0.241,0.23,0.195,0.266
					c-0.047,0.037-0.213-0.099-0.28-0.142c-0.065-0.043-0.139-0.139-0.179-0.173C46.952,21.846,46.861,21.78,46.903,21.75z"/>
				<path fill="#F1F2F2" d="M43.138,19.193c0.037-0.034,0.247,0.055,0.386,0.14c0.14,0.086,0.281,0.202,0.242,0.243
					c-0.041,0.041-0.229-0.076-0.303-0.112c-0.073-0.035-0.163-0.121-0.21-0.151C43.204,19.283,43.101,19.227,43.138,19.193z"/>
				<path fill="#F1F2F2" d="M42.131,19.151c0.122-0.11,0.454-0.084,0.641-0.006c0.189,0.079,0.34,0.228,0.203,0.356
					c-0.137,0.128-0.389,0.02-0.5,0.001c-0.111-0.019-0.192-0.142-0.255-0.171C42.159,19.302,42.008,19.261,42.131,19.151z"/>
				<path fill="#F1F2F2" d="M41.691,19.66c-0.121,0.102-0.41,0.085-0.566,0.02c-0.155-0.066-0.27-0.195-0.134-0.312
					c0.137-0.117,0.346-0.027,0.441-0.013c0.096,0.015,0.152,0.123,0.203,0.147C41.685,19.526,41.813,19.559,41.691,19.66z"/>
				<path fill="#F1F2F2" d="M46.656,21.841c0.074-0.04,0.278,0.07,0.394,0.175c0.115,0.104,0.211,0.246,0.128,0.294
					c-0.082,0.048-0.238-0.095-0.307-0.138s-0.119-0.148-0.158-0.186C46.675,21.949,46.582,21.881,46.656,21.841z"/>
				<path fill="#F1F2F2" d="M48.249,23.349c0.042-0.025,0.241,0.128,0.369,0.257c0.129,0.13,0.256,0.292,0.209,0.325
					c-0.045,0.033-0.219-0.145-0.288-0.202c-0.069-0.059-0.147-0.175-0.191-0.22S48.206,23.374,48.249,23.349z"/>
				<path fill="#F1F2F2" d="M40.581,20.177c0,0,0.22,0.007,0.293,0.026c0.074,0.02,0.083,0.124,0.083,0.124s0.016,0.127-0.004,0.172
					c-0.019,0.045-0.097,0.063-0.16,0.063c-0.063-0.001-0.25-0.029-0.312-0.06c-0.063-0.031-0.291-0.13-0.229-0.232
					C40.317,20.168,40.581,20.177,40.581,20.177z"/>
				<path fill="#F1F2F2" d="M41.48,22.61c0,0,0.22,0.006,0.294,0.026c0.073,0.02,0.083,0.124,0.083,0.124s0.014,0.127-0.004,0.172
					c-0.018,0.045-0.098,0.063-0.161,0.063c-0.063,0-0.249-0.028-0.311-0.059c-0.063-0.033-0.291-0.13-0.228-0.232
					C41.216,22.602,41.48,22.61,41.48,22.61z"/>
				<path fill="#F1F2F2" d="M41.786,23.599c0,0,0.157,0.016,0.213,0.035c0.054,0.02,0.07,0.104,0.07,0.104s0.022,0.104,0.012,0.14
					c-0.01,0.036-0.065,0.046-0.11,0.042c-0.044-0.003-0.18-0.035-0.229-0.064c-0.047-0.029-0.219-0.12-0.183-0.199
					C41.597,23.577,41.786,23.599,41.786,23.599z"/>
				<path fill="#F1F2F2" d="M40.289,26.998c0,0,0.159,0.016,0.212,0.035c0.055,0.02,0.071,0.104,0.071,0.104s0.021,0.104,0.012,0.14
					c-0.01,0.035-0.064,0.046-0.109,0.042c-0.044-0.003-0.181-0.036-0.228-0.064c-0.047-0.029-0.219-0.121-0.184-0.201
					C40.099,26.976,40.289,26.998,40.289,26.998z"/>
				<path fill="#F1F2F2" d="M40.916,28.465c0,0,0.103,0.022,0.14,0.041c0.037,0.018,0.056,0.083,0.056,0.083s0.024,0.08,0.023,0.106
					c-0.003,0.026-0.036,0.031-0.065,0.025c-0.029-0.005-0.12-0.039-0.153-0.063c-0.034-0.024-0.153-0.105-0.139-0.162
					C40.793,28.438,40.916,28.465,40.916,28.465z"/>
				<path fill="#F1F2F2" d="M39.386,28.941c0,0,0.097-0.057,0.139-0.07c0.044-0.011,0.12,0.026,0.12,0.026s0.092,0.046,0.115,0.068
					c0.022,0.022,0.002,0.05-0.024,0.067c-0.027,0.017-0.124,0.056-0.171,0.06c-0.047,0.005-0.209,0.028-0.253-0.028
					C39.269,29.008,39.386,28.941,39.386,28.941z"/>
				<path fill="#F1F2F2" d="M38.375,29.143c0,0,0.027-0.066,0.048-0.087c0.021-0.023,0.088-0.023,0.088-0.023
					s0.082-0.002,0.11,0.004c0.026,0.006,0.029,0.031,0.023,0.049c-0.008,0.02-0.046,0.074-0.072,0.093
					c-0.027,0.018-0.115,0.085-0.173,0.065C38.34,29.223,38.375,29.143,38.375,29.143z"/>
				<path fill="#F1F2F2" d="M38.244,29.825c0,0-0.018,0.068-0.034,0.091c-0.016,0.024-0.084,0.031-0.084,0.031
					s-0.083,0.009-0.109,0.005c-0.028-0.004-0.034-0.027-0.029-0.047c0.003-0.02,0.033-0.078,0.057-0.098
					c0.023-0.021,0.1-0.095,0.162-0.08C38.267,29.743,38.244,29.825,38.244,29.825z"/>
				<path fill="#F1F2F2" d="M37.38,30.8c0,0,0.026,0.067,0.026,0.093c0,0.027-0.055,0.058-0.055,0.058s-0.066,0.037-0.093,0.043
					C37.23,31,37.21,30.981,37.203,30.963c-0.008-0.019-0.018-0.081-0.01-0.107c0.009-0.026,0.032-0.12,0.094-0.128
					C37.349,30.72,37.38,30.8,37.38,30.8z"/>
				<path fill="#F1F2F2" d="M37.355,31.664c0,0,0.027,0.066,0.026,0.093c0,0.027-0.055,0.057-0.055,0.057s-0.067,0.038-0.094,0.044
					c-0.026,0.006-0.047-0.012-0.054-0.031c-0.009-0.02-0.019-0.081-0.011-0.108c0.009-0.026,0.031-0.12,0.094-0.127
					C37.324,31.584,37.355,31.664,37.355,31.664z"/>
				<path fill="#F1F2F2" d="M38.114,32.202c0,0,0.072,0.043,0.092,0.065c0.02,0.022-0.003,0.071-0.003,0.071
					s-0.026,0.059-0.044,0.077c-0.018,0.016-0.048,0.01-0.069-0.002c-0.021-0.01-0.076-0.058-0.088-0.083
					c-0.015-0.026-0.066-0.112-0.019-0.146C38.029,32.149,38.114,32.202,38.114,32.202z"/>
				<path fill="#F1F2F2" d="M38.908,33.215c0,0,0.058,0.035,0.074,0.053c0.017,0.019-0.002,0.058-0.002,0.058
					s-0.022,0.049-0.036,0.063c-0.013,0.014-0.039,0.008-0.056-0.001c-0.017-0.01-0.062-0.048-0.073-0.069
					c-0.01-0.021-0.052-0.091-0.015-0.119C38.837,33.172,38.908,33.215,38.908,33.215z"/>
				<path fill="#F1F2F2" d="M39.052,34.01c0,0,0.058,0.035,0.074,0.053c0.016,0.018-0.001,0.058-0.001,0.058
					s-0.022,0.049-0.037,0.061c-0.014,0.014-0.038,0.009-0.056,0c-0.017-0.01-0.062-0.047-0.072-0.069
					c-0.012-0.021-0.053-0.091-0.017-0.119C38.982,33.967,39.052,34.01,39.052,34.01z"/>
				<path fill="#F1F2F2" d="M39.869,34.947c0,0,0.088,0.017,0.12,0.032c0.029,0.013,0.036,0.065,0.036,0.065
					s0.012,0.064,0.005,0.084c-0.007,0.022-0.037,0.025-0.063,0.021c-0.026-0.005-0.102-0.03-0.127-0.049
					c-0.026-0.021-0.12-0.084-0.099-0.129C39.762,34.926,39.869,34.947,39.869,34.947z"/>
				<path fill="#F1F2F2" d="M41.308,35.899c0,0,0.097-0.081,0.14-0.103c0.044-0.021,0.114,0.021,0.114,0.021s0.089,0.05,0.109,0.076
					c0.021,0.026-0.001,0.064-0.029,0.089c-0.027,0.024-0.123,0.083-0.17,0.094c-0.046,0.011-0.206,0.058-0.244-0.01
					C41.19,35.996,41.308,35.899,41.308,35.899z"/>
				<path fill="#F1F2F2" d="M40.771,36.33c0,0-0.008,0.068-0.022,0.094c-0.013,0.025-0.079,0.038-0.079,0.038
					s-0.082,0.018-0.11,0.017c-0.028-0.002-0.037-0.025-0.036-0.044c0.001-0.02,0.022-0.08,0.044-0.103
					c0.021-0.023,0.09-0.104,0.153-0.095C40.783,36.245,40.771,36.33,40.771,36.33z"/>
				<path fill="#F1F2F2" d="M38.344,34.465c0,0,0.111,0.025,0.15,0.045c0.038,0.019,0.048,0.087,0.048,0.087s0.015,0.083,0.009,0.11
					c-0.008,0.026-0.046,0.031-0.079,0.026c-0.033-0.008-0.127-0.043-0.163-0.068c-0.033-0.025-0.154-0.11-0.128-0.17
					C38.21,34.435,38.344,34.465,38.344,34.465z"/>
				<path fill="#F1F2F2" d="M40.08,35.717c0,0,0.112,0.025,0.148,0.043c0.039,0.02,0.051,0.088,0.051,0.088s0.014,0.084,0.007,0.111
					s-0.045,0.031-0.077,0.025c-0.033-0.006-0.128-0.041-0.161-0.066c-0.034-0.026-0.155-0.111-0.129-0.172
					C39.945,35.687,40.08,35.717,40.08,35.717z"/>
				<path fill="#F1F2F2" d="M37.373,32.733c0,0,0.058,0.042,0.075,0.065c0.015,0.021-0.003,0.07-0.003,0.07s-0.021,0.06-0.036,0.077
					c-0.015,0.017-0.039,0.01-0.056-0.001c-0.018-0.012-0.06-0.058-0.071-0.084c-0.01-0.026-0.052-0.111-0.014-0.146
					C37.305,32.68,37.373,32.733,37.373,32.733z"/>
				<path fill="#F1F2F2" d="M37.946,33.467c0,0,0.058,0.068,0.073,0.103c0.016,0.034-0.004,0.112-0.004,0.112
					s-0.024,0.096-0.038,0.123c-0.014,0.027-0.039,0.017-0.055-0.001c-0.017-0.019-0.061-0.092-0.07-0.133
					c-0.011-0.041-0.049-0.176-0.011-0.231C37.879,33.385,37.946,33.467,37.946,33.467z"/>
				<path fill="#F1F2F2" d="M41.157,36.611c0,0,0.105-0.009,0.152-0.004c0.05,0.006,0.131,0.054,0.131,0.054s0.102,0.059,0.126,0.08
					c0.025,0.022,0.004,0.034-0.025,0.038c-0.03,0.003-0.136-0.001-0.188-0.012c-0.051-0.011-0.23-0.046-0.277-0.096
					C41.03,36.62,41.157,36.611,41.157,36.611z"/>
				<path fill="#F1F2F2" d="M38.142,30.467c0,0,0.034,0.079,0.034,0.111c0,0.032-0.063,0.07-0.063,0.07s-0.079,0.047-0.11,0.056
					c-0.032,0.008-0.056-0.014-0.068-0.036c-0.009-0.022-0.023-0.096-0.014-0.128c0.01-0.032,0.033-0.145,0.108-0.156
					C38.103,30.372,38.142,30.467,38.142,30.467z"/>
				<path fill="#F1F2F2" d="M41.488,24.497c0,0-0.167,0.037-0.233,0.036c-0.066-0.001-0.137-0.081-0.137-0.081
					s-0.09-0.098-0.103-0.136c-0.013-0.039,0.034-0.068,0.082-0.079c0.048-0.011,0.203-0.025,0.268-0.012
					c0.066,0.013,0.295,0.047,0.312,0.138C41.689,24.455,41.488,24.497,41.488,24.497z"/>
				<path fill="#F1F2F2" d="M45.237,22.288c0,0-0.345-0.037-0.453-0.075c-0.108-0.038-0.081-0.189-0.081-0.189
					s0.028-0.187,0.078-0.248c0.047-0.063,0.179-0.079,0.279-0.07c0.101,0.008,0.383,0.074,0.47,0.127
					c0.085,0.054,0.406,0.227,0.266,0.365C45.652,22.336,45.237,22.288,45.237,22.288z"/>
				<path fill="#F1F2F2" d="M45.761,21.358c0,0,0.197,0.071,0.257,0.111c0.058,0.042,0.018,0.146,0.018,0.146
					s-0.043,0.13-0.08,0.169c-0.039,0.038-0.118,0.033-0.176,0.014c-0.059-0.019-0.215-0.101-0.258-0.151
					c-0.042-0.049-0.206-0.215-0.102-0.295C45.521,21.271,45.761,21.358,45.761,21.358z"/>
				<path fill="#F1F2F2" d="M40.903,18.504c0.019,0.003,0.125,0.016,0.155,0.031c0.028,0.016,0.037,0.072,0.009,0.087
					c-0.028,0.015-0.147-0.007-0.17-0.008c-0.023-0.001-0.07-0.042-0.073-0.063C40.821,18.53,40.883,18.502,40.903,18.504z"/>
				<path fill="#F1F2F2" d="M40.5,18.788c0.025,0.01,0.041,0.02,0.083,0.015c0.043-0.005,0.081-0.015,0.102,0.002
					c0.02,0.018,0,0.047-0.031,0.058c-0.028,0.01-0.111,0.041-0.157,0.034c-0.045-0.005-0.102-0.049-0.103-0.067
					C40.392,18.812,40.474,18.779,40.5,18.788z"/>
				<path fill="#F1F2F2" d="M41.205,19.975c0.026,0.004,0.144,0.016,0.197,0.029c0.055,0.013,0.093,0.044,0.089,0.063
					c-0.002,0.018-0.086,0.052-0.119,0.046c-0.033-0.005-0.166-0.023-0.181-0.032c-0.014-0.008-0.044-0.021-0.04-0.06
					C41.155,19.981,41.179,19.971,41.205,19.975z"/>
				<path fill="#F1F2F2" d="M39.815,19.263c0,0,0.097,0.019,0.118,0.036c0.019,0.016,0.022,0.028,0.03,0.044
					c0.006,0.017,0.008,0.042-0.011,0.054c-0.019,0.011-0.12,0.012-0.146,0.011c-0.026-0.001-0.062-0.014-0.092-0.035
					c-0.029-0.021-0.024-0.045-0.022-0.062c0-0.018,0.022-0.044,0.045-0.053C39.761,19.249,39.815,19.263,39.815,19.263z"/>
				<path fill="#F1F2F2" d="M39.726,21.217c0,0,0.105,0.041,0.125,0.065c0.021,0.025,0.023,0.04,0.029,0.062
					c0.005,0.021,0.005,0.055-0.016,0.066c-0.022,0.012-0.135-0.006-0.163-0.012c-0.029-0.005-0.069-0.028-0.099-0.06
					c-0.029-0.032-0.022-0.061-0.019-0.082c0.004-0.021,0.03-0.052,0.058-0.059C39.667,21.189,39.726,21.217,39.726,21.217z"/>
				<path fill="#F1F2F2" d="M40.121,21.965c0,0-0.125-0.019-0.157-0.041c-0.031-0.02-0.039-0.035-0.052-0.057
					c-0.015-0.021-0.026-0.055-0.008-0.072c0.018-0.017,0.142-0.024,0.174-0.024c0.032,0,0.082,0.015,0.125,0.041
					c0.044,0.026,0.046,0.058,0.051,0.081c0.005,0.023-0.011,0.06-0.037,0.074C40.192,21.981,40.121,21.965,40.121,21.965z"/>
				<path fill="#F1F2F2" d="M40.241,22.832c0,0-0.115-0.068-0.137-0.104c-0.023-0.036-0.025-0.056-0.032-0.086
					c-0.004-0.028-0.003-0.073,0.021-0.086c0.024-0.012,0.148,0.026,0.179,0.038c0.032,0.012,0.076,0.047,0.108,0.094
					c0.032,0.046,0.023,0.083,0.02,0.112c-0.005,0.028-0.035,0.065-0.064,0.071S40.241,22.832,40.241,22.832z"/>
				<path fill="#F1F2F2" d="M40.45,23.586c0,0-0.064-0.101-0.063-0.14c0-0.04,0.01-0.059,0.022-0.087
					c0.012-0.028,0.039-0.067,0.067-0.07c0.029-0.003,0.118,0.073,0.139,0.094c0.022,0.021,0.041,0.068,0.043,0.12
					c0.001,0.052-0.027,0.082-0.048,0.106c-0.02,0.024-0.068,0.046-0.098,0.042C40.481,23.648,40.45,23.586,40.45,23.586z"/>
				<path fill="#F1F2F2" d="M41.122,25.518c0,0-0.064-0.1-0.063-0.14c0-0.041,0.011-0.059,0.022-0.087
					c0.012-0.028,0.039-0.067,0.068-0.07c0.028-0.003,0.118,0.073,0.139,0.094c0.022,0.021,0.04,0.068,0.042,0.12
					c0.002,0.053-0.027,0.083-0.048,0.107s-0.068,0.046-0.099,0.042C41.154,25.579,41.122,25.518,41.122,25.518z"/>
				<path fill="#F1F2F2" d="M40.172,26.208c0,0-0.06-0.085-0.061-0.12c0-0.033,0.009-0.049,0.018-0.073
					c0.01-0.023,0.034-0.056,0.061-0.059c0.026-0.002,0.109,0.063,0.129,0.081c0.021,0.018,0.038,0.058,0.042,0.102
					c0.002,0.045-0.024,0.069-0.042,0.09c-0.019,0.02-0.061,0.039-0.09,0.035C40.203,26.26,40.172,26.208,40.172,26.208z"/>
				<path fill="#F1F2F2" d="M39.505,28.422c0,0,0.063-0.085,0.097-0.099c0.035-0.016,0.056-0.015,0.084-0.017
					c0.03-0.001,0.074,0.004,0.088,0.025c0.014,0.021-0.019,0.115-0.028,0.139c-0.011,0.024-0.044,0.055-0.088,0.076
					c-0.045,0.021-0.083,0.01-0.113,0.004c-0.028-0.006-0.068-0.034-0.075-0.058C39.464,28.469,39.505,28.422,39.505,28.422z"/>
				<path fill="#F1F2F2" d="M41.002,26.249c0,0-0.122-0.029-0.153-0.052c-0.031-0.024-0.04-0.04-0.055-0.063
					c-0.013-0.022-0.027-0.059-0.01-0.074c0.017-0.016,0.137-0.013,0.167-0.011c0.031,0.001,0.081,0.021,0.124,0.05
					c0.043,0.03,0.047,0.062,0.053,0.086c0.006,0.024-0.008,0.061-0.032,0.072C41.072,26.27,41.002,26.249,41.002,26.249z"/>
				<path fill="#F1F2F2" d="M40.192,24.529c0,0-0.063-0.1-0.063-0.14c0-0.04,0.01-0.059,0.022-0.087
					c0.012-0.029,0.039-0.066,0.067-0.07c0.029-0.004,0.119,0.073,0.14,0.094c0.021,0.021,0.04,0.067,0.042,0.12
					c0.002,0.052-0.028,0.082-0.048,0.106c-0.021,0.024-0.069,0.046-0.099,0.042C40.224,24.591,40.192,24.529,40.192,24.529z"/>
				<path fill="#F1F2F2" d="M40.404,25.074c0,0,0.006,0.111-0.016,0.147c-0.021,0.037-0.04,0.051-0.066,0.074
					c-0.025,0.022-0.071,0.05-0.1,0.044c-0.026-0.006-0.069-0.103-0.079-0.128c-0.009-0.026,0-0.074,0.024-0.123
					s0.068-0.068,0.099-0.084c0.031-0.016,0.087-0.022,0.113-0.009C40.406,25.008,40.404,25.074,40.404,25.074z"/>
				<path fill="#F1F2F2" d="M39.669,19.663c0.006-0.01,0.036-0.017,0.056-0.013c0.021,0.004,0.165,0.079,0.161,0.09
					s-0.061,0.013-0.076,0.009c-0.016-0.005-0.09-0.024-0.103-0.031C39.694,19.71,39.666,19.673,39.669,19.663z"/>
				<path fill="#F1F2F2" d="M39.415,20.217c0,0,0.154,0.039,0.187,0.064c0.032,0.026,0.07,0.051,0.063,0.069
					s-0.033,0.086-0.075,0.091c-0.043,0.004-0.12-0.042-0.12-0.042s-0.078-0.008-0.107-0.03c-0.029-0.021,0-0.047-0.018-0.06
					c-0.018-0.014-0.08-0.05-0.044-0.079C39.336,20.203,39.415,20.217,39.415,20.217z"/>
				<path fill="#F1F2F2" d="M40.502,21.247c0.037-0.025,0.167-0.082,0.274-0.064c0.106,0.017,0.225,0.133,0.248,0.175
					c0.023,0.042,0.032,0.131,0,0.147c-0.031,0.018-0.108-0.02-0.147-0.011c-0.04,0.008-0.136,0.03-0.192,0.022
					c-0.058-0.009-0.166-0.096-0.166-0.096s-0.079-0.063-0.065-0.098C40.465,21.289,40.463,21.271,40.502,21.247z"/>
				<path fill="#F1F2F2" d="M38.991,35.196c0,0,0.108-0.005,0.145,0.022c0.036,0.026,0.048,0.188,0.046,0.166
					c-0.002-0.024,0.056,0.063,0.053,0.113c-0.003,0.051-0.022,0.087-0.106,0.104c-0.083,0.016-0.111-0.002-0.164-0.048
					c-0.052-0.045-0.138-0.215-0.107-0.269C38.889,35.232,38.991,35.196,38.991,35.196z"/>
				<path fill="#F1F2F2" d="M41.906,36.197c0,0,0.062-0.082,0.112-0.091s0.227,0.093,0.202,0.077
					c-0.025-0.014,0.101,0.003,0.152,0.039c0.05,0.038,0.076,0.075,0.041,0.146c-0.036,0.072-0.071,0.08-0.151,0.088
					c-0.079,0.008-0.312-0.045-0.347-0.104C41.88,36.297,41.906,36.197,41.906,36.197z"/>
				<path fill="#F1F2F2" d="M43.83,36.159c0.037,0.056,0.151-0.042,0.112-0.098c-0.038-0.057-0.045-0.059-0.07-0.104
					c-0.022-0.044,0.055-0.163,0.055-0.163l-0.119,0.077l-0.038,0.147C43.771,36.021,43.793,36.106,43.83,36.159z"/>
				<path fill="#F1F2F2" d="M42.497,36.618c0.072-0.021,0.326-0.162,0.325-0.196c0-0.033-0.027-0.041-0.165-0.021
					c-0.138,0.02-0.2,0.072-0.243,0.094C42.369,36.519,42.424,36.638,42.497,36.618z"/>
				<path fill="#F1F2F2" d="M44.746,35.442c0.021-0.016,0.092,0.043,0.092,0.043l0.112,0.111c0,0,0.077,0.04,0.089,0.067
					c0.014,0.027-0.006,0.07-0.043,0.043s-0.069-0.051-0.069-0.051l-0.111-0.111C44.815,35.544,44.725,35.459,44.746,35.442z"/>
				<path fill="#F1F2F2" d="M45.546,35.102c0.022-0.016,0.093,0.043,0.093,0.043l0.113,0.111c0,0,0.076,0.041,0.09,0.067
					c0.014,0.027-0.008,0.069-0.044,0.043c-0.037-0.026-0.069-0.051-0.069-0.051l-0.112-0.11
					C45.615,35.204,45.525,35.119,45.546,35.102z"/>
				<path fill="#F1F2F2" d="M46.354,34.793c0.022-0.015,0.084,0.029,0.084,0.029l0.098,0.086c0,0,0.066,0.028,0.076,0.051
					s-0.014,0.06-0.046,0.039c-0.032-0.021-0.061-0.039-0.061-0.039l-0.095-0.086C46.411,34.873,46.334,34.809,46.354,34.793z"/>
				<path fill="#F1F2F2" d="M54.193,31.337c0.081,0.006,0.23,0.1,0.212,0.146s-0.241,0.001-0.241,0.001s-0.236-0.039-0.226-0.087
					C53.948,31.35,54.108,31.331,54.193,31.337z"/>
				<path fill="#F1F2F2" d="M54.921,31.724c0.042,0.032,0.067-0.07,0.141-0.11c0.075-0.04,0.236,0.028,0.224-0.032
					s-0.117-0.205-0.343-0.167C54.717,31.455,54.877,31.692,54.921,31.724z"/>
				<path fill="#F1F2F2" d="M55.453,31.462c-0.01,0.037,0.194,0.105,0.239,0.087c0.045-0.018,0.044-0.094-0.023-0.139
					C55.604,31.365,55.464,31.424,55.453,31.462z"/>
				<path fill="#F1F2F2" d="M55.15,31.33c-0.04,0.002-0.054-0.042-0.098-0.037c-0.047,0.005-0.088,0.029-0.088,0.029
					s-0.075,0.04-0.088-0.008c-0.014-0.049,0.375-0.149,0.393-0.129C55.288,31.205,55.191,31.328,55.15,31.33z"/>
			</g>
			<g>
				<path fill="#F7941E" d="M58.579,41.979c0.017-0.281,0.141-0.505,0.276-0.501c0.135,0.005,0.231,0.236,0.215,0.518
					c-0.018,0.281-0.141,0.505-0.276,0.501C58.66,42.492,58.563,42.261,58.579,41.979z"/>
				<path fill="#F7941E" d="M59.913,41.564c-0.023-0.09-0.08-0.086-0.11-0.163c-0.032-0.077-0.015-0.508-0.315-0.467
					c-0.302,0.042-0.225,0.85-0.12,0.844c0.102-0.009,0.112-0.056,0.187-0.073c0.074-0.019,0.128,0.056,0.223,0.034
					C59.872,41.718,59.936,41.655,59.913,41.564z"/>
				<path fill="#F7941E" d="M58.594,45.258c0.228-0.081,0.436-0.667,0.256-0.827c-0.178-0.161-0.454-0.087-0.553-0.055
					c-0.097,0.032-0.316,0.166-0.365,0.274c-0.047,0.106-0.023,0.294,0.025,0.385s0.15,0.173,0.216,0.216
					C58.241,45.296,58.37,45.341,58.594,45.258z"/>
				<path fill="#F1F2F2" d="M59.6,38.841c0.053-0.018,0-0.195-0.069-0.319c-0.068-0.127-0.177-0.263-0.238-0.245
					c-0.063,0.018,0.03,0.188,0.057,0.251c0.022,0.063,0.107,0.153,0.131,0.196C59.504,38.769,59.545,38.858,59.6,38.841z"/>
				<path fill="#F1F2F2" d="M60.519,40.914c0.055-0.019,0-0.196-0.067-0.32c-0.069-0.127-0.178-0.262-0.239-0.245
					c-0.063,0.018,0.031,0.188,0.054,0.252c0.026,0.063,0.109,0.152,0.135,0.196C60.424,40.84,60.467,40.932,60.519,40.914z"/>
				<path fill="#F1F2F2" d="M61.093,42.762c0.058-0.009,0.051-0.191,0.017-0.325c-0.036-0.134-0.106-0.282-0.172-0.275
					c-0.067,0.009-0.017,0.189-0.01,0.256c0.007,0.065,0.064,0.166,0.078,0.213C61.02,42.675,61.036,42.771,61.093,42.762z"/>
				<path fill="#F1F2F2" d="M61.631,46.577c0.057-0.004,0.085-0.184,0.075-0.319c-0.009-0.136-0.052-0.292-0.119-0.292
					c-0.066,0.001-0.053,0.186-0.058,0.252c-0.005,0.065,0.035,0.172,0.039,0.219S61.572,46.581,61.631,46.577z"/>
				<path fill="#F1F2F2" d="M61.087,47.221c0.19-0.01,0.354-0.23,0.381-0.392c0.026-0.162-0.044-0.342-0.262-0.333
					c-0.216,0.009-0.249,0.229-0.293,0.309c-0.044,0.079,0.042,0.201,0.035,0.257C60.943,47.118,60.897,47.233,61.087,47.221z"/>
				<path fill="#F1F2F2" d="M60.286,47.196c-0.179,0.018-0.33,0.204-0.35,0.338c-0.021,0.134,0.049,0.282,0.255,0.265
					c0.205-0.015,0.23-0.196,0.27-0.264c0.041-0.067-0.042-0.164-0.037-0.212C60.426,47.278,60.465,47.182,60.286,47.196z"/>
				<path fill="#F1F2F2" d="M60.852,42.862c0.086-0.022,0.087-0.214,0.044-0.345c-0.045-0.134-0.142-0.275-0.24-0.253
					c-0.1,0.024-0.04,0.204-0.032,0.271c0.009,0.068,0.09,0.162,0.106,0.206C60.746,42.787,60.767,42.884,60.852,42.862z"/>
				<path fill="#F1F2F2" d="M60.168,40.999c0.052-0.011,0.005-0.224-0.06-0.378c-0.063-0.155-0.164-0.329-0.226-0.318
					c-0.06,0.01,0.027,0.219,0.049,0.296c0.022,0.077,0.101,0.195,0.123,0.247C60.079,40.898,60.115,41.01,60.168,40.999z"/>
				<path fill="#F1F2F2" d="M59.086,47.58c0,0,0.121-0.14,0.145-0.196c0.021-0.058-0.083-0.124-0.083-0.124
					s-0.129-0.083-0.187-0.098c-0.06-0.014-0.125,0.024-0.161,0.063c-0.036,0.039-0.115,0.169-0.119,0.227
					c-0.001,0.058-0.03,0.256,0.115,0.276C58.941,47.75,59.086,47.58,59.086,47.58z"/>
				<path fill="#F1F2F2" d="M57.008,45.605c0,0,0.123-0.139,0.145-0.196c0.022-0.057-0.082-0.123-0.082-0.123
					s-0.128-0.085-0.188-0.1c-0.059-0.013-0.124,0.026-0.16,0.063c-0.036,0.04-0.114,0.171-0.118,0.228
					c-0.003,0.057-0.03,0.256,0.115,0.275C56.866,45.774,57.008,45.605,57.008,45.605z"/>
				<path fill="#F1F2F2" d="M56.132,44.841c0,0,0.076-0.106,0.087-0.151c0.01-0.044-0.071-0.104-0.071-0.104
					s-0.101-0.076-0.143-0.09c-0.044-0.015-0.087,0.013-0.11,0.043c-0.022,0.029-0.067,0.132-0.063,0.179
					c0.002,0.046,0.001,0.205,0.106,0.229C56.043,44.97,56.132,44.841,56.132,44.841z"/>
				<path fill="#F1F2F2" d="M51.624,43.782c0,0,0.074-0.106,0.085-0.15c0.011-0.045-0.07-0.105-0.07-0.105s-0.098-0.075-0.143-0.089
					c-0.042-0.015-0.087,0.012-0.109,0.043c-0.023,0.029-0.067,0.132-0.063,0.179c0.002,0.044,0,0.206,0.106,0.23
					C51.535,43.911,51.624,43.782,51.624,43.782z"/>
				<path fill="#F1F2F2" d="M50.42,42.539c0,0,0.037-0.076,0.04-0.109c0.002-0.033-0.059-0.084-0.059-0.084s-0.07-0.062-0.099-0.076
					c-0.029-0.014-0.056,0.004-0.065,0.025s-0.028,0.096-0.021,0.131c0.006,0.035,0.022,0.155,0.093,0.18
					C50.378,42.631,50.42,42.539,50.42,42.539z"/>
				<path fill="#F1F2F2" d="M49.019,43.206c0,0,0.116-0.026,0.157-0.046c0.037-0.021,0.042-0.09,0.042-0.09s0.006-0.082-0.007-0.109
					c-0.011-0.027-0.052-0.031-0.085-0.024c-0.034,0.006-0.132,0.042-0.164,0.07c-0.032,0.026-0.151,0.113-0.117,0.173
					C48.88,43.237,49.019,43.206,49.019,43.206z"/>
				<path fill="#F1F2F2" d="M48.214,43.712c0,0,0.087,0.021,0.122,0.021c0.034,0,0.077-0.041,0.077-0.041s0.05-0.049,0.059-0.07
					c0.009-0.021-0.016-0.035-0.04-0.043c-0.023-0.006-0.104-0.014-0.142-0.009c-0.035,0.007-0.157,0.021-0.169,0.069
					C48.108,43.688,48.214,43.712,48.214,43.712z"/>
				<path fill="#F1F2F2" d="M47.408,43.396c0,0-0.083-0.029-0.119-0.032c-0.034-0.004-0.081,0.033-0.081,0.033
					s-0.058,0.045-0.069,0.064c-0.01,0.02,0.01,0.037,0.033,0.046s0.103,0.026,0.139,0.022c0.036-0.003,0.161-0.007,0.179-0.054
					C47.509,43.431,47.408,43.396,47.408,43.396z"/>
				<path fill="#F1F2F2" d="M45.861,43.36c0,0-0.056-0.056-0.083-0.072c-0.029-0.016-0.094,0.001-0.094,0.001
					s-0.079,0.02-0.102,0.032c-0.021,0.013-0.014,0.036,0.001,0.053c0.015,0.016,0.075,0.059,0.11,0.069
					c0.031,0.009,0.145,0.051,0.19,0.017C45.93,43.426,45.861,43.36,45.861,43.36z"/>
				<path fill="#F1F2F2" d="M44.923,42.869c0,0-0.057-0.056-0.084-0.07c-0.03-0.016-0.094,0-0.094,0s-0.08,0.02-0.101,0.032
					c-0.022,0.013-0.016,0.036,0,0.052c0.016,0.018,0.076,0.06,0.109,0.071c0.033,0.009,0.146,0.049,0.192,0.016
					C44.991,42.937,44.923,42.869,44.923,42.869z"/>
				<path fill="#F1F2F2" d="M44.79,42.088c0,0-0.003-0.069-0.016-0.094c-0.013-0.025-0.078-0.04-0.078-0.04
					s-0.078-0.019-0.107-0.018c-0.028,0.001-0.037,0.023-0.039,0.043c0.001,0.021,0.02,0.081,0.038,0.104
					c0.021,0.024,0.083,0.104,0.146,0.096C44.797,42.171,44.79,42.088,44.79,42.088z"/>
				<path fill="#F1F2F2" d="M44.17,41.008c0,0-0.004-0.057-0.012-0.076c-0.01-0.021-0.063-0.034-0.063-0.034
					s-0.064-0.015-0.087-0.012c-0.023,0-0.031,0.018-0.031,0.035c-0.001,0.016,0.014,0.064,0.03,0.084
					c0.017,0.018,0.068,0.086,0.118,0.078C44.176,41.076,44.17,41.008,44.17,41.008z"/>
				<path fill="#F1F2F2" d="M43.405,40.454c0,0-0.004-0.056-0.014-0.076c-0.011-0.021-0.063-0.033-0.063-0.033
					s-0.064-0.014-0.089-0.013c-0.022,0.001-0.03,0.019-0.03,0.036c0,0.015,0.015,0.065,0.031,0.084
					c0.017,0.019,0.066,0.085,0.118,0.078S43.405,40.454,43.405,40.454z"/>
				<path fill="#F1F2F2" d="M42.879,39.403c0,0,0.034-0.063,0.036-0.092c0-0.027-0.049-0.062-0.049-0.062s-0.063-0.044-0.089-0.052
					c-0.026-0.009-0.048,0.009-0.057,0.026c-0.011,0.018-0.027,0.08-0.022,0.107c0.007,0.027,0.019,0.123,0.081,0.136
					C42.839,39.482,42.879,39.403,42.879,39.403z"/>
				<path fill="#F1F2F2" d="M42.7,37.961c0,0,0.144-0.012,0.19-0.026c0.047-0.015,0.045-0.083,0.045-0.083s-0.002-0.082-0.018-0.111
					c-0.016-0.027-0.069-0.036-0.112-0.035c-0.041,0.003-0.16,0.027-0.199,0.051c-0.039,0.022-0.18,0.095-0.13,0.157
					C42.527,37.977,42.7,37.961,42.7,37.961z"/>
				<path fill="#F1F2F2" d="M41.927,38.04c0,0-0.079-0.035-0.113-0.041c-0.035-0.007-0.088,0.026-0.088,0.026
					s-0.066,0.041-0.082,0.059c-0.013,0.018,0.004,0.038,0.026,0.047c0.023,0.01,0.101,0.033,0.137,0.033
					c0.037,0,0.162,0.005,0.191-0.039C42.024,38.082,41.927,38.04,41.927,38.04z"/>
				<path fill="#F1F2F2" d="M42.504,40.626c0,0,0.04-0.082,0.04-0.118c0.002-0.034-0.064-0.08-0.064-0.08s-0.081-0.059-0.114-0.07
					c-0.034-0.01-0.061,0.01-0.073,0.034c-0.012,0.023-0.031,0.103-0.021,0.139c0.008,0.036,0.029,0.161,0.106,0.179
					C42.458,40.727,42.504,40.626,42.504,40.626z"/>
				<path fill="#F1F2F2" d="M42.178,38.824c0,0,0.038-0.083,0.041-0.118c0-0.035-0.065-0.081-0.065-0.081s-0.082-0.059-0.114-0.069
					s-0.06,0.009-0.072,0.033c-0.012,0.023-0.03,0.103-0.022,0.139s0.029,0.161,0.107,0.179
					C42.133,38.925,42.178,38.824,42.178,38.824z"/>
				<path fill="#F1F2F2" d="M43.791,42.236c0,0-0.013-0.061-0.026-0.083c-0.015-0.022-0.077-0.041-0.077-0.041
					s-0.078-0.021-0.104-0.021s-0.034,0.018-0.032,0.035c0.002,0.018,0.026,0.071,0.048,0.093c0.021,0.022,0.088,0.098,0.146,0.095
					C43.807,42.31,43.791,42.236,43.791,42.236z"/>
				<path fill="#F1F2F2" d="M43.34,41.452c0,0-0.041-0.074-0.068-0.103c-0.028-0.03-0.123-0.063-0.123-0.063
					s-0.116-0.042-0.154-0.048c-0.037-0.008-0.041,0.015-0.03,0.035c0.009,0.022,0.062,0.091,0.102,0.121
					c0.037,0.029,0.159,0.133,0.24,0.142C43.388,41.544,43.34,41.452,43.34,41.452z"/>
				<path fill="#F1F2F2" d="M41.851,37.638c0,0,0.071-0.06,0.094-0.092c0.022-0.033,0.018-0.112,0.018-0.112
					s-0.002-0.096-0.011-0.125c-0.009-0.028-0.035-0.022-0.056-0.006c-0.019,0.017-0.079,0.083-0.095,0.122
					c-0.019,0.039-0.086,0.169-0.059,0.229C41.767,37.712,41.851,37.638,41.851,37.638z"/>
				<path fill="#F1F2F2" d="M46.66,43.083c0,0-0.064-0.067-0.098-0.086c-0.034-0.019-0.112-0.002-0.112-0.002
					s-0.097,0.021-0.123,0.036c-0.027,0.016-0.019,0.042,0,0.062c0.017,0.02,0.087,0.071,0.128,0.085
					c0.04,0.013,0.174,0.063,0.23,0.024C46.74,43.161,46.66,43.083,46.66,43.083z"/>
				<path fill="#F1F2F2" d="M54.997,44.501c0,0-0.138,0.081-0.175,0.125c-0.037,0.04,0.009,0.131,0.009,0.131s0.05,0.11,0.085,0.143
					c0.031,0.029,0.09,0.019,0.13-0.004c0.041-0.022,0.145-0.11,0.169-0.159c0.024-0.048,0.122-0.21,0.033-0.272
					C55.16,44.402,54.997,44.501,54.997,44.501z"/>
				<path fill="#F1F2F2" d="M59.546,43.476c0,0-0.162,0.236-0.185,0.324c-0.023,0.089,0.154,0.162,0.154,0.162
					s0.217,0.091,0.312,0.096c0.095,0.007,0.188-0.064,0.237-0.132c0.049-0.066,0.145-0.279,0.138-0.363
					c-0.008-0.084-0.005-0.384-0.236-0.377C59.735,43.192,59.546,43.476,59.546,43.476z"/>
				<path fill="#F1F2F2" d="M60.846,43.697c0,0,0.039-0.164,0.029-0.225c-0.01-0.06-0.145-0.097-0.145-0.097
					s-0.164-0.048-0.229-0.048c-0.063,0.002-0.104,0.055-0.118,0.101c-0.013,0.046-0.016,0.191,0.013,0.247
					c0.026,0.055,0.108,0.251,0.255,0.234C60.802,43.894,60.846,43.697,60.846,43.697z"/>
				<path fill="#F1F2F2" d="M61.062,48.358c0.009-0.014,0.058-0.088,0.058-0.114s-0.055-0.064-0.087-0.058
					c-0.033,0.008-0.079,0.096-0.091,0.11c-0.011,0.016,0.004,0.068,0.025,0.082C60.988,48.394,61.054,48.371,61.062,48.358z"/>
				<path fill="#F1F2F2" d="M60.524,48.44c0.005-0.021,0.003-0.037,0.032-0.06c0.031-0.023,0.063-0.042,0.057-0.063
					c-0.008-0.023-0.051-0.027-0.078-0.015c-0.027,0.011-0.11,0.045-0.129,0.076c-0.02,0.033-0.006,0.094,0.013,0.104
					C60.436,48.494,60.52,48.462,60.524,48.44z"/>
				<path fill="#F1F2F2" d="M59.667,47.314c0.011-0.019,0.068-0.096,0.083-0.14c0.018-0.042,0.007-0.082-0.014-0.093
					c-0.021-0.008-0.105,0.026-0.12,0.046c-0.013,0.024-0.071,0.117-0.071,0.131c0.001,0.014-0.003,0.04,0.042,0.06
					C59.631,47.34,59.656,47.332,59.667,47.314z"/>
				<path fill="#F1F2F2" d="M59.617,48.587c0,0,0.037-0.07,0.03-0.095c-0.007-0.021-0.017-0.03-0.028-0.043
					c-0.015-0.013-0.042-0.03-0.065-0.025c-0.023,0.004-0.082,0.067-0.097,0.083c-0.013,0.017-0.022,0.047-0.016,0.077
					c0.007,0.029,0.033,0.041,0.053,0.05s0.06,0.012,0.082,0.002C59.601,48.627,59.617,48.587,59.617,48.587z"/>
				<path fill="#F1F2F2" d="M57.476,47.502c0,0,0.019-0.09,0.005-0.116c-0.016-0.027-0.029-0.038-0.05-0.054
					c-0.02-0.016-0.056-0.035-0.079-0.028c-0.025,0.008-0.072,0.088-0.082,0.108c-0.01,0.021-0.009,0.06,0.007,0.096
					c0.018,0.037,0.053,0.048,0.078,0.06c0.025,0.01,0.073,0.012,0.095-0.003C57.472,47.554,57.476,47.502,57.476,47.502z"/>
				<path fill="#F1F2F2" d="M56.906,46.821c0,0-0.054,0.088-0.049,0.119c0.004,0.032,0.016,0.046,0.03,0.067
					c0.015,0.021,0.043,0.048,0.073,0.045c0.028-0.001,0.107-0.073,0.127-0.094c0.019-0.02,0.033-0.059,0.029-0.1
					c-0.003-0.043-0.034-0.063-0.056-0.079c-0.022-0.016-0.072-0.027-0.101-0.02C56.931,46.769,56.906,46.821,56.906,46.821z"/>
				<path fill="#F1F2F2" d="M56.05,46.241c0,0,0.005,0.11,0.03,0.145c0.025,0.036,0.045,0.05,0.073,0.07
					c0.029,0.021,0.076,0.045,0.104,0.039c0.027-0.008,0.059-0.108,0.064-0.133c0.007-0.025-0.008-0.074-0.037-0.122
					c-0.031-0.046-0.075-0.063-0.107-0.076c-0.033-0.014-0.092-0.017-0.114-0.002C56.039,46.175,56.05,46.241,56.05,46.241z"/>
				<path fill="#F1F2F2" d="M55.365,45.673c0,0,0.07,0.098,0.111,0.121c0.044,0.022,0.07,0.026,0.107,0.036s0.095,0.016,0.115-0.001
					c0.02-0.015-0.011-0.115-0.021-0.141s-0.049-0.063-0.104-0.096c-0.056-0.031-0.104-0.03-0.142-0.032s-0.091,0.015-0.103,0.037
					C55.317,45.616,55.365,45.673,55.365,45.673z"/>
				<path fill="#F1F2F2" d="M53.691,44.132c0,0,0.069,0.096,0.113,0.119c0.042,0.024,0.068,0.027,0.105,0.037
					c0.037,0.009,0.095,0.017,0.115,0c0.02-0.017-0.01-0.115-0.02-0.141c-0.011-0.025-0.049-0.064-0.104-0.096
					c-0.057-0.033-0.105-0.032-0.144-0.033c-0.037-0.001-0.09,0.015-0.103,0.036C53.645,44.077,53.691,44.132,53.691,44.132z"/>
				<path fill="#F1F2F2" d="M52.4,44.314c0,0,0.057,0.088,0.093,0.108c0.034,0.02,0.057,0.023,0.088,0.03
					c0.033,0.008,0.081,0.011,0.098-0.004c0.02-0.014-0.003-0.104-0.011-0.127c-0.007-0.023-0.039-0.058-0.084-0.086
					c-0.045-0.026-0.088-0.025-0.12-0.025c-0.033-0.002-0.077,0.015-0.091,0.034C52.362,44.266,52.4,44.314,52.4,44.314z"/>
				<path fill="#F1F2F2" d="M49.643,43.437c0,0,0.129,0.009,0.164-0.004s0.045-0.025,0.066-0.042
					c0.019-0.018,0.038-0.047,0.024-0.069c-0.014-0.02-0.134-0.056-0.165-0.063s-0.084-0.005-0.133,0.01
					c-0.049,0.016-0.059,0.045-0.07,0.067c-0.009,0.021-0.002,0.061,0.019,0.079C49.569,43.433,49.643,43.437,49.643,43.437z"/>
				<path fill="#F1F2F2" d="M52.84,43.779c0,0-0.041,0.091-0.033,0.124c0.007,0.033,0.019,0.048,0.034,0.071
					c0.016,0.021,0.046,0.051,0.073,0.049c0.026-0.001,0.094-0.077,0.109-0.096c0.017-0.021,0.026-0.062,0.02-0.105
					c-0.009-0.044-0.041-0.065-0.063-0.083c-0.022-0.018-0.067-0.03-0.097-0.023C52.857,43.723,52.84,43.779,52.84,43.779z"/>
				<path fill="#F1F2F2" d="M54.205,45.281c0,0,0.07,0.098,0.113,0.121c0.042,0.023,0.069,0.027,0.106,0.036s0.094,0.017,0.114,0
					c0.02-0.017-0.01-0.115-0.02-0.14c-0.011-0.026-0.049-0.065-0.104-0.098c-0.055-0.031-0.104-0.03-0.142-0.033
					c-0.038-0.001-0.092,0.016-0.104,0.037C54.16,45.226,54.205,45.281,54.205,45.281z"/>
				<path fill="#F1F2F2" d="M53.745,44.833c0,0-0.114-0.068-0.164-0.076c-0.052-0.01-0.079-0.006-0.117-0.003
					c-0.04,0.003-0.095,0.014-0.105,0.035s0.069,0.104,0.091,0.122c0.024,0.022,0.079,0.045,0.146,0.059
					c0.065,0.013,0.112-0.003,0.146-0.013c0.035-0.009,0.075-0.041,0.076-0.063S53.745,44.833,53.745,44.833z"/>
				<path fill="#F1F2F2" d="M59.104,48.442c0.012,0.003,0.039-0.011,0.047-0.025c0.009-0.015,0.012-0.146-0.002-0.152
					c-0.015-0.003-0.05,0.03-0.056,0.043c-0.004,0.013-0.027,0.068-0.027,0.081C59.067,48.398,59.093,48.439,59.104,48.442z"/>
				<path fill="#F1F2F2" d="M58.364,48.277c0,0,0.048-0.118,0.039-0.153c-0.01-0.035-0.014-0.074-0.038-0.079
					c-0.023-0.007-0.112-0.03-0.142-0.007c-0.03,0.025-0.025,0.098-0.025,0.098s-0.036,0.053-0.029,0.083
					c0.008,0.029,0.052,0.027,0.056,0.045c0.004,0.021,0.008,0.08,0.058,0.075C58.332,48.333,58.364,48.277,58.364,48.277z"/>
				<path fill="#F1F2F2" d="M57.896,47.006c0.047-0.009,0.185-0.057,0.229-0.133c0.042-0.076-0.011-0.215-0.043-0.254
					c-0.031-0.04-0.121-0.096-0.158-0.086c-0.035,0.01-0.041,0.077-0.074,0.098c-0.031,0.02-0.11,0.066-0.135,0.106
					s0.007,0.157,0.007,0.157s0.022,0.085,0.066,0.097C57.83,47.002,57.848,47.015,57.896,47.006z"/>
				<path fill="#F1F2F2" d="M42.099,39.8c0,0,0.069-0.063,0.061-0.102c-0.006-0.038-0.173-0.14-0.149-0.126s-0.035-0.073-0.091-0.1
					c-0.058-0.026-0.106-0.036-0.172,0.007c-0.066,0.042-0.063,0.068-0.046,0.128c0.019,0.059,0.15,0.212,0.226,0.224
					C42.001,39.843,42.099,39.8,42.099,39.8z"/>
				<path fill="#F1F2F2" d="M42.73,37.418c0,0,0.123,0.01,0.163-0.016c0.039-0.026,0.034-0.194,0.034-0.171
					c0,0.024,0.057-0.063,0.048-0.115c-0.011-0.053-0.037-0.092-0.135-0.111c-0.098-0.021-0.127-0.004-0.182,0.042
					c-0.054,0.044-0.132,0.218-0.091,0.274C42.608,37.377,42.73,37.418,42.73,37.418z"/>
				<path fill="#F1F2F2" d="M43.892,36.252c-0.037-0.056,0.134-0.068,0.171-0.013c0.038,0.058,0.035,0.063,0.07,0.104
					c0.035,0.042,0.205,0.061,0.205,0.061l-0.153,0.028l-0.179-0.063C44.007,36.37,43.929,36.307,43.892,36.252z"/>
				<path fill="#F1F2F2" d="M42.625,36.809c0.063-0.033,0.362-0.107,0.398-0.087c0.036,0.021,0.028,0.041-0.074,0.114
					c-0.101,0.073-0.191,0.081-0.242,0.094C42.657,36.944,42.561,36.842,42.625,36.809z"/>
				<path fill="#F1F2F2" d="M45.194,36.106c0.029-0.004,0.009-0.081,0.009-0.081l-0.054-0.135c0,0,0.001-0.07-0.021-0.094
					c-0.021-0.024-0.078-0.036-0.071,0.004c0.008,0.039,0.015,0.071,0.015,0.071l0.053,0.134
					C45.125,36.005,45.164,36.109,45.194,36.106z"/>
				<path fill="#F1F2F2" d="M46.025,35.81c0.03-0.003,0.009-0.08,0.009-0.08l-0.054-0.136c0,0,0.001-0.07-0.021-0.094
					c-0.021-0.025-0.078-0.036-0.07,0.004s0.014,0.072,0.014,0.072l0.053,0.133C45.956,35.708,45.994,35.814,46.025,35.81z"/>
				<path fill="#F1F2F2" d="M46.828,35.492c0.028-0.006,0.018-0.068,0.018-0.068l-0.036-0.11c0,0,0.009-0.06-0.009-0.077
					c-0.02-0.02-0.071-0.026-0.067,0.007c0.002,0.032,0.004,0.061,0.004,0.061l0.037,0.108
					C46.772,35.41,46.798,35.496,46.828,35.492z"/>
				<path fill="#F1F2F2" d="M55.094,32.673c0.043-0.055,0.028-0.203-0.032-0.217c-0.06-0.016-0.142,0.148-0.142,0.148
					s-0.097,0.168-0.04,0.19C54.939,32.815,55.052,32.727,55.094,32.673z"/>
				<path fill="#F1F2F2" d="M55.104,31.998c-0.009-0.045,0.114-0.001,0.2-0.023s0.106-0.162,0.163-0.119
					c0.058,0.043,0.152,0.192-0.021,0.309C55.274,32.281,55.113,32.043,55.104,31.998z"/>
				<path fill="#F1F2F2" d="M55.696,31.821c-0.044-0.015,0-0.18,0.046-0.198c0.046-0.018,0.126,0.028,0.135,0.094
					C55.888,31.785,55.743,31.836,55.696,31.821z"/>
				<path fill="#F1F2F2" d="M55.676,32.106c-0.027,0.023,0.013,0.056-0.019,0.082s-0.082,0.038-0.082,0.038
					s-0.086,0.022-0.044,0.059c0.046,0.038,0.38-0.144,0.37-0.167C55.89,32.095,55.701,32.083,55.676,32.106z"/>
			</g>
			<g>
				<path fill="#F1F2F2" d="M54.677,32.002c0,0-0.306,0.076-0.355,0.105c-0.049,0.029-0.494,0.193-0.494,0.193
					s-0.12,0.065-0.16,0.062c-0.043-0.003-0.034-0.016-0.068-0.005c-0.034,0.009-0.02,0.03-0.042,0.049
					c-0.021,0.019-0.13,0.045-0.173,0.068c-0.043,0.021-0.24,0.126-0.24,0.126L54.677,32.002z"/>
				<path fill="#F1F2F2" d="M53.076,32.625c0,0-0.033,0-0.06-0.009c-0.022,0.01-0.014,0.02-0.033,0.028
					c-0.021,0.01-0.058-0.035-0.101-0.011c-0.042,0.024-0.075,0.06-0.091,0.069c-0.017,0.009-0.056,0.021-0.056,0.021
					s-0.051,0.017-0.077,0.03c-0.025,0.014-0.185,0.106-0.185,0.106L53.076,32.625z"/>
			</g>
			<g>
				<path fill="#F1F2F2" d="M54.672,32.004c0,0-0.26,0.146-0.318,0.159c-0.061,0.013-0.496,0.192-0.496,0.192
					s-0.139,0.035-0.159,0.063c-0.021,0.027-0.002,0.03-0.033,0.045c-0.031,0.016-0.043-0.005-0.077-0.003
					c-0.032,0.003-0.124,0.055-0.172,0.068c-0.049,0.014-0.276,0.075-0.276,0.075L54.672,32.004z"/>
				<path fill="#F1F2F2" d="M53.073,32.628c0,0-0.021,0.02-0.025,0.042c-0.024,0.009-0.03-0.003-0.052,0.003
					c-0.021,0.006,0.006,0.055-0.045,0.067c-0.051,0.013-0.107,0.012-0.127,0.017c-0.02,0.005-0.055,0.021-0.055,0.021
					s-0.049,0.021-0.077,0.029c-0.028,0.009-0.222,0.053-0.222,0.053L53.073,32.628z"/>
			</g>
			<path fill="#F1F2F2" d="M53.012,32.618"/>
		</g>
	</g>
	<g opacity="0.8">
		<path fill="#004750" d="M39.518,39.319c0,0-0.039,0.024-0.113,0.069c-0.072,0.042-0.176,0.101-0.312,0.173
			c-0.272,0.142-0.674,0.332-1.209,0.521c-0.535,0.186-1.207,0.371-2.011,0.438c-0.799,0.069-1.75-0.006-2.694-0.388
			c-0.948-0.37-1.822-1.081-2.495-1.962c-0.162-0.222-0.336-0.451-0.477-0.708c-0.161-0.282-0.273-0.555-0.363-0.855
			c-0.18-0.597-0.214-1.238-0.136-1.85c0.156-1.235,0.683-2.356,1.281-3.406c0.605-1.051,1.31-2.041,2.02-3.014
			c0.709-0.973,1.434-1.926,2.071-2.901c0.316-0.487,0.612-0.98,0.843-1.484c0.228-0.501,0.402-1.024,0.386-1.514
			c-0.009-0.493-0.239-0.933-0.584-1.301c-0.344-0.365-0.775-0.652-1.214-0.892c-0.886-0.477-1.813-0.78-2.672-1.021
			c-1.728-0.47-3.219-0.681-4.259-0.815c-1.042-0.129-1.641-0.166-1.641-0.166s0.601,0.008,1.65,0.087
			c1.047,0.085,2.549,0.224,4.32,0.616c0.883,0.204,1.839,0.463,2.796,0.92c0.476,0.231,0.957,0.514,1.377,0.919
			c0.209,0.203,0.399,0.44,0.546,0.715c0.148,0.276,0.238,0.59,0.259,0.909c0.036,0.643-0.158,1.24-0.387,1.795
			c-0.236,0.557-0.53,1.081-0.842,1.594c-0.627,1.024-1.328,2.005-2.003,2.994c-0.676,0.987-1.336,1.978-1.88,2.993
			c-0.541,1.011-0.977,2.063-1.07,3.077c-0.048,0.505-0.002,0.992,0.145,1.431c0.069,0.215,0.172,0.438,0.28,0.612
			c0.118,0.206,0.269,0.388,0.418,0.578c0.605,0.735,1.323,1.267,2.067,1.527c0.741,0.269,1.485,0.307,2.136,0.228
			c0.653-0.077,1.217-0.251,1.667-0.426c0.451-0.178,0.79-0.353,1.012-0.479c0.111-0.063,0.194-0.113,0.246-0.146
			c0.048-0.032,0.074-0.048,0.074-0.048L39.518,39.319z"/>
	</g>
</g>
</svg>
