<?xml version="1.0" encoding="utf-8"?>
<!-- Generator: Adobe Illustrator 16.0.0, SVG Export Plug-In . SVG Version: 6.00 Build 0)  -->
<!DOCTYPE svg PUBLIC "-//W3C//DTD SVG 1.1//EN" "http://www.w3.org/Graphics/SVG/1.1/DTD/svg11.dtd">
<svg version="1.1" id="Layer_1" xmlns="http://www.w3.org/2000/svg" xmlns:xlink="http://www.w3.org/1999/xlink" x="0px" y="0px"
	 width="87.875px" height="75.365px" viewBox="0 0 87.875 75.365" enable-background="new 0 0 87.875 75.365" xml:space="preserve">
<g>
	<g>
		<g>
			<path d="M87.348,71.605c0.863-2.035,0.62-8.482-0.383-11.358c-1.01-2.88-3.957-10.909-8.252-16.668
				c-4.295-5.757-6.432-6.998-6.68-7.144c-0.246-0.146-0.4-0.312-0.447-0.666c-0.049-0.354-0.063-0.85,0.164-1.115
				c0.223-0.268,0.65-0.392,1.427-0.85c0.774-0.459,0.179-1.473,0.179-1.473s-0.732-0.957-1.675-0.748
				c-0.945,0.21-1.328,0.404-1.743,0.388c-0.415-0.016-0.937-0.316-1.289-0.551c-0.352-0.234-0.438-0.428-0.45-0.666
				c-0.009-0.238-0.086-2.279-3.742-8.288C60.804,16.458,53.939,9.954,51.448,7.654c-2.492-2.301-9.242-6.208-11.924-6.864
				c-2.681-0.655-4.356-1.053-5.384-0.587c-1.028,0.465-2.306,3.148-2.538,4.098c-0.234,0.949,0.526,2.482,1.069,3.856
				c0.544,1.374,1.255,3.563,1.231,4.475c-0.025,0.911-0.021,2.702-0.088,3.402c-0.071,0.699-0.395,2.45-0.358,3.636
				c0.036,1.186,0.012,1.5,0.061,1.982c0.049,0.485,0.661,1.865,0.661,1.865s-3.401,1.179-4.822,2.833
				c-1.417,1.654-1.651,2.545-1.926,2.921c-0.276,0.377-1.261,1.575-0.998,2.377c0.267,0.805-0.566,1.971-0.416,2.884
				c0.15,0.914,1.164,2.04,1.529,2.546c0.361,0.506,0.569,1.947,0.83,2.525c0.262,0.578,1.528,1.377,1.91,2.006
				c0.382,0.629,0.625,0.955,1.141,1.401c0.513,0.446,1.47,0.351,2.408,1.136c0.935,0.785,1.761,0.526,1.957,0.662
				c0.198,0.133,0.221,0.479,0.657,0.748s2.559,0.16,2.559,0.16s-1.353,1.249-1.321,1.676c0.033,0.426,0.391,0.641,0.421,0.84
				c0.028,0.199-0.733,0.561-0.438,1.596s-0.368,1.568-0.192,2.146c0.177,0.58,0.387,0.918,0.835,1.521
				c0.449,0.603,0.569,1.851,1.03,2.35c0.466,0.498,1.889,1.466,2.217,1.985c0.329,0.52,0.943,1.804,1.832,2.428
				c0.89,0.624,2.624,0.791,3.325,1.424c0.706,0.631,2.563,0.723,3.123,0.774c0.563,0.049,1.655,0.425,4.251,0.514
				c2.597,0.089,5.844-1.321,5.844-1.321s1.119,1.186,1.604,1.496c0.489,0.313,0.839,0.479,2.086,1.193
				c1.245,0.714,3.308,1.534,4.097,1.9c0.79,0.365,2.702,1.412,3.69,1.933c0.989,0.515,2.912,2.229,4.067,3.367
				c1.149,1.138,2.349,2.501,3.498,2.907c1.149,0.412,4.765,1.188,5.862,0.826C85.931,74.908,86.487,73.645,87.348,71.605z"/>
			<path d="M73.551,32.98c0,0,1.412-0.072,1.818-0.028c0.407,0.042,6.219,1.955,6.617,2.016c0.4,0.06,0.84-0.039,1.055,0.065
				c0.215,0.104,0.483,0.517,0.447,0.667c-0.031,0.149-0.477,0.688-0.576,0.532c-0.101-0.156-0.195-0.366,0-0.587
				c0.193-0.222,0.041-0.267-0.097-0.355c-0.136-0.088-0.612-0.077-0.807-0.132c-0.195-0.057-6.281-1.892-6.675-1.939
				c-0.394-0.048-1.781,0.087-1.781,0.087L73.551,32.98z"/>
			<path d="M72.891,31.964c0,0,0.47-2.081,0.5-3.108c0.025-1.026-1.073-5.011-1.251-5.372c-0.175-0.362-0.351-0.776-0.522-0.906
				c-0.168-0.128-0.482-0.403-0.777-0.398c-0.297,0.005-0.324,0.106-0.219,0.197c0.103,0.091,0.146,0.207,0.25,0.216
				c0.105,0.009,0.623-0.146,1.006,0.864c0.406,0.861,1.261,4.74,1.264,5.313c-0.003,0.572-0.563,2.94-0.563,2.94L72.891,31.964z"/>
		</g>
		<g>
			<g>
				<path fill="#F7941E" d="M52.009,16.243c0.073,0.238,1.39,2.708,1.804,3.188c0.411,0.479,2.835,2.825,3.196,3.177
					c0.36,0.352,4.938,4.148,4.938,4.148l4.834,4.509c0,0-1.023-3.491-1.283-3.976c-0.257-0.486-4.039-5.152-4.626-5.814
					c-0.591-0.664-3.792-4.158-4.36-4.589c-0.572-0.428-2.05-0.772-2.415-0.87c-0.361-0.098-1.815-0.745-1.934-0.684
					C52.047,15.391,51.936,16.006,52.009,16.243z"/>
				<path fill="#F7941E" d="M50.99,17.333c0.068-0.164-0.539-0.749-0.824-1.222c-0.287-0.476-0.289-0.793-0.911-1.351
					c-0.622-0.557-1.767-1.193-2.195-1.382c-0.43-0.189-2.104-0.692-3.223-0.823c-1.118-0.131-4.161-0.137-4.161-0.137
					s2.708,0.911,2.863,1.124c0.157,0.211,0.227,0.667,0.849,0.946c0.625,0.281,1.732,0.76,3.003,1.228
					C47.664,16.182,50.921,17.497,50.99,17.333z"/>
				<path fill="#F7941E" d="M54.527,21.789c0,0-1.219-1.442-2.021-2.21c-0.796-0.767-1.89-1.194-2.696-1.504
					c-0.807-0.312-5.488-1.845-6.434-2.049c-0.945-0.204-1.954-0.397-2.389-0.345c-0.44,0.049-1.21,0.364-1.383,0.757
					c-0.172,0.394-0.125,0.934,0.365,1.397c0.486,0.461,0.852,0.614,1.748,0.915C42.615,19.052,54.527,21.789,54.527,21.789z"/>
				<path fill="#F7941E" d="M55.658,28.021c0.717,0.241,10.899,3.329,10.899,3.329s-5.939-4.304-6.407-4.662
					c-0.467-0.354-3.004-2.788-4.042-3.259c-1.034-0.47-4.222-1.071-4.222-1.071s-8.914-2.074-10.531-2.47
					c-1.617-0.396-2.883,0.273-3.162,0.887c-0.279,0.613-0.11,1.667,1.402,2.077c1.513,0.41,7.272,1.801,8.286,2.146
					C48.896,25.342,54.943,27.78,55.658,28.021z"/>
				<path fill="#F7941E" d="M49.159,33.418c0.643-0.033,12.875-0.515,12.875-0.515s-0.791-0.914-1.218-1.02
					c-0.424-0.104-2.918-0.187-3.881-0.35c-0.964-0.164-6.619-2.216-6.619-2.216s-0.474,0.332-0.994,0.602
					c-0.521,0.268-1.337,0.306-1.337,0.306s-1.063-0.042-1.784,0.058c-0.726,0.099-1.463,0.376-1.725,0.458
					c-0.262,0.082-1.625,0.568-1.944,0.757c-0.32,0.189-0.607,0.257-0.494,0.725c0.115,0.467,0.554,0.622,1.211,0.753
					c0.658,0.132,3.221,0.364,3.858,0.416C47.744,33.44,48.518,33.45,49.159,33.418z"/>
				<path fill="#F7941E" d="M55.297,36.38c0.8-0.269,4.153-1.144,4.976-1.46c0.823-0.317,1.771-1.149,1.771-1.222
					c-0.003-0.073-0.688-0.274-1.481-0.222c-0.793,0.053-3.89,0.291-3.89,0.291l-3.079,0.294l-3.677,0.475l-3.271,1.488
					c0,0-3.066,1.069-3.667,1.322c-0.603,0.254-4.025,1.927-4.435,2.154c-0.411,0.227-0.814,0.557-0.855,0.708
					s0.344,0.5,0.372,0.653c0.028,0.152-0.065,0.564,0.009,0.849c0.077,0.281,0.294,0.449,0.514,0.651
					c0.22,0.203,0.927,0.554,1.151,0.457c0.224-0.096,5.942-2.868,7.903-3.666C49.592,38.357,54.497,36.648,55.297,36.38z"/>
				<path fill="#F7941E" d="M44.354,42.297c0.853-0.47,14.256-6.516,14.256-6.516l-9.777,3.489c0,0-7.189,3.117-7.574,3.328
					c-0.386,0.207-0.385,0.238-0.442,0.488c-0.051,0.251,0.091,0.566,0.179,0.678c0.088,0.11,0.27,0.247,0.451,0.25
					c0.181,0.004,1.718-0.777,1.718-0.777S43.5,42.764,44.354,42.297z"/>
				<path fill="#F7941E" d="M40.877,37.043c1.266-0.676,4.22-1.644,4.22-1.644l2.975-0.998c0,0-0.4-0.235-0.761-0.292
					c-0.357-0.057-3.413-0.423-4.248-0.369c-0.831,0.054-1.806,0.438-1.806,0.438l-3.166,1.127c0,0-4.253,1.478-4.554,1.669
					c-0.305,0.19-0.312,0.298-0.274,0.425c0.037,0.129,0.389,0.313,0.538,0.484c0.146,0.172,0.132,0.65,0.207,0.824
					c0.075,0.175,0.421,0.316,0.421,0.316s0.791,0.267,1.014,0.457c0.221,0.191,0.736,0.816,0.903,0.818
					c0.168,0.006,1.741-1.369,1.741-1.369S39.614,37.719,40.877,37.043z"/>
				<path fill="#F7941E" d="M40.387,33.72c0.365-0.109,0.849-0.097,0.973-0.22c0.124-0.124,0.124-0.256,0.108-0.361
					c-0.014-0.106-0.148-0.281-0.451-0.463c-0.305-0.182-0.689-0.298-1.458-0.392c-0.766-0.094-3.434-0.022-4.045,0.032
					c-0.613,0.054-2.664,0.434-2.952,0.511c-0.288,0.076-0.799,0.189-0.917,0.304c-0.118,0.114,0.034,0.502,0.064,0.615
					c0.028,0.11,1.259,2.641,1.653,2.657c0.396,0.018,2.095-0.89,3.583-1.448C38.429,34.396,40.021,33.828,40.387,33.72z"/>
				<path fill="#F7941E" d="M39.519,31.501c0.508-0.03,2.089-0.188,2.535-0.297c0.451-0.108,2.836-0.995,2.836-0.995
					s-9.823-1.121-10.54-1.17c-0.719-0.05-1.51-0.048-1.87,0.036c-0.358,0.083-0.974,0.352-1.079,0.686
					c-0.104,0.337,0.109,1.929,0.109,1.929s0.085,0.409,0.204,0.507c0.116,0.098,0.691,0.113,0.895,0.079
					c0.2-0.034,1.714-0.461,2.226-0.548c0.507-0.089,1.904-0.229,2.898-0.276C38.723,31.4,39.011,31.53,39.519,31.501z"/>
				<path fill="#F7941E" d="M40.938,29.241l3.242,0.441c0,0,2.016,0.18,2.626,0.15c0.609-0.033,1.442-0.127,1.783-0.269
					c0.338-0.144,0.726-0.392,0.661-0.578c-0.065-0.187-4.684-1.401-5.52-1.633c-0.839-0.231-5.718-1.226-6.241-1.243
					c-0.524-0.019-1.196,0.146-1.501,0.478c-0.306,0.331-0.009,0.689-0.185,0.87c-0.174,0.184-0.989,0.238-1.446,0.457
					c-0.453,0.22-0.943,0.547-0.688,0.641c0.256,0.096,3.055,0.122,3.827,0.162C38.268,28.757,40.938,29.241,40.938,29.241z"/>
				<path fill="#F7941E" d="M74.252,48.145c0.166,0.431,1.261,3.293,1.531,3.825c0.271,0.533,2.146,2.786,2.356,2.974
					c0.211,0.183,0.938,0.475,1.067,0.437c0.133-0.039,0.289-1.313,0.397-1.593c0.106-0.284,0.603-1.395,0.474-1.998
					c-0.127-0.604-1.996-4.616-2.359-5.365c-0.366-0.75-3.15-5.806-3.518-6.248c-0.371-0.441-3.504-3.109-3.504-3.109L72.7,42.68
					C72.7,42.677,74.09,47.718,74.252,48.145z"/>
				<path fill="#F7941E" d="M77.317,62.133c0.514-0.766,0.952-2.091,1.001-2.466c0.046-0.375,0.035-1.453-0.196-2.162
					c-0.235-0.708-0.57-0.896-0.91-1.348c-0.342-0.454-0.61-1.171-0.826-1.226c-0.215-0.055-0.713,2.727-0.954,3.78
					c-0.243,1.06-0.375,2.021-0.438,2.57c-0.063,0.548,0.381,0.854,0.517,1.075c0.136,0.222-0.468,2.42-0.468,2.42
					S76.806,62.9,77.317,62.133z"/>
				<path fill="#F7941E" d="M73.338,60.395c0.332-0.701,1.424-4.483,1.563-5.164c0.137-0.679,0.321-1.603-0.031-2.543
					c-0.356-0.939-1.188-2.533-1.188-2.533s-4.024,8.943-4.224,9.677c-0.199,0.729-0.25,1.043-0.041,1.614
					c0.211,0.566,0.756,0.914,1.284,1.037c0.52,0.123,1.303-0.17,1.614-0.406C72.624,61.83,73.004,61.1,73.338,60.395z"/>
				<path fill="#F7941E" d="M71.532,51.45c0,0,1.213-2.319,1.315-3.231s-1.021-3.896-1.125-4.395
					c-0.106-0.496-1.247-6.674-1.247-6.674s-2.641,8.088-2.8,8.668c-0.159,0.582-1.077,5.736-1.303,6.562
					c-0.222,0.826-2.093,5.192-2.539,6.364c-0.444,1.173,0.584,1.891,1.401,2.076c0.82,0.188,2.271-0.207,2.792-1.436
					C68.552,58.159,71.532,51.45,71.532,51.45z"/>
				<path fill="#F7941E" d="M55.241,51.771c0.432,0.345,0.674,0.205,1.063,0.117c0.386-0.086,1.701-0.642,1.943-0.756
					c0.239-0.113,0.967-0.408,1.493-0.797c0.528-0.389,1.104-1.068,1.104-1.068s0.517-0.479,1.107-0.646s1.224-0.263,1.224-0.263
					s1.104-4.688,1.49-5.375c0.389-0.689,1.753-2.279,1.892-2.604c0.138-0.321-0.383-1.343-0.383-1.343s-7.649,7.264-8.057,7.643
					c-0.41,0.379-0.854,0.858-1.17,1.279c-0.316,0.423-1.563,2.141-1.808,2.623C54.898,51.064,54.808,51.425,55.241,51.771z"/>
				<path fill="#F7941E" d="M53.861,46.715l3.501-1.15l2.65-1.992l2.111-1.729c0,0,2.061-1.773,2.576-2.23
					c0.521-0.459,0.705-1,0.629-1.045c-0.076-0.043-1.519,0.059-2.336,0.382c-0.82,0.323-3.71,1.88-4.465,2.218
					c-0.752,0.337-5.441,2.366-7.438,3.109c-1.996,0.746-8.299,2.656-8.53,2.74c-0.231,0.082-0.272,0.721-0.183,0.976
					c0.09,0.254,0.144,0.487,0.4,0.696c0.259,0.209,0.754,0.396,0.901,0.502c0.147,0.106,0.299,0.55,0.484,0.609
					c0.188,0.063,0.772,0.006,1.253-0.115c0.482-0.121,4.271-1.256,4.893-1.479C50.933,47.982,53.861,46.715,53.861,46.715z"/>
				<path fill="#F7941E" d="M61.102,39.471c0,0-14.284,4.743-15.282,4.995c-0.998,0.254-1.698,0.185-1.698,0.185
					s-1.735,0.494-1.836,0.608c-0.102,0.112-0.06,0.304,0.005,0.423c0.064,0.119,0.32,0.394,0.622,0.504
					c0.299,0.112,0.332,0.133,0.779,0.017c0.451-0.116,7.974-2.734,7.974-2.734L61.102,39.471z"/>
				<path fill="#F7941E" d="M52.693,51.111c0,0,0.979-0.377,1.521-0.86c0.545-0.481,1.938-2.581,2.082-2.834
					c0.15-0.256,0.132-0.638,0.132-0.638l-2.8,1.25c0,0-2.759,1.26-4.22,1.646c-1.463,0.388-3.648,0.621-3.648,0.621
					s-2.385,0.167-2.479,0.272c-0.093,0.104,0.275,0.789,0.351,1.037c0.076,0.248-0.101,0.892-0.101,0.892s-0.054,0.297,0.09,0.446
					c0.143,0.146,0.662,0.416,0.761,0.607c0.1,0.189,0.09,0.514,0.205,0.611c0.114,0.102,0.234,0.152,0.613,0.08
					c0.384-0.074,4.443-1.838,4.443-1.838L52.693,51.111z"/>
				<path fill="#F7941E" d="M51.333,55.743c0.412-0.347,2.042-1.949,2.395-2.478c0.346-0.529,0.448-0.832,0.433-1.125
					c-0.02-0.299-0.129-0.479-0.232-0.552c-0.104-0.069-0.241-0.149-0.448-0.146c-0.202,0.006-0.474,0.312-0.802,0.473
					c-0.326,0.161-1.865,0.813-3.331,1.404c-1.462,0.592-3.422,1.113-3.636,1.363c-0.213,0.256,1.774,2.488,1.878,2.573
					c0.103,0.082,0.427,0.402,0.617,0.396c0.192-0.004,0.612-0.252,0.863-0.385C49.314,57.135,50.917,56.09,51.333,55.743z"/>
				<path fill="#F7941E" d="M54.159,58.371c0.364-0.471,4.896-7.184,4.896-7.184s-2.34,0.957-2.718,1.168
					c-0.377,0.213-1.468,1.095-1.795,1.392c-0.327,0.298-0.356,0.55-0.988,1.132c-0.628,0.582-1.597,1.364-1.987,1.626
					c-0.391,0.265-1.729,0.95-1.882,1.054c-0.157,0.104-0.477,0.469-0.438,0.601c0.034,0.128,0.422,0.42,0.422,0.42
					s1.579,1.063,1.997,1.19c0.422,0.133,1.065-0.09,1.364-0.267C53.331,59.333,53.792,58.842,54.159,58.371z"/>
				<path fill="#F7941E" d="M61.432,53.564c0.243-0.65,1.637-4.207,1.475-4.356c-0.158-0.149-0.652-0.054-1.002,0.071
					c-0.35,0.127-0.937,0.584-1.324,0.943c-0.394,0.356-1.373,1.709-1.373,1.709l-1.425,2.256c0,0-1.039,1.932-1.444,2.429
					c-0.406,0.499-2.013,2.241-2.061,2.454c-0.046,0.214,0.59,0.103,1.089-0.051c0.5-0.152,1.035-0.625,1.33-0.625
					c0.298-0.002,0.505,0.388,1.037,0.396c0.532,0.004,1.104-0.313,1.389-0.646C59.408,57.811,61.191,54.217,61.432,53.564z"/>
			</g>
			<g>
				<path fill="#F7941E" d="M50.292,12.693c0.76,0.376,1.228,0.851,1.046,1.061c-0.181,0.21-0.94,0.076-1.698-0.3
					c-0.759-0.376-1.227-0.851-1.046-1.061S49.534,12.317,50.292,12.693z"/>
				<path fill="#F7941E" d="M52.625,12.038c0.201,0.163,0.109,0.241,0.269,0.398c0.159,0.159,1.307,0.745,0.768,1.139
					c-0.537,0.394-2.535-0.873-2.368-1.018c0.164-0.145,0.306-0.093,0.458-0.179c0.153-0.084,0.034-0.271,0.228-0.383
					C52.167,11.882,52.42,11.876,52.625,12.038z"/>
				<path fill="#F7941E" d="M41.104,8.763c0.534-0.225,2.359,0.297,2.521,0.793c0.165,0.497-0.422,0.807-0.644,0.912
					c-0.222,0.103-0.887,0.238-1.233,0.158c-0.349-0.08-0.806-0.384-0.971-0.586c-0.167-0.203-0.239-0.473-0.258-0.635
					C40.498,9.242,40.568,8.986,41.104,8.763z"/>
				<path fill="#F1F2F2" d="M59.28,16.387c0.123-0.054,0.51,0.277,0.741,0.561c0.23,0.284,0.433,0.639,0.299,0.709
					c-0.134,0.07-0.447-0.315-0.577-0.442s-0.248-0.382-0.323-0.479C59.338,16.635,59.16,16.444,59.28,16.387z"/>
				<path fill="#F1F2F2" d="M55.183,12.053c0.123-0.056,0.51,0.278,0.739,0.56c0.23,0.284,0.435,0.639,0.3,0.709
					c-0.137,0.07-0.447-0.315-0.578-0.442c-0.13-0.127-0.247-0.382-0.325-0.481C55.241,12.301,55.061,12.107,55.183,12.053z"/>
				<path fill="#F1F2F2" d="M51.177,8.556c0.107-0.072,0.573,0.197,0.87,0.44c0.298,0.242,0.59,0.561,0.476,0.648
					c-0.113,0.089-0.52-0.241-0.683-0.345c-0.16-0.105-0.34-0.339-0.438-0.423C51.297,8.791,51.073,8.629,51.177,8.556z"/>
				<path fill="#F1F2F2" d="M41.985,2.314c0.089-0.083,0.602,0.134,0.942,0.342c0.341,0.209,0.686,0.494,0.589,0.593
					c-0.098,0.099-0.557-0.184-0.738-0.272c-0.18-0.085-0.398-0.296-0.515-0.37C42.147,2.534,41.894,2.397,41.985,2.314z"/>
				<path fill="#F1F2F2" d="M39.527,2.211c0.297-0.268,1.108-0.204,1.565-0.014c0.461,0.193,0.831,0.556,0.496,0.87
					c-0.334,0.313-0.95,0.049-1.221,0.003c-0.271-0.047-0.469-0.348-0.623-0.419C39.596,2.581,39.228,2.481,39.527,2.211z"/>
				<path fill="#F1F2F2" d="M38.453,3.454c-0.295,0.248-1.001,0.208-1.382,0.048c-0.378-0.161-0.66-0.475-0.328-0.762
					c0.333-0.286,0.844-0.066,1.077-0.03c0.234,0.036,0.371,0.299,0.496,0.359C38.439,3.128,38.75,3.208,38.453,3.454z"/>
				<path fill="#F1F2F2" d="M50.574,8.778c0.18-0.098,0.678,0.17,0.96,0.426c0.281,0.255,0.515,0.6,0.314,0.718
					c-0.201,0.118-0.583-0.231-0.75-0.338c-0.166-0.106-0.292-0.362-0.387-0.452C50.619,9.042,50.393,8.875,50.574,8.778z"/>
				<path fill="#F1F2F2" d="M54.461,12.459c0.104-0.062,0.589,0.312,0.903,0.627c0.314,0.317,0.622,0.714,0.509,0.793
					c-0.109,0.079-0.535-0.353-0.704-0.494c-0.168-0.143-0.359-0.427-0.467-0.538C54.596,12.737,54.357,12.52,54.461,12.459z"/>
				<path fill="#F1F2F2" d="M35.744,4.717c0,0,0.537,0.016,0.716,0.063c0.181,0.047,0.202,0.301,0.202,0.301s0.038,0.311-0.009,0.42
					c-0.046,0.11-0.237,0.154-0.39,0.154c-0.154-0.002-0.609-0.07-0.761-0.146c-0.152-0.076-0.71-0.318-0.558-0.566
					C35.099,4.694,35.744,4.717,35.744,4.717z"/>
				<path fill="#F1F2F2" d="M37.938,10.656c0,0,0.538,0.016,0.718,0.063c0.179,0.047,0.203,0.301,0.203,0.301
					s0.034,0.311-0.011,0.42c-0.045,0.111-0.24,0.153-0.393,0.153c-0.155-0.001-0.607-0.068-0.759-0.145
					c-0.153-0.079-0.71-0.318-0.556-0.567C37.295,10.634,37.938,10.656,37.938,10.656z"/>
				<path fill="#F1F2F2" d="M38.686,13.068c0,0,0.384,0.038,0.519,0.086c0.131,0.047,0.172,0.255,0.172,0.255
					s0.053,0.253,0.029,0.341c-0.023,0.087-0.158,0.113-0.267,0.102c-0.109-0.008-0.441-0.084-0.558-0.157
					c-0.116-0.07-0.535-0.292-0.447-0.486C38.224,13.016,38.686,13.068,38.686,13.068z"/>
				<path fill="#F1F2F2" d="M35.03,21.365c0,0,0.387,0.04,0.519,0.086c0.133,0.047,0.173,0.255,0.173,0.255s0.052,0.253,0.029,0.341
					c-0.024,0.085-0.156,0.112-0.266,0.104c-0.109-0.009-0.442-0.088-0.557-0.157c-0.116-0.071-0.536-0.296-0.449-0.489
					C34.567,21.311,35.03,21.365,35.03,21.365z"/>
				<path fill="#F1F2F2" d="M36.562,24.947c0,0,0.25,0.054,0.341,0.098c0.089,0.044,0.137,0.203,0.137,0.203s0.059,0.196,0.055,0.26
					c-0.006,0.064-0.087,0.075-0.158,0.062c-0.072-0.013-0.292-0.094-0.373-0.154c-0.082-0.06-0.374-0.256-0.338-0.396
					S36.562,24.947,36.562,24.947z"/>
				<path fill="#F1F2F2" d="M32.828,26.11c0,0,0.236-0.139,0.339-0.17c0.109-0.028,0.294,0.063,0.294,0.063s0.225,0.111,0.28,0.165
					c0.054,0.054,0.006,0.123-0.059,0.163c-0.065,0.041-0.302,0.136-0.418,0.147c-0.114,0.012-0.512,0.068-0.617-0.069
					C32.542,26.272,32.828,26.11,32.828,26.11z"/>
				<path fill="#F1F2F2" d="M30.358,26.602c0,0,0.067-0.162,0.117-0.214c0.05-0.055,0.215-0.057,0.215-0.057s0.201-0.006,0.269,0.01
					c0.063,0.016,0.071,0.075,0.055,0.121c-0.02,0.047-0.112,0.181-0.175,0.227c-0.066,0.043-0.282,0.208-0.424,0.158
					C30.274,26.796,30.358,26.602,30.358,26.602z"/>
				<path fill="#F1F2F2" d="M30.038,28.266c0,0-0.043,0.166-0.083,0.223c-0.039,0.058-0.205,0.075-0.205,0.075
					s-0.202,0.023-0.267,0.013c-0.068-0.009-0.083-0.067-0.071-0.115c0.007-0.048,0.08-0.19,0.139-0.24
					c0.058-0.05,0.244-0.232,0.395-0.195C30.095,28.066,30.038,28.266,30.038,28.266z"/>
				<path fill="#F1F2F2" d="M27.931,30.646c0,0,0.065,0.163,0.065,0.227c0,0.065-0.135,0.141-0.135,0.141s-0.162,0.09-0.226,0.106
					c-0.069,0.015-0.119-0.031-0.137-0.076c-0.02-0.045-0.045-0.197-0.026-0.262c0.023-0.064,0.078-0.292,0.229-0.313
					C27.854,30.45,27.931,30.646,27.931,30.646z"/>
				<path fill="#F1F2F2" d="M27.87,32.756c0,0,0.066,0.162,0.065,0.228s-0.134,0.139-0.134,0.139s-0.164,0.093-0.229,0.107
					c-0.065,0.014-0.115-0.03-0.133-0.075c-0.022-0.047-0.045-0.197-0.027-0.264c0.021-0.063,0.075-0.291,0.23-0.31
					C27.794,32.561,27.87,32.756,27.87,32.756z"/>
				<path fill="#F1F2F2" d="M29.723,34.068c0,0,0.176,0.105,0.224,0.16c0.047,0.053-0.007,0.173-0.007,0.173
					s-0.065,0.144-0.108,0.187c-0.044,0.039-0.117,0.024-0.168-0.006c-0.05-0.026-0.185-0.141-0.215-0.203
					c-0.036-0.064-0.16-0.274-0.046-0.358C29.514,33.94,29.723,34.068,29.723,34.068z"/>
				<path fill="#F1F2F2" d="M31.66,36.541c0,0,0.142,0.085,0.181,0.129c0.041,0.045-0.005,0.141-0.005,0.141
					s-0.054,0.12-0.087,0.152c-0.032,0.033-0.094,0.02-0.136-0.002c-0.042-0.024-0.151-0.117-0.178-0.168
					c-0.024-0.05-0.127-0.223-0.036-0.29C31.488,36.437,31.66,36.541,31.66,36.541z"/>
				<path fill="#F1F2F2" d="M32.011,38.482c0,0,0.141,0.086,0.181,0.129s-0.002,0.141-0.002,0.141s-0.055,0.119-0.09,0.15
					c-0.033,0.033-0.092,0.02-0.135-0.002c-0.042-0.024-0.15-0.116-0.175-0.168c-0.029-0.051-0.13-0.223-0.041-0.289
					C31.842,38.378,32.011,38.482,32.011,38.482z"/>
				<path fill="#F1F2F2" d="M34.005,40.77c0,0,0.216,0.041,0.292,0.078c0.072,0.033,0.088,0.16,0.088,0.16s0.028,0.157,0.012,0.206
					c-0.017,0.054-0.091,0.062-0.154,0.052c-0.063-0.011-0.248-0.074-0.311-0.121c-0.063-0.05-0.293-0.203-0.241-0.314
					C33.745,40.717,34.005,40.77,34.005,40.77z"/>
				<path fill="#F1F2F2" d="M37.518,43.094c0,0,0.237-0.199,0.341-0.25c0.108-0.049,0.278,0.053,0.278,0.053
					s0.217,0.121,0.267,0.186c0.049,0.064-0.004,0.156-0.071,0.217c-0.066,0.059-0.3,0.203-0.415,0.229
					c-0.112,0.025-0.503,0.14-0.596-0.025C37.23,43.331,37.518,43.094,37.518,43.094z"/>
				<path fill="#F1F2F2" d="M36.208,44.145c0,0-0.02,0.168-0.055,0.229c-0.032,0.062-0.193,0.094-0.193,0.094
					s-0.199,0.043-0.269,0.04c-0.068-0.005-0.09-0.061-0.089-0.107c0.004-0.049,0.055-0.196,0.109-0.252
					c0.051-0.056,0.22-0.254,0.374-0.229C36.238,43.939,36.208,44.145,36.208,44.145z"/>
				<path fill="#F1F2F2" d="M30.283,39.592c0,0,0.272,0.061,0.366,0.109c0.093,0.046,0.118,0.212,0.118,0.212
					s0.037,0.204,0.022,0.271c-0.02,0.064-0.113,0.076-0.192,0.063c-0.079-0.017-0.311-0.103-0.396-0.165
					c-0.08-0.063-0.376-0.271-0.313-0.416C29.956,39.518,30.283,39.592,30.283,39.592z"/>
				<path fill="#F1F2F2" d="M34.521,42.65c0,0,0.273,0.061,0.363,0.104c0.095,0.047,0.124,0.215,0.124,0.215
					s0.034,0.203,0.018,0.271c-0.017,0.066-0.112,0.076-0.189,0.062c-0.079-0.015-0.313-0.101-0.392-0.163
					c-0.083-0.063-0.378-0.271-0.314-0.419C34.193,42.575,34.521,42.65,34.521,42.65z"/>
				<path fill="#F1F2F2" d="M27.913,35.364c0,0,0.141,0.104,0.183,0.159c0.037,0.053-0.008,0.172-0.008,0.172
					S28.035,35.842,28,35.883c-0.037,0.041-0.094,0.024-0.137-0.003c-0.042-0.03-0.146-0.142-0.173-0.205
					c-0.026-0.063-0.127-0.271-0.034-0.355C27.747,35.236,27.913,35.364,27.913,35.364z"/>
				<path fill="#F1F2F2" d="M29.312,37.156c0,0,0.141,0.166,0.177,0.251c0.04,0.084-0.009,0.274-0.009,0.274
					s-0.059,0.235-0.094,0.299c-0.034,0.065-0.093,0.042-0.134-0.002c-0.041-0.046-0.148-0.225-0.172-0.324
					c-0.026-0.1-0.12-0.431-0.026-0.566C29.149,36.956,29.312,37.156,29.312,37.156z"/>
				<path fill="#F1F2F2" d="M37.151,44.831c0,0,0.256-0.021,0.372-0.009c0.121,0.014,0.32,0.131,0.32,0.131s0.249,0.143,0.309,0.197
					c0.061,0.053,0.01,0.084-0.062,0.092c-0.074,0.007-0.331-0.002-0.458-0.029c-0.125-0.027-0.561-0.111-0.677-0.234
					C36.84,44.854,37.151,44.831,37.151,44.831z"/>
				<path fill="#F1F2F2" d="M29.79,29.834c0,0,0.082,0.193,0.083,0.271c0,0.077-0.155,0.17-0.155,0.17s-0.192,0.116-0.27,0.137
					c-0.078,0.019-0.137-0.033-0.165-0.088c-0.023-0.053-0.057-0.234-0.035-0.313c0.025-0.079,0.081-0.353,0.265-0.382
					C29.696,29.602,29.79,29.834,29.79,29.834z"/>
				<path fill="#F1F2F2" d="M37.958,15.261c0,0-0.407,0.09-0.57,0.087c-0.162-0.002-0.335-0.198-0.335-0.198
					s-0.22-0.238-0.251-0.331c-0.033-0.096,0.083-0.165,0.199-0.193c0.116-0.028,0.494-0.061,0.653-0.029
					c0.161,0.031,0.721,0.115,0.76,0.338C38.449,15.158,37.958,15.261,37.958,15.261z"/>
				<path fill="#F1F2F2" d="M47.11,9.868c0,0-0.843-0.09-1.106-0.182c-0.266-0.093-0.198-0.463-0.198-0.463s0.07-0.455,0.19-0.606
					c0.116-0.153,0.438-0.192,0.683-0.17c0.244,0.021,0.935,0.18,1.146,0.311c0.208,0.131,0.991,0.554,0.647,0.892
					C48.123,9.987,47.11,9.868,47.11,9.868z"/>
				<path fill="#F1F2F2" d="M48.386,7.599c0,0,0.484,0.172,0.627,0.271c0.142,0.101,0.046,0.356,0.046,0.356
					s-0.106,0.317-0.197,0.412c-0.094,0.093-0.289,0.08-0.429,0.033c-0.142-0.046-0.524-0.246-0.629-0.368
					c-0.104-0.12-0.502-0.524-0.249-0.72C47.805,7.385,48.386,7.599,48.386,7.599z"/>
				<path fill="#F1F2F2" d="M36.53,0.634c0.046,0.006,0.306,0.037,0.378,0.075c0.07,0.039,0.09,0.176,0.023,0.214
					c-0.067,0.037-0.36-0.018-0.415-0.02c-0.057-0.004-0.171-0.102-0.177-0.154C36.331,0.695,36.481,0.628,36.53,0.634z"/>
				<path fill="#F1F2F2" d="M35.545,1.326c0.062,0.024,0.1,0.048,0.203,0.037c0.104-0.013,0.198-0.036,0.248,0.006
					c0.048,0.042-0.002,0.115-0.075,0.14c-0.07,0.024-0.271,0.1-0.384,0.083c-0.11-0.014-0.248-0.12-0.252-0.165
					C35.283,1.383,35.482,1.304,35.545,1.326z"/>
				<path fill="#F1F2F2" d="M37.266,4.222c0.065,0.01,0.352,0.038,0.482,0.071c0.133,0.033,0.226,0.108,0.217,0.153
					c-0.006,0.044-0.21,0.126-0.291,0.113c-0.08-0.011-0.405-0.057-0.441-0.078c-0.035-0.021-0.109-0.053-0.098-0.147
					C37.145,4.238,37.203,4.212,37.266,4.222z"/>
				<path fill="#F1F2F2" d="M33.874,2.485c0,0,0.237,0.045,0.288,0.087c0.046,0.04,0.056,0.069,0.073,0.108
					c0.016,0.04,0.019,0.103-0.026,0.132c-0.045,0.028-0.292,0.03-0.357,0.028c-0.064-0.004-0.151-0.034-0.224-0.085
					c-0.071-0.053-0.06-0.111-0.055-0.152c0.002-0.043,0.055-0.108,0.11-0.13C33.743,2.451,33.874,2.485,33.874,2.485z"/>
				<path fill="#F1F2F2" d="M33.657,7.254c0,0,0.257,0.099,0.306,0.159c0.053,0.061,0.057,0.098,0.072,0.15
					c0.013,0.052,0.013,0.133-0.04,0.161c-0.053,0.028-0.328-0.016-0.396-0.03c-0.071-0.013-0.168-0.069-0.242-0.147
					c-0.071-0.077-0.054-0.147-0.047-0.2c0.011-0.052,0.074-0.126,0.141-0.143C33.514,7.186,33.657,7.254,33.657,7.254z"/>
				<path fill="#F1F2F2" d="M34.621,9.081c0,0-0.304-0.046-0.382-0.098c-0.076-0.05-0.095-0.087-0.128-0.138
					c-0.036-0.052-0.064-0.136-0.02-0.177c0.044-0.041,0.347-0.058,0.426-0.058c0.077-0.002,0.2,0.035,0.305,0.098
					c0.107,0.065,0.111,0.141,0.125,0.198c0.012,0.057-0.028,0.146-0.091,0.18C34.795,9.119,34.621,9.081,34.621,9.081z"/>
				<path fill="#F1F2F2" d="M34.915,11.197c0,0-0.282-0.167-0.335-0.252c-0.057-0.088-0.062-0.137-0.079-0.21
					c-0.01-0.07-0.008-0.178,0.051-0.21c0.059-0.03,0.361,0.064,0.438,0.093c0.078,0.029,0.185,0.115,0.264,0.228
					c0.078,0.112,0.057,0.202,0.048,0.273c-0.012,0.07-0.084,0.159-0.156,0.173C35.074,11.307,34.915,11.197,34.915,11.197z"/>
				<path fill="#F1F2F2" d="M35.425,13.038c0,0-0.158-0.245-0.154-0.342c-0.001-0.098,0.024-0.143,0.053-0.213
					c0.03-0.068,0.095-0.164,0.165-0.172c0.071-0.008,0.287,0.179,0.339,0.229c0.055,0.052,0.099,0.166,0.104,0.294
					c0.004,0.126-0.067,0.2-0.117,0.26c-0.049,0.059-0.166,0.113-0.239,0.103C35.5,13.188,35.425,13.038,35.425,13.038z"/>
				<path fill="#F1F2F2" d="M37.063,17.752c0,0-0.156-0.244-0.154-0.341c0.001-0.098,0.026-0.144,0.054-0.213
					c0.03-0.069,0.096-0.164,0.167-0.172c0.069-0.008,0.287,0.179,0.339,0.229c0.053,0.052,0.098,0.166,0.102,0.293
					c0.006,0.128-0.066,0.202-0.116,0.261c-0.05,0.06-0.166,0.114-0.241,0.104C37.142,17.903,37.063,17.752,37.063,17.752z"/>
				<path fill="#F1F2F2" d="M34.747,19.436c0,0-0.147-0.208-0.148-0.291c0-0.081,0.021-0.12,0.044-0.178
					c0.025-0.058,0.083-0.136,0.149-0.143c0.063-0.005,0.266,0.154,0.314,0.197c0.053,0.044,0.092,0.141,0.103,0.249
					c0.006,0.11-0.059,0.169-0.104,0.219c-0.045,0.049-0.149,0.095-0.22,0.085C34.821,19.564,34.747,19.436,34.747,19.436z"/>
				<path fill="#F1F2F2" d="M33.118,24.842c0,0,0.154-0.208,0.236-0.243c0.086-0.037,0.136-0.036,0.206-0.04
					c0.074-0.003,0.18,0.01,0.217,0.061c0.034,0.05-0.046,0.28-0.069,0.34c-0.026,0.058-0.108,0.133-0.216,0.185
					c-0.11,0.052-0.202,0.026-0.275,0.011c-0.068-0.014-0.165-0.083-0.183-0.142C33.018,24.956,33.118,24.842,33.118,24.842z"/>
				<path fill="#F1F2F2" d="M36.771,19.536c0,0-0.298-0.069-0.374-0.126c-0.075-0.058-0.097-0.098-0.134-0.152
					c-0.033-0.055-0.067-0.144-0.025-0.181c0.041-0.039,0.333-0.032,0.408-0.027c0.077,0.004,0.197,0.051,0.302,0.123
					c0.106,0.073,0.116,0.151,0.13,0.21c0.015,0.059-0.02,0.148-0.078,0.176C36.942,19.588,36.771,19.536,36.771,19.536z"/>
				<path fill="#F1F2F2" d="M34.795,15.34c0,0-0.155-0.245-0.155-0.342c0.001-0.098,0.025-0.144,0.055-0.212
					c0.029-0.07,0.094-0.163,0.165-0.171c0.071-0.009,0.289,0.178,0.34,0.229c0.052,0.05,0.099,0.165,0.104,0.293
					c0.006,0.127-0.067,0.201-0.117,0.26c-0.05,0.06-0.169,0.114-0.24,0.104C34.873,15.491,34.795,15.34,34.795,15.34z"/>
				<path fill="#F1F2F2" d="M35.311,16.67c0,0,0.015,0.271-0.038,0.36c-0.051,0.089-0.097,0.124-0.161,0.18
					c-0.063,0.053-0.173,0.122-0.244,0.107c-0.065-0.014-0.169-0.25-0.191-0.313s-0.002-0.181,0.059-0.3
					c0.061-0.119,0.165-0.166,0.242-0.204c0.075-0.04,0.212-0.055,0.276-0.023C35.316,16.509,35.311,16.67,35.311,16.67z"/>
				<path fill="#F1F2F2" d="M33.519,3.461c0.014-0.024,0.088-0.042,0.136-0.033c0.05,0.01,0.403,0.193,0.393,0.221
					c-0.009,0.027-0.149,0.032-0.185,0.021c-0.038-0.012-0.22-0.058-0.25-0.075C33.579,3.577,33.51,3.485,33.519,3.461z"/>
				<path fill="#F1F2F2" d="M32.898,4.814c0,0,0.377,0.095,0.457,0.158c0.077,0.063,0.17,0.125,0.152,0.169
					c-0.018,0.044-0.08,0.211-0.184,0.222c-0.104,0.01-0.292-0.102-0.292-0.102s-0.19-0.02-0.261-0.073
					c-0.07-0.052,0.001-0.116-0.042-0.147c-0.043-0.033-0.195-0.123-0.109-0.192C32.706,4.78,32.898,4.814,32.898,4.814z"/>
				<path fill="#F1F2F2" d="M35.551,7.328c0.091-0.061,0.408-0.2,0.669-0.156c0.259,0.042,0.548,0.324,0.604,0.427
					c0.056,0.103,0.078,0.32-0.001,0.359c-0.076,0.043-0.264-0.048-0.359-0.027c-0.098,0.02-0.332,0.073-0.469,0.054
					c-0.141-0.022-0.403-0.234-0.403-0.234s-0.192-0.155-0.16-0.238C35.461,7.43,35.456,7.387,35.551,7.328z"/>
				<path fill="#F1F2F2" d="M31.863,41.379c0,0,0.265-0.014,0.354,0.053c0.088,0.065,0.118,0.461,0.114,0.405
					c-0.005-0.058,0.137,0.155,0.129,0.278c-0.008,0.123-0.054,0.212-0.259,0.251c-0.202,0.04-0.271-0.003-0.399-0.115
					c-0.127-0.11-0.337-0.526-0.262-0.656C31.613,41.466,31.863,41.379,31.863,41.379z"/>
				<path fill="#F1F2F2" d="M38.979,43.822c0,0,0.15-0.202,0.274-0.223c0.124-0.021,0.553,0.226,0.494,0.19
					c-0.062-0.035,0.246,0.005,0.37,0.095c0.123,0.092,0.185,0.184,0.1,0.357c-0.086,0.177-0.172,0.195-0.368,0.215
					c-0.192,0.02-0.76-0.109-0.848-0.254C38.914,44.064,38.979,43.822,38.979,43.822z"/>
				<path fill="#F1F2F2" d="M43.675,43.73c0.091,0.135,0.368-0.104,0.274-0.24c-0.093-0.137-0.111-0.143-0.17-0.252
					c-0.055-0.109,0.134-0.399,0.134-0.399l-0.291,0.188l-0.091,0.361C43.531,43.389,43.585,43.6,43.675,43.73z"/>
				<path fill="#F1F2F2" d="M40.42,44.848c0.176-0.049,0.796-0.396,0.794-0.478c-0.001-0.082-0.066-0.101-0.402-0.052
					c-0.337,0.047-0.488,0.176-0.592,0.229C40.109,44.607,40.242,44.896,40.42,44.848z"/>
				<path fill="#F1F2F2" d="M45.912,41.979c0.05-0.039,0.223,0.104,0.223,0.104l0.275,0.271c0,0,0.188,0.1,0.217,0.166
					c0.033,0.066-0.015,0.17-0.105,0.104c-0.092-0.066-0.17-0.124-0.17-0.124l-0.273-0.271
					C46.079,42.227,45.857,42.018,45.912,41.979z"/>
				<path fill="#F1F2F2" d="M47.864,41.148c0.053-0.039,0.227,0.103,0.227,0.103l0.275,0.271c0,0,0.186,0.101,0.22,0.166
					c0.032,0.066-0.02,0.168-0.108,0.104c-0.091-0.064-0.169-0.123-0.169-0.123l-0.274-0.27
					C48.033,41.398,47.812,41.189,47.864,41.148z"/>
				<path fill="#F1F2F2" d="M49.837,40.393c0.056-0.035,0.206,0.071,0.206,0.071l0.236,0.211c0,0,0.165,0.069,0.188,0.124
					s-0.033,0.145-0.113,0.094c-0.079-0.051-0.147-0.094-0.147-0.094l-0.232-0.209C49.974,40.59,49.786,40.43,49.837,40.393z"/>
				<path fill="#F1F2F2" d="M68.97,31.958c0.2,0.014,0.565,0.245,0.519,0.356s-0.588,0.003-0.588,0.003s-0.579-0.095-0.551-0.212
					C68.373,31.988,68.764,31.942,68.97,31.958z"/>
				<path fill="#F1F2F2" d="M70.747,32.903c0.103,0.078,0.164-0.172,0.344-0.268c0.184-0.098,0.576,0.068,0.546-0.079
					c-0.031-0.148-0.287-0.501-0.836-0.407C70.25,32.245,70.641,32.824,70.747,32.903z"/>
				<path fill="#F1F2F2" d="M72.047,32.262c-0.024,0.09,0.474,0.256,0.584,0.214c0.109-0.044,0.107-0.23-0.057-0.34
					C72.417,32.026,72.073,32.171,72.047,32.262z"/>
				<path fill="#F1F2F2" d="M71.307,31.939c-0.096,0.007-0.129-0.101-0.239-0.089c-0.112,0.012-0.212,0.071-0.212,0.071
					s-0.184,0.097-0.216-0.02c-0.032-0.119,0.914-0.364,0.96-0.316C71.644,31.635,71.407,31.934,71.307,31.939z"/>
			</g>
			<g>
				<path fill="#F7941E" d="M79.678,57.934c0.041-0.686,0.342-1.231,0.674-1.222c0.329,0.011,0.564,0.577,0.523,1.263
					c-0.041,0.688-0.342,1.234-0.674,1.223C79.874,59.186,79.637,58.621,79.678,57.934z"/>
				<path fill="#F7941E" d="M82.933,56.923c-0.056-0.221-0.194-0.209-0.269-0.399c-0.078-0.189-0.035-1.239-0.77-1.139
					c-0.736,0.102-0.548,2.075-0.294,2.059c0.249-0.02,0.274-0.137,0.457-0.18c0.181-0.044,0.312,0.137,0.542,0.084
					C82.834,57.296,82.989,57.143,82.933,56.923z"/>
				<path fill="#F7941E" d="M79.713,65.939c0.554-0.198,1.063-1.629,0.625-2.021c-0.434-0.394-1.109-0.211-1.35-0.133
					c-0.236,0.079-0.771,0.405-0.892,0.669c-0.114,0.26-0.056,0.719,0.063,0.939c0.119,0.224,0.366,0.424,0.526,0.528
					C78.851,66.031,79.167,66.141,79.713,65.939z"/>
				<path fill="#F1F2F2" d="M82.167,50.275c0.129-0.043,0-0.478-0.168-0.781c-0.168-0.309-0.43-0.641-0.582-0.598
					c-0.154,0.043,0.074,0.459,0.137,0.614c0.058,0.154,0.265,0.374,0.32,0.479C81.936,50.098,82.034,50.318,82.167,50.275z"/>
				<path fill="#F1F2F2" d="M84.411,55.334c0.133-0.044,0-0.477-0.164-0.781c-0.17-0.309-0.434-0.64-0.584-0.599
					c-0.153,0.044,0.076,0.459,0.131,0.616c0.063,0.154,0.267,0.373,0.328,0.479C84.18,55.154,84.284,55.377,84.411,55.334z"/>
				<path fill="#F1F2F2" d="M85.812,59.845c0.142-0.021,0.126-0.468,0.041-0.793c-0.087-0.327-0.26-0.69-0.419-0.673
					c-0.164,0.02-0.042,0.463-0.025,0.624c0.019,0.16,0.159,0.405,0.192,0.519C85.634,59.633,85.675,59.868,85.812,59.845z"/>
				<path fill="#F1F2F2" d="M87.127,69.158c0.139-0.008,0.207-0.448,0.183-0.78c-0.022-0.33-0.126-0.713-0.291-0.712
					c-0.162,0.003-0.129,0.454-0.14,0.616c-0.012,0.159,0.086,0.419,0.096,0.534C86.984,68.93,86.984,69.167,87.127,69.158z"/>
				<path fill="#F1F2F2" d="M85.799,70.73c0.464-0.025,0.865-0.563,0.93-0.957c0.063-0.396-0.107-0.834-0.639-0.813
					c-0.527,0.021-0.608,0.559-0.715,0.754c-0.107,0.193,0.101,0.491,0.084,0.628C85.448,70.48,85.336,70.761,85.799,70.73z"/>
				<path fill="#F1F2F2" d="M83.844,70.671c-0.436,0.041-0.805,0.498-0.854,0.824c-0.051,0.327,0.12,0.688,0.623,0.647
					c0.5-0.037,0.563-0.481,0.659-0.646c0.099-0.164-0.103-0.4-0.093-0.516C84.186,70.869,84.28,70.633,83.844,70.671z"/>
				<path fill="#F1F2F2" d="M85.224,60.09c0.209-0.055,0.211-0.52,0.108-0.842c-0.11-0.325-0.346-0.671-0.586-0.615
					c-0.244,0.057-0.097,0.496-0.08,0.66c0.021,0.165,0.221,0.393,0.26,0.502C84.967,59.907,85.017,60.143,85.224,60.09z"/>
				<path fill="#F1F2F2" d="M83.556,55.542c0.126-0.026,0.013-0.545-0.146-0.922c-0.154-0.38-0.4-0.802-0.55-0.778
					c-0.147,0.024,0.066,0.535,0.118,0.723c0.055,0.189,0.247,0.476,0.301,0.604C83.338,55.297,83.428,55.568,83.556,55.542z"/>
				<path fill="#F1F2F2" d="M80.913,71.607c0,0,0.297-0.34,0.354-0.479c0.052-0.141-0.203-0.303-0.203-0.303
					s-0.313-0.203-0.455-0.239c-0.144-0.032-0.305,0.06-0.394,0.153c-0.088,0.096-0.279,0.412-0.289,0.554
					c-0.004,0.14-0.075,0.623,0.281,0.673C80.562,72.02,80.913,71.607,80.913,71.607z"/>
				<path fill="#F1F2F2" d="M75.842,66.787c0,0,0.301-0.339,0.354-0.479c0.053-0.139-0.203-0.301-0.203-0.301
					s-0.311-0.207-0.457-0.242c-0.142-0.031-0.301,0.062-0.39,0.155c-0.089,0.097-0.28,0.415-0.289,0.554
					c-0.008,0.139-0.075,0.625,0.281,0.672C75.495,67.199,75.842,66.787,75.842,66.787z"/>
				<path fill="#F1F2F2" d="M73.704,64.92c0,0,0.184-0.261,0.211-0.37c0.025-0.106-0.174-0.253-0.174-0.253
					s-0.244-0.184-0.349-0.219c-0.106-0.035-0.211,0.033-0.267,0.104c-0.057,0.073-0.166,0.323-0.156,0.437
					c0.006,0.112,0.003,0.502,0.26,0.562C73.486,65.236,73.704,64.92,73.704,64.92z"/>
				<path fill="#F1F2F2" d="M62.699,62.336c0,0,0.182-0.26,0.209-0.368c0.026-0.108-0.171-0.257-0.171-0.257
					s-0.239-0.182-0.348-0.217c-0.105-0.035-0.213,0.029-0.269,0.104c-0.057,0.073-0.164,0.323-0.153,0.438
					c0.004,0.108-0.002,0.502,0.258,0.562C62.482,62.652,62.699,62.336,62.699,62.336z"/>
				<path fill="#F1F2F2" d="M59.762,59.302c0,0,0.089-0.186,0.096-0.268c0.005-0.08-0.143-0.204-0.143-0.204s-0.17-0.152-0.24-0.186
					c-0.072-0.033-0.135,0.01-0.16,0.062s-0.069,0.233-0.051,0.319c0.016,0.086,0.057,0.379,0.226,0.438
					C59.659,59.527,59.762,59.302,59.762,59.302z"/>
				<path fill="#F1F2F2" d="M56.339,60.928c0,0,0.285-0.063,0.383-0.111c0.092-0.049,0.104-0.219,0.104-0.219
					s0.014-0.201-0.015-0.267c-0.027-0.067-0.128-0.076-0.209-0.06c-0.083,0.016-0.323,0.104-0.4,0.174
					c-0.079,0.063-0.371,0.274-0.287,0.42C56.001,61.007,56.339,60.928,56.339,60.928z"/>
				<path fill="#F1F2F2" d="M54.375,62.164c0,0,0.212,0.051,0.298,0.053c0.084-0.001,0.188-0.1,0.188-0.1s0.124-0.12,0.145-0.172
					c0.021-0.049-0.039-0.086-0.098-0.104c-0.058-0.015-0.256-0.036-0.346-0.022c-0.085,0.016-0.385,0.051-0.414,0.168
					S54.375,62.164,54.375,62.164z"/>
				<path fill="#F1F2F2" d="M52.408,61.391c0,0-0.201-0.07-0.289-0.078c-0.085-0.01-0.198,0.082-0.198,0.082
					s-0.142,0.109-0.17,0.156c-0.025,0.047,0.024,0.092,0.082,0.113c0.055,0.021,0.25,0.063,0.338,0.054
					c0.089-0.007,0.394-0.017,0.437-0.131C52.655,61.477,52.408,61.391,52.408,61.391z"/>
				<path fill="#F1F2F2" d="M48.634,61.305c0,0-0.137-0.135-0.205-0.175c-0.07-0.037-0.227,0.003-0.227,0.003
					s-0.193,0.047-0.248,0.078c-0.053,0.031-0.034,0.089,0.002,0.128c0.035,0.039,0.182,0.144,0.268,0.17
					c0.079,0.022,0.354,0.123,0.466,0.04C48.8,61.465,48.634,61.305,48.634,61.305z"/>
				<path fill="#F1F2F2" d="M46.342,60.109c0,0-0.138-0.137-0.206-0.174c-0.072-0.037-0.228,0.002-0.228,0.002
					s-0.195,0.047-0.246,0.078c-0.055,0.03-0.037,0.088,0,0.127c0.038,0.041,0.187,0.145,0.267,0.172
					c0.083,0.022,0.356,0.121,0.469,0.039C46.509,60.27,46.342,60.109,46.342,60.109z"/>
				<path fill="#F1F2F2" d="M46.018,58.201c0,0-0.007-0.17-0.038-0.23c-0.03-0.063-0.191-0.097-0.191-0.097
					s-0.191-0.046-0.261-0.043c-0.069,0.002-0.093,0.056-0.096,0.106c0.002,0.049,0.046,0.197,0.093,0.252
					c0.051,0.058,0.201,0.256,0.354,0.234C46.034,58.404,46.018,58.201,46.018,58.201z"/>
				<path fill="#F1F2F2" d="M44.505,55.563c0,0-0.01-0.138-0.031-0.186c-0.025-0.053-0.154-0.082-0.154-0.082
					s-0.158-0.035-0.213-0.031c-0.056,0-0.076,0.045-0.076,0.086c-0.002,0.039,0.035,0.16,0.073,0.207
					c0.041,0.043,0.166,0.209,0.289,0.19C44.52,55.73,44.505,55.563,44.505,55.563z"/>
				<path fill="#F1F2F2" d="M42.637,54.213c0,0-0.01-0.137-0.034-0.186c-0.026-0.051-0.155-0.08-0.155-0.08
					s-0.157-0.036-0.216-0.033c-0.054,0.002-0.075,0.045-0.075,0.088c0.001,0.037,0.037,0.159,0.076,0.206
					c0.04,0.044,0.162,0.207,0.288,0.19C42.647,54.381,42.637,54.213,42.637,54.213z"/>
				<path fill="#F1F2F2" d="M41.353,51.648c0,0,0.082-0.156,0.087-0.225c0.002-0.066-0.119-0.15-0.119-0.15
					s-0.154-0.107-0.217-0.127c-0.063-0.021-0.117,0.021-0.139,0.064c-0.028,0.045-0.067,0.196-0.054,0.264
					c0.017,0.066,0.046,0.301,0.197,0.332C41.257,51.841,41.353,51.648,41.353,51.648z"/>
				<path fill="#F1F2F2" d="M40.917,48.126c0,0,0.352-0.028,0.465-0.065c0.114-0.035,0.111-0.203,0.111-0.203s-0.005-0.2-0.045-0.27
					c-0.039-0.068-0.168-0.089-0.272-0.085c-0.101,0.007-0.392,0.067-0.486,0.123c-0.094,0.054-0.438,0.231-0.318,0.385
					C40.495,48.165,40.917,48.126,40.917,48.126z"/>
				<path fill="#F1F2F2" d="M39.029,48.32c0,0-0.192-0.086-0.276-0.101c-0.085-0.017-0.216,0.065-0.216,0.065
					s-0.161,0.099-0.2,0.142c-0.033,0.043,0.01,0.093,0.063,0.116c0.056,0.023,0.245,0.08,0.335,0.08
					c0.09-0.001,0.396,0.013,0.465-0.096C39.267,48.423,39.029,48.32,39.029,48.32z"/>
				<path fill="#F1F2F2" d="M40.438,54.632c0,0,0.096-0.2,0.097-0.288c0.005-0.084-0.157-0.197-0.157-0.197
					s-0.197-0.142-0.278-0.172c-0.082-0.024-0.148,0.026-0.177,0.084c-0.03,0.058-0.075,0.25-0.053,0.338
					c0.021,0.09,0.071,0.394,0.26,0.438C40.327,54.877,40.438,54.632,40.438,54.632z"/>
				<path fill="#F1F2F2" d="M39.643,50.234c0,0,0.093-0.203,0.1-0.289c0.001-0.086-0.159-0.197-0.159-0.197
					s-0.199-0.143-0.279-0.171c-0.079-0.026-0.146,0.024-0.175,0.083c-0.03,0.056-0.074,0.25-0.054,0.338
					c0.021,0.088,0.072,0.393,0.263,0.436C39.533,50.48,39.643,50.234,39.643,50.234z"/>
				<path fill="#F1F2F2" d="M43.578,58.561c0,0-0.03-0.146-0.063-0.201c-0.035-0.055-0.187-0.099-0.187-0.099
					s-0.191-0.052-0.254-0.054c-0.063-0.003-0.082,0.044-0.077,0.087c0.006,0.042,0.064,0.174,0.118,0.226
					c0.05,0.054,0.216,0.237,0.357,0.23C43.618,58.74,43.578,58.561,43.578,58.561z"/>
				<path fill="#F1F2F2" d="M42.478,56.65c0,0-0.098-0.183-0.165-0.252c-0.07-0.074-0.3-0.155-0.3-0.155s-0.283-0.103-0.375-0.116
					c-0.089-0.018-0.1,0.035-0.074,0.086c0.023,0.053,0.152,0.221,0.248,0.294c0.089,0.071,0.388,0.325,0.586,0.345
					C42.596,56.873,42.478,56.65,42.478,56.65z"/>
				<path fill="#F1F2F2" d="M38.844,47.338c0,0,0.174-0.146,0.229-0.225c0.054-0.081,0.044-0.274,0.044-0.274
					s-0.005-0.235-0.027-0.306c-0.021-0.067-0.085-0.053-0.137-0.014c-0.047,0.041-0.192,0.203-0.232,0.299
					c-0.046,0.096-0.209,0.412-0.144,0.557C38.639,47.518,38.844,47.338,38.844,47.338z"/>
				<path fill="#F1F2F2" d="M50.584,60.629c0,0-0.157-0.164-0.24-0.21c-0.082-0.046-0.273-0.004-0.273-0.004
					s-0.236,0.051-0.301,0.087c-0.066,0.039-0.045,0.104-0.001,0.152c0.042,0.047,0.214,0.174,0.313,0.207
					c0.097,0.031,0.424,0.154,0.563,0.058C50.78,60.82,50.584,60.629,50.584,60.629z"/>
				<path fill="#F1F2F2" d="M70.933,64.091c0,0-0.336,0.198-0.427,0.304c-0.091,0.099,0.021,0.32,0.021,0.32
					s0.123,0.271,0.207,0.348c0.079,0.073,0.222,0.045,0.318-0.009c0.1-0.055,0.354-0.271,0.413-0.388
					c0.059-0.118,0.299-0.512,0.08-0.667C71.331,63.848,70.933,64.091,70.933,64.091z"/>
				<path fill="#F1F2F2" d="M82.036,61.587c0,0-0.396,0.577-0.449,0.793c-0.057,0.215,0.377,0.394,0.377,0.394
					s0.527,0.222,0.761,0.234c0.229,0.016,0.459-0.158,0.577-0.322c0.119-0.162,0.354-0.682,0.337-0.887
					c-0.019-0.204-0.013-0.936-0.576-0.919C82.5,60.896,82.036,61.587,82.036,61.587z"/>
				<path fill="#F1F2F2" d="M85.209,62.128c0,0,0.096-0.401,0.072-0.548c-0.023-0.145-0.352-0.236-0.352-0.236
					s-0.402-0.117-0.559-0.117c-0.153,0.004-0.254,0.133-0.287,0.246c-0.031,0.113-0.039,0.467,0.031,0.604
					c0.063,0.133,0.264,0.612,0.623,0.573C85.101,62.609,85.209,62.128,85.209,62.128z"/>
				<path fill="#F1F2F2" d="M85.737,73.506c0.021-0.033,0.141-0.214,0.141-0.279c0-0.063-0.135-0.156-0.213-0.141
					c-0.08,0.02-0.193,0.234-0.222,0.27c-0.026,0.037,0.011,0.166,0.062,0.201C85.559,73.592,85.719,73.538,85.737,73.506z"/>
				<path fill="#F1F2F2" d="M84.425,73.707c0.013-0.051,0.007-0.091,0.079-0.146c0.076-0.057,0.154-0.102,0.138-0.153
					c-0.019-0.058-0.123-0.066-0.19-0.036c-0.067,0.027-0.269,0.109-0.315,0.188c-0.048,0.08-0.015,0.227,0.03,0.254
					C84.208,73.837,84.413,73.76,84.425,73.707z"/>
				<path fill="#F1F2F2" d="M82.333,70.957c0.026-0.045,0.166-0.234,0.203-0.34c0.043-0.102,0.017-0.2-0.035-0.225
					c-0.051-0.021-0.256,0.062-0.293,0.112c-0.031,0.06-0.174,0.284-0.174,0.318c0.004,0.032-0.006,0.099,0.103,0.147
					C82.245,71.021,82.306,71.002,82.333,70.957z"/>
				<path fill="#F1F2F2" d="M82.211,74.063c0,0,0.09-0.172,0.074-0.229c-0.017-0.053-0.041-0.074-0.07-0.107
					c-0.036-0.029-0.102-0.072-0.158-0.062c-0.057,0.012-0.201,0.165-0.236,0.204c-0.033,0.041-0.055,0.115-0.039,0.189
					c0.016,0.071,0.082,0.099,0.129,0.121c0.047,0.021,0.146,0.027,0.201,0.006C82.17,74.163,82.211,74.063,82.211,74.063z"/>
				<path fill="#F1F2F2" d="M76.983,71.415c0,0,0.047-0.218,0.012-0.283c-0.037-0.067-0.072-0.092-0.121-0.131
					c-0.047-0.037-0.135-0.085-0.195-0.069c-0.061,0.018-0.174,0.213-0.198,0.264c-0.024,0.053-0.022,0.146,0.017,0.234
					c0.041,0.09,0.129,0.117,0.189,0.146c0.063,0.023,0.18,0.029,0.232-0.006C76.974,71.543,76.983,71.415,76.983,71.415z"/>
				<path fill="#F1F2F2" d="M75.594,69.755c0,0-0.131,0.215-0.119,0.291c0.009,0.077,0.038,0.112,0.074,0.163
					c0.035,0.052,0.105,0.117,0.178,0.111c0.07-0.002,0.262-0.178,0.311-0.229c0.045-0.047,0.08-0.144,0.072-0.244
					c-0.008-0.104-0.084-0.152-0.138-0.193c-0.054-0.039-0.175-0.066-0.245-0.047C75.655,69.625,75.594,69.755,75.594,69.755z"/>
				<path fill="#F1F2F2" d="M73.504,68.338c0,0,0.011,0.27,0.072,0.354c0.063,0.088,0.112,0.121,0.18,0.17
					c0.07,0.053,0.186,0.111,0.253,0.096c0.065-0.02,0.144-0.264,0.157-0.324c0.015-0.063-0.019-0.182-0.092-0.297
					c-0.074-0.113-0.184-0.154-0.262-0.188c-0.08-0.033-0.223-0.041-0.277-0.004C73.477,68.177,73.504,68.338,73.504,68.338z"/>
				<path fill="#F1F2F2" d="M71.831,66.951c0,0,0.174,0.24,0.272,0.295c0.108,0.055,0.172,0.066,0.263,0.09
					c0.09,0.023,0.231,0.037,0.28-0.003c0.05-0.037-0.024-0.281-0.049-0.343c-0.024-0.063-0.119-0.155-0.254-0.234
					c-0.136-0.077-0.253-0.074-0.347-0.08c-0.092-0.004-0.221,0.036-0.25,0.09C71.715,66.814,71.831,66.951,71.831,66.951z"/>
				<path fill="#F1F2F2" d="M67.745,63.189c0,0,0.171,0.233,0.278,0.293c0.102,0.058,0.167,0.066,0.258,0.09
					c0.089,0.021,0.231,0.039,0.279,0c0.049-0.041-0.023-0.282-0.046-0.344c-0.026-0.063-0.12-0.158-0.252-0.233
					c-0.139-0.081-0.257-0.079-0.351-0.081c-0.091-0.003-0.219,0.035-0.25,0.086C67.632,63.055,67.745,63.189,67.745,63.189z"/>
				<path fill="#F1F2F2" d="M64.596,63.636c0,0,0.137,0.214,0.226,0.263c0.083,0.047,0.137,0.058,0.214,0.074
					c0.08,0.019,0.198,0.028,0.239-0.009c0.047-0.034-0.008-0.253-0.028-0.31c-0.017-0.057-0.094-0.139-0.205-0.209
					c-0.108-0.064-0.213-0.063-0.293-0.063c-0.08-0.003-0.189,0.037-0.219,0.084C64.501,63.516,64.596,63.636,64.596,63.636z"/>
				<path fill="#F1F2F2" d="M57.864,61.491c0,0,0.313,0.024,0.399-0.007c0.086-0.033,0.111-0.063,0.163-0.104
					c0.045-0.043,0.094-0.116,0.061-0.168c-0.036-0.05-0.329-0.138-0.404-0.157c-0.077-0.019-0.205-0.011-0.325,0.025
					c-0.12,0.037-0.143,0.111-0.171,0.163c-0.022,0.053-0.006,0.149,0.044,0.194C57.683,61.484,57.864,61.491,57.864,61.491z"/>
				<path fill="#F1F2F2" d="M65.667,62.328c0,0-0.098,0.224-0.081,0.305c0.018,0.081,0.045,0.116,0.084,0.172
					c0.037,0.051,0.113,0.123,0.178,0.121c0.066-0.004,0.23-0.188,0.268-0.236c0.04-0.049,0.063-0.15,0.047-0.256
					c-0.021-0.108-0.098-0.16-0.151-0.203c-0.055-0.043-0.167-0.073-0.236-0.056C65.71,62.191,65.667,62.328,65.667,62.328z"/>
				<path fill="#F1F2F2" d="M69.001,65.996c0,0,0.171,0.238,0.276,0.294c0.103,0.058,0.168,0.069,0.259,0.09
					c0.091,0.022,0.229,0.039,0.28-0.001c0.047-0.04-0.025-0.281-0.049-0.342c-0.025-0.063-0.119-0.158-0.254-0.237
					c-0.134-0.077-0.255-0.075-0.346-0.08c-0.093-0.004-0.224,0.036-0.252,0.089C68.891,65.861,69.001,65.996,69.001,65.996z"/>
				<path fill="#F1F2F2" d="M67.878,64.902c0,0-0.279-0.168-0.402-0.188c-0.126-0.021-0.193-0.014-0.285-0.006
					c-0.097,0.006-0.231,0.032-0.258,0.085c-0.025,0.054,0.168,0.253,0.222,0.3c0.059,0.053,0.192,0.108,0.357,0.143
					c0.161,0.031,0.274-0.008,0.358-0.032c0.087-0.022,0.184-0.099,0.186-0.155C68.058,64.993,67.878,64.902,67.878,64.902z"/>
				<path fill="#F1F2F2" d="M80.959,73.712c0.029,0.008,0.096-0.028,0.115-0.063c0.021-0.035,0.027-0.357-0.006-0.371
					c-0.035-0.008-0.121,0.072-0.134,0.104c-0.011,0.031-0.067,0.168-0.067,0.199C80.868,73.605,80.931,73.704,80.959,73.712z"/>
				<path fill="#F1F2F2" d="M79.152,73.309c0,0,0.118-0.289,0.095-0.375s-0.033-0.182-0.092-0.192
					c-0.057-0.017-0.273-0.074-0.344-0.017c-0.074,0.061-0.064,0.239-0.064,0.239s-0.088,0.127-0.07,0.202
					c0.018,0.072,0.126,0.066,0.135,0.111c0.008,0.048,0.02,0.195,0.141,0.182C79.075,73.445,79.152,73.309,79.152,73.309z"/>
				<path fill="#F1F2F2" d="M78.01,70.204c0.115-0.021,0.451-0.136,0.558-0.324c0.103-0.185-0.026-0.524-0.104-0.62
					c-0.077-0.098-0.297-0.234-0.387-0.208c-0.086,0.022-0.101,0.188-0.18,0.237c-0.076,0.048-0.271,0.162-0.331,0.26
					c-0.058,0.098,0.019,0.383,0.019,0.383s0.054,0.207,0.16,0.238C77.85,70.197,77.892,70.225,78.01,70.204z"/>
				<path fill="#F1F2F2" d="M39.449,52.616c0,0,0.17-0.155,0.15-0.249c-0.016-0.092-0.422-0.34-0.365-0.307
					c0.057,0.034-0.085-0.179-0.222-0.244c-0.14-0.064-0.258-0.088-0.419,0.016c-0.162,0.104-0.155,0.168-0.112,0.313
					c0.045,0.143,0.367,0.517,0.55,0.545C39.211,52.719,39.449,52.616,39.449,52.616z"/>
				<path fill="#F1F2F2" d="M40.991,46.801c0,0,0.3,0.023,0.397-0.039c0.094-0.064,0.082-0.474,0.082-0.416
					c0.001,0.059,0.14-0.156,0.117-0.283c-0.028-0.129-0.091-0.222-0.329-0.271c-0.238-0.05-0.311-0.009-0.443,0.103
					c-0.133,0.108-0.324,0.532-0.223,0.67C40.692,46.701,40.991,46.801,40.991,46.801z"/>
				<path fill="#F1F2F2" d="M43.826,43.955c-0.089-0.135,0.327-0.167,0.418-0.03c0.094,0.138,0.086,0.151,0.172,0.253
					c0.085,0.102,0.501,0.149,0.501,0.149l-0.373,0.069l-0.436-0.152C44.108,44.244,43.917,44.088,43.826,43.955z"/>
				<path fill="#F1F2F2" d="M40.733,45.313c0.154-0.08,0.885-0.261,0.973-0.213c0.087,0.051,0.068,0.102-0.181,0.28
					c-0.245,0.179-0.468,0.198-0.592,0.229C40.811,45.645,40.577,45.395,40.733,45.313z"/>
				<path fill="#F1F2F2" d="M47.004,43.6c0.073-0.01,0.023-0.199,0.023-0.199l-0.131-0.328c0,0,0.003-0.172-0.05-0.23
					c-0.054-0.058-0.191-0.088-0.175,0.01c0.021,0.096,0.036,0.176,0.036,0.176l0.128,0.326C46.836,43.35,46.932,43.607,47.004,43.6
					z"/>
				<path fill="#F1F2F2" d="M49.033,42.875c0.074-0.007,0.022-0.197,0.022-0.197l-0.132-0.33c0,0,0.003-0.171-0.052-0.229
					c-0.051-0.061-0.19-0.087-0.171,0.009c0.019,0.097,0.033,0.177,0.033,0.177l0.128,0.324
					C48.863,42.627,48.958,42.886,49.033,42.875z"/>
				<path fill="#F1F2F2" d="M50.993,42.1c0.069-0.013,0.043-0.168,0.043-0.168l-0.088-0.269c0,0,0.021-0.144-0.022-0.188
					c-0.046-0.047-0.174-0.063-0.165,0.018c0.007,0.078,0.011,0.146,0.011,0.146l0.09,0.266C50.858,41.9,50.92,42.111,50.993,42.1z"
					/>
				<path fill="#F1F2F2" d="M71.17,35.218c0.104-0.134,0.068-0.494-0.078-0.529c-0.146-0.038-0.348,0.361-0.348,0.361
					s-0.234,0.411-0.096,0.464C70.792,35.565,71.067,35.351,71.17,35.218z"/>
				<path fill="#F1F2F2" d="M71.194,33.57c-0.021-0.11,0.279-0.002,0.487-0.057c0.209-0.055,0.26-0.395,0.399-0.291
					c0.141,0.106,0.371,0.47-0.051,0.754C71.612,34.261,71.217,33.68,71.194,33.57z"/>
				<path fill="#F1F2F2" d="M72.641,33.138c-0.109-0.035,0-0.439,0.111-0.483c0.111-0.043,0.307,0.067,0.33,0.23
					C73.107,33.05,72.754,33.175,72.641,33.138z"/>
				<path fill="#F1F2F2" d="M72.59,33.836c-0.066,0.057,0.031,0.135-0.045,0.199c-0.077,0.063-0.199,0.091-0.199,0.091
					s-0.211,0.055-0.107,0.143c0.11,0.092,0.926-0.351,0.901-0.406C73.111,33.807,72.653,33.778,72.59,33.836z"/>
			</g>
			<g>
				<path fill="#F1F2F2" d="M70.15,33.582c0,0-0.746,0.186-0.867,0.257c-0.118,0.072-1.205,0.471-1.205,0.471
					s-0.293,0.16-0.392,0.152c-0.103-0.009-0.082-0.04-0.166-0.014c-0.084,0.022-0.048,0.074-0.102,0.119
					c-0.054,0.046-0.318,0.11-0.423,0.166c-0.104,0.053-0.585,0.308-0.585,0.308L70.15,33.582z"/>
				<path fill="#F1F2F2" d="M66.244,35.103c0,0-0.08,0.001-0.145-0.022c-0.055,0.025-0.033,0.049-0.082,0.07
					c-0.049,0.023-0.139-0.085-0.243-0.027c-0.103,0.059-0.184,0.145-0.222,0.168c-0.042,0.023-0.138,0.052-0.138,0.052
					s-0.123,0.041-0.187,0.072c-0.062,0.033-0.451,0.259-0.451,0.259L66.244,35.103z"/>
			</g>
			<g>
				<path fill="#F1F2F2" d="M70.141,33.585c0,0-0.635,0.356-0.78,0.387c-0.146,0.032-1.209,0.469-1.209,0.469
					s-0.339,0.086-0.388,0.154c-0.053,0.067-0.005,0.073-0.082,0.11c-0.077,0.039-0.105-0.014-0.188-0.008
					c-0.079,0.008-0.303,0.133-0.421,0.165c-0.119,0.034-0.674,0.182-0.674,0.182L70.141,33.585z"/>
				<path fill="#F1F2F2" d="M66.236,35.11c0,0-0.049,0.047-0.06,0.104c-0.06,0.021-0.074-0.008-0.126,0.008
					c-0.052,0.016,0.014,0.134-0.11,0.164c-0.123,0.032-0.262,0.029-0.31,0.042c-0.049,0.012-0.135,0.053-0.135,0.053
					s-0.118,0.051-0.187,0.071c-0.069,0.021-0.54,0.129-0.54,0.129L66.236,35.11z"/>
			</g>
			<path fill="#F1F2F2" d="M66.088,35.085"/>
		</g>
	</g>
	<g opacity="0.8">
		<path fill="#004750" d="M33.148,51.443c0,0-0.094,0.058-0.277,0.168c-0.176,0.104-0.429,0.246-0.761,0.421
			c-0.665,0.346-1.645,0.813-2.951,1.274c-1.306,0.453-2.945,0.907-4.91,1.069c-1.95,0.168-4.272-0.015-6.575-0.946
			c-2.315-0.904-4.448-2.641-6.09-4.791c-0.395-0.539-0.821-1.101-1.163-1.728c-0.393-0.688-0.667-1.353-0.886-2.089
			c-0.438-1.455-0.523-3.02-0.332-4.514c0.382-3.015,1.667-5.751,3.126-8.313c1.478-2.565,3.198-4.981,4.93-7.357
			c1.731-2.375,3.5-4.703,5.055-7.081c0.772-1.189,1.494-2.392,2.058-3.623c0.557-1.224,0.981-2.5,0.943-3.695
			c-0.021-1.203-0.584-2.277-1.427-3.176c-0.839-0.891-1.891-1.592-2.964-2.176c-2.163-1.164-4.426-1.903-6.523-2.491
			c-4.218-1.147-7.857-1.661-10.395-1.99C1.463,0.09,0,0.001,0,0.001s1.466,0.02,4.027,0.214c2.557,0.209,6.221,0.546,10.545,1.503
			c2.155,0.497,4.488,1.131,6.826,2.246c1.161,0.564,2.334,1.254,3.361,2.244c0.509,0.496,0.975,1.074,1.332,1.744
			c0.362,0.674,0.582,1.442,0.632,2.22c0.087,1.569-0.385,3.027-0.945,4.381c-0.576,1.359-1.295,2.639-2.056,3.892
			c-1.53,2.5-3.241,4.895-4.89,7.307c-1.649,2.409-3.26,4.828-4.589,7.307c-1.318,2.468-2.383,5.036-2.61,7.511
			c-0.119,1.232-0.006,2.422,0.353,3.492c0.168,0.524,0.421,1.068,0.683,1.494c0.289,0.504,0.657,0.947,1.021,1.413
			c1.478,1.794,3.229,3.091,5.046,3.728c1.809,0.656,3.624,0.748,5.214,0.555c1.595-0.188,2.971-0.613,4.069-1.04
			c1.1-0.433,1.928-0.862,2.47-1.171c0.271-0.154,0.473-0.277,0.6-0.357c0.118-0.078,0.179-0.117,0.179-0.117L33.148,51.443z"/>
	</g>
</g>
</svg>
