<?xml version="1.0" encoding="utf-8"?>
<!-- Generator: Adobe Illustrator 16.0.0, SVG Export Plug-In . SVG Version: 6.00 Build 0)  -->
<!DOCTYPE svg PUBLIC "-//W3C//DTD SVG 1.1//EN" "http://www.w3.org/Graphics/SVG/1.1/DTD/svg11.dtd">
<svg version="1.1" id="Layer_1" xmlns="http://www.w3.org/2000/svg" xmlns:xlink="http://www.w3.org/1999/xlink" x="0px" y="0px"
	 width="35.999px" height="30.873px" viewBox="25.939 18.243 35.999 30.873" enable-background="new 25.939 18.243 35.999 30.873"
	 xml:space="preserve">
<g>
	<g>
		<g>
			<path d="M58.168,44.802c0.283-0.668,0.203-2.781-0.126-3.723c-0.33-0.944-1.298-3.577-2.704-5.465
				c-1.409-1.886-2.109-2.294-2.19-2.341c-0.08-0.049-0.131-0.103-0.146-0.219c-0.018-0.115-0.021-0.278,0.053-0.365
				c0.072-0.087,0.213-0.128,0.468-0.278c0.253-0.15,0.058-0.483,0.058-0.483s-0.239-0.313-0.549-0.245
				c-0.311,0.068-0.436,0.133-0.572,0.127c-0.135-0.006-0.307-0.104-0.422-0.181c-0.115-0.077-0.144-0.141-0.147-0.219
				c-0.003-0.078-0.028-0.747-1.227-2.717c-1.196-1.97-3.447-4.102-4.265-4.855c-0.816-0.754-3.028-2.034-3.908-2.25
				c-0.878-0.215-1.427-0.346-1.766-0.192c-0.336,0.152-0.755,1.032-0.832,1.343c-0.076,0.312,0.172,0.814,0.351,1.265
				s0.411,1.167,0.403,1.467c-0.008,0.299-0.007,0.886-0.028,1.115c-0.023,0.229-0.13,0.803-0.117,1.192
				c0.012,0.389,0.003,0.491,0.02,0.65s0.216,0.61,0.216,0.61s-1.114,0.386-1.58,0.93c-0.465,0.541-0.541,0.833-0.632,0.957
				c-0.09,0.123-0.413,0.517-0.327,0.779c0.088,0.264-0.186,0.646-0.136,0.944c0.05,0.3,0.381,0.669,0.501,0.834
				c0.118,0.168,0.187,0.64,0.272,0.828c0.085,0.189,0.5,0.451,0.626,0.658c0.125,0.206,0.205,0.313,0.374,0.459
				c0.167,0.146,0.481,0.115,0.788,0.372c0.308,0.257,0.578,0.173,0.642,0.217c0.066,0.043,0.074,0.156,0.217,0.246
				c0.143,0.088,0.839,0.052,0.839,0.052s-0.444,0.409-0.434,0.55c0.012,0.139,0.129,0.21,0.138,0.274
				c0.01,0.066-0.24,0.184-0.143,0.523c0.096,0.34-0.121,0.514-0.063,0.704c0.058,0.189,0.127,0.301,0.273,0.498
				c0.146,0.198,0.187,0.607,0.338,0.771c0.152,0.163,0.619,0.48,0.728,0.651c0.108,0.168,0.309,0.59,0.6,0.795
				c0.292,0.205,0.86,0.259,1.09,0.468c0.231,0.206,0.84,0.235,1.023,0.252c0.185,0.017,0.543,0.14,1.393,0.169
				c0.853,0.029,1.917-0.433,1.917-0.433s0.366,0.388,0.526,0.489c0.159,0.104,0.274,0.156,0.683,0.391s1.083,0.504,1.343,0.623
				c0.259,0.12,0.886,0.463,1.209,0.634c0.325,0.169,0.955,0.73,1.335,1.104c0.376,0.373,0.769,0.819,1.146,0.952
				c0.377,0.136,1.562,0.39,1.921,0.271C57.704,45.885,57.885,45.471,58.168,44.802z"/>
			<path d="M53.644,32.141c0,0,0.463-0.023,0.598-0.009c0.133,0.014,2.037,0.641,2.169,0.66c0.131,0.021,0.275-0.013,0.346,0.022
				c0.07,0.034,0.157,0.168,0.146,0.219c-0.01,0.048-0.156,0.225-0.189,0.174c-0.032-0.051-0.063-0.119,0-0.191
				c0.064-0.073,0.015-0.088-0.031-0.117c-0.043-0.029-0.2-0.025-0.264-0.044c-0.064-0.018-2.06-0.619-2.188-0.636
				c-0.128-0.016-0.584,0.029-0.584,0.029v-0.107H53.644z"/>
			<path d="M53.429,31.808c0,0,0.154-0.683,0.164-1.019c0.008-0.337-0.353-1.643-0.411-1.761c-0.057-0.119-0.114-0.255-0.171-0.297
				c-0.055-0.042-0.157-0.133-0.255-0.131c-0.097,0.002-0.105,0.034-0.071,0.065c0.033,0.03,0.048,0.067,0.083,0.07
				c0.034,0.003,0.204-0.048,0.328,0.283c0.134,0.282,0.414,1.554,0.415,1.742c-0.001,0.187-0.185,0.963-0.185,0.963L53.429,31.808z
				"/>
		</g>
		<g>
			<g>
				<path fill="#F7941E" d="M46.583,26.653c0.023,0.078,0.455,0.888,0.591,1.046c0.136,0.156,0.93,0.925,1.049,1.041
					C48.34,28.855,49.84,30.1,49.84,30.1l1.585,1.478c0,0-0.335-1.145-0.421-1.304c-0.083-0.158-1.323-1.688-1.517-1.905
					c-0.193-0.218-1.243-1.363-1.429-1.505c-0.188-0.14-0.672-0.252-0.791-0.285c-0.118-0.031-0.596-0.243-0.635-0.223
					C46.596,26.375,46.559,26.576,46.583,26.653z"/>
				<path fill="#F7941E" d="M46.25,27.012c0.021-0.054-0.178-0.246-0.271-0.4c-0.093-0.156-0.094-0.26-0.298-0.443
					c-0.204-0.182-0.579-0.392-0.72-0.452c-0.141-0.063-0.689-0.229-1.057-0.271C43.539,25.402,42.54,25.4,42.54,25.4
					s0.888,0.299,0.939,0.368s0.074,0.219,0.278,0.31c0.205,0.093,0.567,0.25,0.984,0.403S46.227,27.065,46.25,27.012z"/>
				<path fill="#F7941E" d="M47.408,28.472c0,0-0.4-0.473-0.662-0.725c-0.261-0.25-0.619-0.391-0.884-0.492
					c-0.264-0.103-1.798-0.604-2.108-0.672s-0.64-0.13-0.784-0.113c-0.144,0.017-0.396,0.12-0.453,0.248
					c-0.056,0.13-0.04,0.306,0.119,0.458c0.161,0.151,0.279,0.201,0.573,0.3C43.505,27.575,47.408,28.472,47.408,28.472z"/>
				<path fill="#F7941E" d="M47.778,30.515c0.236,0.079,3.574,1.092,3.574,1.092s-1.947-1.412-2.101-1.529
					c-0.152-0.115-0.984-0.913-1.325-1.067c-0.339-0.154-1.384-0.352-1.384-0.352s-2.922-0.68-3.452-0.81
					c-0.53-0.129-0.944,0.09-1.036,0.29c-0.091,0.201-0.035,0.547,0.46,0.681c0.494,0.135,2.384,0.591,2.715,0.703
					C45.563,29.637,47.544,30.436,47.778,30.515z"/>
				<path fill="#F7941E" d="M45.649,32.284c0.21-0.011,4.221-0.169,4.221-0.169s-0.26-0.298-0.4-0.333
					c-0.139-0.034-0.956-0.063-1.272-0.115s-2.17-0.727-2.17-0.727s-0.155,0.109-0.325,0.197c-0.171,0.089-0.438,0.101-0.438,0.101
					s-0.35-0.014-0.585,0.018c-0.239,0.033-0.479,0.123-0.565,0.15c-0.087,0.027-0.533,0.186-0.638,0.248s-0.2,0.085-0.162,0.237
					c0.038,0.153,0.182,0.205,0.396,0.248c0.216,0.043,1.057,0.119,1.266,0.136C45.186,32.29,45.438,32.295,45.649,32.284z"/>
				<path fill="#F7941E" d="M47.661,33.255c0.262-0.088,1.361-0.375,1.631-0.479s0.581-0.377,0.581-0.4s-0.226-0.09-0.485-0.072
					s-1.274,0.096-1.274,0.096l-1.01,0.097l-1.205,0.155l-1.072,0.487c0,0-1.006,0.351-1.203,0.434
					c-0.197,0.084-1.318,0.633-1.453,0.706c-0.135,0.075-0.268,0.184-0.28,0.232c-0.014,0.049,0.113,0.164,0.121,0.215
					c0.009,0.05-0.021,0.185,0.003,0.278c0.025,0.092,0.097,0.148,0.169,0.214c0.071,0.065,0.304,0.182,0.376,0.149
					c0.074-0.031,1.949-0.939,2.592-1.201C45.791,33.902,47.399,33.343,47.661,33.255z"/>
				<path fill="#F7941E" d="M44.073,35.195c0.28-0.155,4.674-2.138,4.674-2.138l-3.205,1.145c0,0-2.356,1.021-2.482,1.091
					c-0.127,0.068-0.127,0.078-0.146,0.16c-0.016,0.082,0.031,0.185,0.06,0.222c0.027,0.036,0.088,0.08,0.147,0.082
					s0.563-0.254,0.563-0.254S43.794,35.349,44.073,35.195z"/>
				<path fill="#F7941E" d="M42.935,33.472c0.415-0.222,1.384-0.538,1.384-0.538l0.975-0.327c0,0-0.131-0.077-0.251-0.097
					c-0.116-0.018-1.118-0.138-1.392-0.121c-0.272,0.019-0.592,0.144-0.592,0.144l-1.038,0.37c0,0-1.394,0.483-1.493,0.548
					c-0.1,0.063-0.102,0.097-0.089,0.139c0.012,0.042,0.128,0.102,0.177,0.158c0.048,0.057,0.043,0.213,0.066,0.271
					c0.025,0.057,0.139,0.103,0.139,0.103s0.26,0.087,0.332,0.15c0.073,0.063,0.241,0.268,0.296,0.268
					c0.056,0.002,0.571-0.449,0.571-0.449S42.521,33.694,42.935,33.472z"/>
				<path fill="#F7941E" d="M42.773,32.383c0.119-0.036,0.278-0.031,0.318-0.072c0.041-0.04,0.041-0.083,0.035-0.117
					c-0.004-0.034-0.049-0.092-0.147-0.152c-0.101-0.06-0.226-0.098-0.479-0.129c-0.251-0.031-1.125-0.007-1.325,0.011
					c-0.201,0.018-0.873,0.143-0.967,0.168c-0.095,0.024-0.262,0.061-0.301,0.1c-0.039,0.037,0.012,0.164,0.021,0.201
					c0.01,0.036,0.413,0.866,0.542,0.871c0.13,0.005,0.687-0.292,1.175-0.476C42.133,32.604,42.653,32.419,42.773,32.383z"/>
				<path fill="#F7941E" d="M42.488,31.656c0.167-0.01,0.685-0.062,0.832-0.099c0.148-0.034,0.93-0.326,0.93-0.326
					s-3.22-0.367-3.455-0.384c-0.235-0.016-0.496-0.016-0.613,0.013c-0.117,0.026-0.318,0.115-0.354,0.226
					c-0.033,0.109,0.035,0.633,0.035,0.633s0.028,0.133,0.067,0.165c0.037,0.033,0.227,0.038,0.294,0.026
					c0.065-0.011,0.562-0.151,0.729-0.179c0.166-0.03,0.623-0.075,0.95-0.091C42.228,31.622,42.322,31.665,42.488,31.656z"/>
				<path fill="#F7941E" d="M42.954,30.915l1.063,0.144c0,0,0.659,0.06,0.86,0.051c0.199-0.012,0.473-0.042,0.583-0.088
					c0.111-0.048,0.239-0.13,0.218-0.189c-0.021-0.063-1.536-0.46-1.811-0.536c-0.275-0.076-1.874-0.401-2.046-0.407
					c-0.172-0.007-0.392,0.048-0.491,0.157c-0.101,0.108-0.004,0.226-0.062,0.285c-0.057,0.061-0.323,0.078-0.474,0.149
					c-0.149,0.072-0.31,0.18-0.227,0.211c0.085,0.031,1.002,0.04,1.255,0.053C42.079,30.756,42.954,30.915,42.954,30.915z"/>
				<path fill="#F7941E" d="M53.874,37.111c0.055,0.143,0.414,1.08,0.503,1.254c0.088,0.175,0.703,0.913,0.771,0.975
					c0.069,0.061,0.308,0.156,0.351,0.145c0.044-0.014,0.095-0.432,0.13-0.522c0.034-0.093,0.197-0.457,0.155-0.654
					c-0.041-0.198-0.655-1.515-0.774-1.759c-0.119-0.246-1.031-1.903-1.152-2.049s-1.149-1.019-1.149-1.019l0.657,1.841
					C53.365,35.319,53.821,36.972,53.874,37.111z"/>
				<path fill="#F7941E" d="M54.879,41.697c0.169-0.251,0.313-0.686,0.328-0.81c0.016-0.122,0.012-0.477-0.064-0.709
					s-0.187-0.293-0.299-0.441c-0.112-0.15-0.199-0.385-0.27-0.402c-0.07-0.019-0.235,0.895-0.313,1.239
					c-0.081,0.348-0.123,0.662-0.145,0.843c-0.02,0.18,0.125,0.28,0.17,0.353s-0.153,0.793-0.153,0.793S54.711,41.948,54.879,41.697
					z"/>
				<path fill="#F7941E" d="M53.575,41.127c0.108-0.229,0.466-1.47,0.512-1.692c0.046-0.224,0.105-0.525-0.01-0.834
					c-0.117-0.308-0.39-0.83-0.39-0.83s-1.318,2.932-1.385,3.172c-0.065,0.24-0.082,0.342-0.013,0.529
					c0.068,0.185,0.247,0.3,0.421,0.34c0.17,0.04,0.427-0.056,0.528-0.134C53.341,41.598,53.466,41.357,53.575,41.127z"/>
				<path fill="#F7941E" d="M52.982,38.194c0,0,0.397-0.76,0.432-1.059c0.034-0.298-0.334-1.277-0.369-1.44
					s-0.409-2.188-0.409-2.188s-0.865,2.651-0.917,2.841c-0.052,0.191-0.354,1.882-0.427,2.151
					c-0.073,0.271-0.687,1.701-0.833,2.085c-0.146,0.385,0.191,0.62,0.459,0.682c0.27,0.061,0.745-0.068,0.916-0.471
					C52.006,40.394,52.982,38.194,52.982,38.194z"/>
				<path fill="#F7941E" d="M47.643,38.3c0.142,0.113,0.221,0.067,0.349,0.039c0.127-0.028,0.558-0.211,0.637-0.249
					c0.079-0.037,0.316-0.133,0.489-0.26c0.174-0.129,0.362-0.352,0.362-0.352s0.169-0.156,0.362-0.211s0.401-0.086,0.401-0.086
					s0.362-1.537,0.487-1.761c0.129-0.227,0.575-0.749,0.621-0.854c0.045-0.105-0.126-0.439-0.126-0.439s-2.507,2.381-2.641,2.505
					c-0.135,0.123-0.279,0.281-0.383,0.419c-0.104,0.139-0.514,0.701-0.594,0.859C47.53,38.068,47.502,38.187,47.643,38.3z"/>
				<path fill="#F7941E" d="M47.19,36.643l1.147-0.376l0.869-0.653l0.692-0.567c0,0,0.675-0.581,0.844-0.73
					c0.171-0.15,0.231-0.328,0.207-0.343s-0.498,0.02-0.766,0.125c-0.269,0.106-1.217,0.617-1.464,0.727
					c-0.246,0.111-1.783,0.776-2.438,1.02c-0.654,0.244-2.72,0.871-2.796,0.897c-0.075,0.027-0.088,0.237-0.06,0.32
					c0.029,0.083,0.047,0.159,0.131,0.229c0.084,0.067,0.247,0.13,0.295,0.164c0.049,0.034,0.099,0.181,0.158,0.198
					c0.063,0.021,0.253,0.003,0.412-0.037c0.157-0.039,1.399-0.411,1.604-0.484C46.231,37.057,47.19,36.643,47.19,36.643z"/>
				<path fill="#F7941E" d="M49.565,34.269c0,0-4.684,1.554-5.011,1.637s-0.557,0.061-0.557,0.061s-0.568,0.163-0.602,0.199
					c-0.034,0.037-0.021,0.101,0.002,0.14c0.021,0.038,0.104,0.129,0.203,0.165s0.109,0.043,0.255,0.005
					c0.148-0.038,2.614-0.896,2.614-0.896L49.565,34.269z"/>
				<path fill="#F7941E" d="M46.807,38.084c0,0,0.321-0.124,0.499-0.282c0.18-0.157,0.636-0.847,0.684-0.929
					c0.049-0.083,0.043-0.21,0.043-0.21l-0.918,0.41c0,0-0.904,0.413-1.383,0.54c-0.48,0.127-1.195,0.203-1.195,0.203
					s-0.783,0.055-0.813,0.089c-0.031,0.035,0.09,0.259,0.114,0.34c0.027,0.082-0.032,0.293-0.032,0.293s-0.019,0.098,0.029,0.146
					c0.047,0.05,0.217,0.138,0.25,0.2c0.032,0.062,0.029,0.169,0.066,0.2c0.038,0.033,0.077,0.051,0.201,0.025
					c0.125-0.023,1.455-0.603,1.455-0.603L46.807,38.084z"/>
				<path fill="#F7941E" d="M46.362,39.602c0.135-0.114,0.669-0.638,0.785-0.812c0.113-0.175,0.146-0.273,0.142-0.369
					c-0.007-0.098-0.042-0.156-0.076-0.182c-0.034-0.022-0.079-0.049-0.148-0.048c-0.065,0.002-0.154,0.102-0.261,0.154
					c-0.108,0.053-0.612,0.267-1.093,0.46c-0.479,0.194-1.122,0.365-1.191,0.447c-0.07,0.084,0.582,0.816,0.615,0.844
					c0.034,0.026,0.141,0.132,0.203,0.13s0.2-0.083,0.282-0.126C45.7,40.058,46.226,39.717,46.362,39.602z"/>
				<path fill="#F7941E" d="M47.288,40.464c0.119-0.154,1.604-2.355,1.604-2.355s-0.767,0.314-0.891,0.383
					c-0.123,0.07-0.481,0.359-0.587,0.457c-0.106,0.098-0.117,0.181-0.324,0.372c-0.206,0.189-0.523,0.446-0.651,0.532
					s-0.567,0.312-0.617,0.346c-0.052,0.034-0.156,0.153-0.144,0.197c0.012,0.042,0.138,0.137,0.138,0.137s0.519,0.349,0.654,0.391
					c0.139,0.043,0.35-0.029,0.447-0.087C47.017,40.778,47.168,40.618,47.288,40.464z"/>
				<path fill="#F7941E" d="M49.671,38.887c0.081-0.213,0.538-1.379,0.484-1.427c-0.051-0.05-0.215-0.018-0.329,0.022
					c-0.114,0.042-0.308,0.191-0.434,0.309c-0.129,0.118-0.451,0.562-0.451,0.562l-0.467,0.739c0,0-0.34,0.633-0.473,0.797
					c-0.133,0.163-0.661,0.733-0.677,0.804s0.194,0.034,0.357-0.017c0.164-0.05,0.339-0.205,0.437-0.205
					c0.098-0.001,0.165,0.128,0.34,0.13s0.361-0.103,0.455-0.212C49.009,40.281,49.593,39.102,49.671,38.887z"/>
			</g>
			<g>
				<path fill="#F7941E" d="M46.021,25.491c0.25,0.123,0.402,0.278,0.344,0.348c-0.06,0.068-0.309,0.024-0.557-0.099
					c-0.25-0.123-0.402-0.279-0.344-0.348C45.523,25.323,45.772,25.367,46.021,25.491z"/>
				<path fill="#F7941E" d="M46.785,25.276c0.066,0.054,0.035,0.078,0.089,0.13c0.051,0.052,0.428,0.244,0.251,0.374
					c-0.177,0.129-0.832-0.286-0.777-0.335c0.055-0.047,0.101-0.029,0.151-0.058c0.05-0.028,0.011-0.089,0.075-0.126
					C46.635,25.225,46.719,25.222,46.785,25.276z"/>
				<path fill="#F7941E" d="M43.009,24.202c0.176-0.073,0.773,0.098,0.827,0.261s-0.14,0.265-0.212,0.299
					c-0.072,0.033-0.291,0.078-0.404,0.053c-0.113-0.027-0.264-0.127-0.318-0.192c-0.054-0.067-0.078-0.155-0.084-0.208
					C42.811,24.359,42.832,24.275,43.009,24.202z"/>
				<path fill="#F1F2F2" d="M48.967,26.701c0.04-0.018,0.167,0.09,0.243,0.184c0.076,0.092,0.143,0.209,0.099,0.232
					c-0.045,0.023-0.147-0.103-0.189-0.145c-0.043-0.042-0.081-0.125-0.105-0.156C48.986,26.783,48.928,26.719,48.967,26.701z"/>
				<path fill="#F1F2F2" d="M47.624,25.281c0.041-0.019,0.167,0.091,0.242,0.183c0.075,0.093,0.143,0.21,0.099,0.233
					c-0.046,0.023-0.147-0.104-0.189-0.146c-0.042-0.041-0.082-0.124-0.107-0.157C47.643,25.362,47.583,25.299,47.624,25.281z"/>
				<path fill="#F1F2F2" d="M46.31,24.134c0.036-0.023,0.189,0.065,0.285,0.145c0.098,0.079,0.193,0.185,0.156,0.212
					c-0.037,0.03-0.17-0.078-0.224-0.112c-0.052-0.035-0.111-0.111-0.144-0.139C46.35,24.211,46.277,24.157,46.31,24.134z"/>
				<path fill="#F1F2F2" d="M43.298,22.088c0.029-0.026,0.197,0.045,0.309,0.112c0.112,0.069,0.225,0.162,0.193,0.194
					c-0.033,0.033-0.183-0.061-0.242-0.09c-0.058-0.027-0.131-0.097-0.168-0.12C43.351,22.16,43.269,22.115,43.298,22.088z"/>
				<path fill="#F1F2F2" d="M42.492,22.055c0.098-0.088,0.363-0.067,0.513-0.005c0.151,0.063,0.271,0.183,0.162,0.285
					s-0.312,0.016-0.4,0.001c-0.089-0.016-0.153-0.114-0.203-0.137C42.515,22.176,42.394,22.143,42.492,22.055z"/>
				<path fill="#F1F2F2" d="M42.141,22.462c-0.098,0.082-0.328,0.068-0.454,0.017c-0.123-0.053-0.215-0.156-0.106-0.25
					c0.109-0.094,0.276-0.021,0.353-0.011c0.076,0.013,0.122,0.099,0.162,0.118C42.136,22.354,42.237,22.381,42.141,22.462z"/>
				<path fill="#F1F2F2" d="M46.113,24.207c0.059-0.032,0.222,0.057,0.314,0.14c0.092,0.084,0.17,0.197,0.103,0.236
					c-0.065,0.037-0.19-0.077-0.245-0.111c-0.056-0.034-0.096-0.118-0.127-0.148C46.128,24.294,46.054,24.239,46.113,24.207z"/>
				<path fill="#F1F2F2" d="M47.388,25.414c0.033-0.021,0.192,0.102,0.295,0.205c0.104,0.104,0.205,0.234,0.167,0.261
					c-0.036,0.025-0.176-0.116-0.23-0.162c-0.055-0.047-0.117-0.14-0.153-0.176C47.432,25.506,47.353,25.434,47.388,25.414z"/>
				<path fill="#F1F2F2" d="M41.252,22.875c0,0,0.176,0.006,0.234,0.021c0.06,0.016,0.066,0.1,0.066,0.1s0.013,0.102-0.003,0.138
					c-0.016,0.035-0.078,0.051-0.129,0.051c-0.05-0.002-0.199-0.023-0.25-0.049c-0.05-0.024-0.232-0.104-0.183-0.186
					C41.04,22.868,41.252,22.875,41.252,22.875z"/>
				<path fill="#F1F2F2" d="M41.972,24.822c0,0,0.176,0.005,0.234,0.021c0.06,0.017,0.067,0.1,0.067,0.1s0.011,0.102-0.004,0.138
					c-0.015,0.035-0.078,0.051-0.129,0.051s-0.199-0.023-0.249-0.048c-0.05-0.026-0.232-0.104-0.183-0.186
					C41.76,24.815,41.972,24.822,41.972,24.822z"/>
				<path fill="#F1F2F2" d="M42.216,25.614c0,0,0.126,0.013,0.171,0.027c0.043,0.017,0.055,0.084,0.055,0.084
					s0.019,0.082,0.011,0.111c-0.009,0.029-0.053,0.037-0.089,0.033c-0.035-0.002-0.144-0.027-0.183-0.051
					c-0.037-0.023-0.175-0.096-0.146-0.159C42.065,25.597,42.216,25.614,42.216,25.614z"/>
				<path fill="#F1F2F2" d="M41.019,28.333c0,0,0.127,0.013,0.169,0.028c0.045,0.016,0.058,0.083,0.058,0.083
					s0.016,0.084,0.009,0.112c-0.008,0.028-0.052,0.037-0.087,0.033c-0.035-0.002-0.145-0.028-0.183-0.051
					c-0.037-0.022-0.176-0.097-0.147-0.16C40.866,28.316,41.019,28.333,41.019,28.333z"/>
				<path fill="#F1F2F2" d="M41.52,29.507c0,0,0.083,0.018,0.112,0.033c0.029,0.014,0.044,0.066,0.044,0.066
					s0.021,0.064,0.019,0.085s-0.027,0.025-0.051,0.021s-0.097-0.031-0.123-0.051c-0.027-0.02-0.123-0.084-0.111-0.13
					S41.52,29.507,41.52,29.507z"/>
				<path fill="#F1F2F2" d="M40.296,29.889c0,0,0.077-0.046,0.111-0.057c0.034-0.009,0.095,0.021,0.095,0.021
					s0.074,0.037,0.093,0.055c0.018,0.018,0.001,0.041-0.019,0.054c-0.022,0.014-0.101,0.045-0.138,0.048
					c-0.038,0.005-0.167,0.022-0.202-0.021C40.202,29.941,40.296,29.889,40.296,29.889z"/>
				<path fill="#F1F2F2" d="M39.486,30.05c0,0,0.022-0.053,0.038-0.069c0.017-0.019,0.071-0.019,0.071-0.019
					s0.065-0.002,0.088,0.003c0.021,0.005,0.023,0.025,0.019,0.039c-0.006,0.016-0.037,0.06-0.058,0.075
					c-0.022,0.014-0.093,0.067-0.14,0.052C39.458,30.113,39.486,30.05,39.486,30.05z"/>
				<path fill="#F1F2F2" d="M39.382,30.596c0,0-0.014,0.054-0.027,0.072c-0.014,0.02-0.067,0.025-0.067,0.025
					S39.221,30.7,39.2,30.697c-0.023-0.003-0.027-0.021-0.023-0.038c0.003-0.016,0.027-0.062,0.046-0.078s0.079-0.076,0.13-0.064
					C39.4,30.53,39.382,30.596,39.382,30.596z"/>
				<path fill="#F1F2F2" d="M38.69,31.375c0,0,0.021,0.055,0.021,0.074c0,0.022-0.043,0.047-0.043,0.047s-0.054,0.03-0.075,0.035
					c-0.022,0.005-0.038-0.012-0.044-0.025c-0.006-0.016-0.014-0.064-0.008-0.086c0.007-0.021,0.025-0.096,0.075-0.102
					S38.69,31.375,38.69,31.375z"/>
				<path fill="#F1F2F2" d="M38.671,32.067c0,0,0.021,0.053,0.021,0.074s-0.044,0.046-0.044,0.046s-0.054,0.029-0.075,0.034
					c-0.021,0.006-0.037-0.01-0.044-0.024c-0.007-0.017-0.015-0.064-0.009-0.087c0.008-0.02,0.025-0.095,0.076-0.102
					C38.646,32.003,38.671,32.067,38.671,32.067z"/>
				<path fill="#F1F2F2" d="M39.277,32.497c0,0,0.058,0.035,0.074,0.053s-0.003,0.057-0.003,0.057s-0.021,0.047-0.035,0.062
					c-0.015,0.014-0.038,0.008-0.055-0.002c-0.018-0.008-0.062-0.046-0.07-0.066c-0.013-0.021-0.054-0.09-0.016-0.117
					C39.21,32.454,39.277,32.497,39.277,32.497z"/>
				<path fill="#F1F2F2" d="M39.913,33.308c0,0,0.046,0.028,0.06,0.042c0.014,0.016-0.002,0.047-0.002,0.047
					s-0.018,0.039-0.029,0.051c-0.01,0.011-0.031,0.006-0.044,0c-0.014-0.009-0.05-0.039-0.06-0.057
					c-0.008-0.017-0.04-0.072-0.012-0.095C39.856,33.273,39.913,33.308,39.913,33.308z"/>
				<path fill="#F1F2F2" d="M40.028,33.944c0,0,0.046,0.027,0.06,0.042c0.013,0.015-0.001,0.047-0.001,0.047
					s-0.018,0.039-0.03,0.048c-0.011,0.012-0.03,0.008-0.044,0s-0.05-0.037-0.058-0.055c-0.01-0.017-0.043-0.073-0.014-0.095
					C39.973,33.909,40.028,33.944,40.028,33.944z"/>
				<path fill="#F1F2F2" d="M40.682,34.694c0,0,0.07,0.013,0.096,0.024c0.023,0.012,0.029,0.053,0.029,0.053s0.01,0.051,0.004,0.067
					c-0.005,0.018-0.029,0.02-0.051,0.017c-0.02-0.004-0.081-0.023-0.102-0.039c-0.02-0.017-0.095-0.067-0.078-0.104
					C40.596,34.677,40.682,34.694,40.682,34.694z"/>
				<path fill="#F1F2F2" d="M41.834,35.455c0,0,0.076-0.064,0.111-0.082c0.035-0.017,0.092,0.017,0.092,0.017s0.07,0.04,0.087,0.061
					c0.017,0.021-0.001,0.052-0.022,0.072c-0.022,0.019-0.099,0.065-0.137,0.075c-0.037,0.008-0.165,0.046-0.195-0.008
					C41.738,35.533,41.834,35.455,41.834,35.455z"/>
				<path fill="#F1F2F2" d="M41.404,35.801c0,0-0.007,0.055-0.019,0.075c-0.01,0.02-0.063,0.03-0.063,0.03s-0.066,0.015-0.088,0.013
					c-0.022-0.001-0.029-0.02-0.029-0.034c0.001-0.017,0.018-0.063,0.035-0.083c0.017-0.019,0.072-0.083,0.122-0.076
					S41.404,35.801,41.404,35.801z"/>
				<path fill="#F1F2F2" d="M39.462,34.308c0,0,0.089,0.021,0.12,0.036c0.03,0.016,0.038,0.07,0.038,0.07s0.012,0.065,0.007,0.088
					c-0.006,0.021-0.036,0.024-0.063,0.021c-0.026-0.007-0.102-0.035-0.131-0.055c-0.026-0.02-0.124-0.088-0.102-0.136
					S39.462,34.308,39.462,34.308z"/>
				<path fill="#F1F2F2" d="M40.851,35.31c0,0,0.09,0.021,0.119,0.034c0.031,0.016,0.041,0.07,0.041,0.07s0.011,0.067,0.005,0.09
					c-0.005,0.021-0.036,0.024-0.062,0.02c-0.026-0.004-0.103-0.032-0.129-0.053c-0.027-0.021-0.124-0.089-0.104-0.138
					C40.743,35.286,40.851,35.31,40.851,35.31z"/>
				<path fill="#F1F2F2" d="M38.685,32.922c0,0,0.047,0.034,0.061,0.053c0.012,0.016-0.002,0.056-0.002,0.056
					s-0.018,0.048-0.029,0.062s-0.031,0.008-0.045-0.001c-0.015-0.01-0.048-0.046-0.057-0.067c-0.009-0.021-0.042-0.088-0.012-0.116
					C38.63,32.88,38.685,32.922,38.685,32.922z"/>
				<path fill="#F1F2F2" d="M39.143,33.51c0,0,0.047,0.055,0.06,0.082s-0.003,0.09-0.003,0.09s-0.02,0.076-0.031,0.099
					c-0.011,0.021-0.031,0.014-0.044,0c-0.014-0.016-0.049-0.074-0.057-0.107s-0.039-0.141-0.008-0.186
					C39.09,33.443,39.143,33.51,39.143,33.51z"/>
				<path fill="#F1F2F2" d="M41.713,36.025c0,0,0.084-0.008,0.121-0.003c0.041,0.005,0.104,0.043,0.104,0.043
					s0.082,0.048,0.102,0.064c0.02,0.018,0.003,0.027-0.021,0.03c-0.023,0.002-0.109-0.002-0.149-0.01
					c-0.042-0.009-0.185-0.037-0.223-0.077C41.61,36.032,41.713,36.025,41.713,36.025z"/>
				<path fill="#F1F2F2" d="M39.301,31.109c0,0,0.026,0.063,0.026,0.089c0,0.024-0.05,0.056-0.05,0.056s-0.063,0.038-0.089,0.045
					c-0.025,0.006-0.044-0.012-0.054-0.029c-0.008-0.017-0.019-0.076-0.012-0.102c0.009-0.026,0.026-0.117,0.087-0.125
					C39.27,31.033,39.301,31.109,39.301,31.109z"/>
				<path fill="#F1F2F2" d="M41.978,26.332c0,0-0.134,0.03-0.187,0.029s-0.109-0.065-0.109-0.065s-0.073-0.078-0.082-0.108
					c-0.011-0.031,0.026-0.055,0.065-0.063c0.037-0.008,0.162-0.02,0.214-0.01c0.054,0.011,0.236,0.037,0.25,0.111
					C42.139,26.299,41.978,26.332,41.978,26.332z"/>
				<path fill="#F1F2F2" d="M44.977,24.564c0,0-0.275-0.029-0.361-0.06c-0.087-0.03-0.065-0.151-0.065-0.151
					s0.022-0.149,0.063-0.199c0.038-0.05,0.144-0.063,0.224-0.056s0.307,0.059,0.375,0.102c0.069,0.044,0.325,0.183,0.214,0.293
					C45.31,24.604,44.977,24.564,44.977,24.564z"/>
				<path fill="#F1F2F2" d="M45.397,23.82c0,0,0.156,0.058,0.204,0.089c0.047,0.033,0.015,0.117,0.015,0.117
					s-0.034,0.104-0.063,0.135c-0.031,0.031-0.095,0.026-0.142,0.012c-0.047-0.016-0.172-0.081-0.206-0.121
					c-0.033-0.039-0.164-0.172-0.081-0.236C45.205,23.751,45.397,23.82,45.397,23.82z"/>
				<path fill="#F1F2F2" d="M41.509,21.537c0.016,0.002,0.1,0.013,0.125,0.024c0.021,0.013,0.029,0.058,0.006,0.07
					c-0.021,0.012-0.117-0.006-0.136-0.007c-0.018-0.001-0.056-0.034-0.058-0.051C41.443,21.558,41.493,21.535,41.509,21.537z"/>
				<path fill="#F1F2F2" d="M41.187,21.765c0.021,0.008,0.033,0.016,0.066,0.012c0.035-0.004,0.065-0.012,0.082,0.002
					c0.016,0.014,0,0.037-0.024,0.046c-0.022,0.008-0.089,0.032-0.126,0.027c-0.036-0.004-0.082-0.039-0.082-0.054
					C41.101,21.783,41.167,21.757,41.187,21.765z"/>
				<path fill="#F1F2F2" d="M41.751,22.714c0.021,0.003,0.116,0.013,0.158,0.023c0.044,0.011,0.074,0.035,0.071,0.05
					s-0.07,0.042-0.096,0.037c-0.026-0.004-0.133-0.019-0.145-0.025c-0.012-0.006-0.036-0.017-0.033-0.048
					C41.71,22.719,41.73,22.711,41.751,22.714z"/>
				<path fill="#F1F2F2" d="M40.639,22.145c0,0,0.078,0.016,0.095,0.028c0.015,0.013,0.018,0.022,0.023,0.035
					c0.005,0.014,0.007,0.034-0.009,0.044c-0.015,0.009-0.096,0.01-0.116,0.009c-0.021-0.001-0.05-0.012-0.074-0.028
					c-0.022-0.017-0.02-0.036-0.018-0.05c0-0.015,0.018-0.035,0.036-0.042C40.596,22.133,40.639,22.145,40.639,22.145z"/>
				<path fill="#F1F2F2" d="M40.568,23.708c0,0,0.083,0.032,0.1,0.052s0.018,0.032,0.022,0.05c0.004,0.017,0.004,0.043-0.013,0.053
					c-0.018,0.01-0.108-0.005-0.13-0.01c-0.023-0.004-0.056-0.022-0.08-0.048c-0.022-0.025-0.017-0.049-0.015-0.065
					c0.003-0.018,0.024-0.042,0.046-0.047C40.521,23.686,40.568,23.708,40.568,23.708z"/>
				<path fill="#F1F2F2" d="M40.884,24.307c0,0-0.101-0.016-0.126-0.033c-0.024-0.016-0.031-0.028-0.041-0.045
					c-0.013-0.018-0.021-0.044-0.007-0.059c0.015-0.014,0.113-0.019,0.14-0.019c0.024,0,0.065,0.012,0.1,0.033
					c0.035,0.02,0.037,0.046,0.041,0.063c0.004,0.02-0.009,0.049-0.03,0.06C40.94,24.318,40.884,24.307,40.884,24.307z"/>
				<path fill="#F1F2F2" d="M40.979,25c0,0-0.092-0.055-0.109-0.083c-0.019-0.029-0.02-0.045-0.025-0.068
					c-0.003-0.022-0.003-0.06,0.017-0.069s0.118,0.021,0.143,0.03c0.026,0.009,0.062,0.037,0.087,0.075
					c0.025,0.037,0.018,0.066,0.017,0.09c-0.005,0.022-0.028,0.052-0.052,0.057S40.979,25,40.979,25z"/>
				<path fill="#F1F2F2" d="M41.147,25.604c0,0-0.051-0.081-0.051-0.112s0.008-0.047,0.018-0.069s0.031-0.054,0.054-0.056
					c0.022-0.003,0.094,0.058,0.111,0.074c0.017,0.018,0.032,0.055,0.034,0.097c0.001,0.041-0.021,0.065-0.039,0.085
					c-0.016,0.019-0.054,0.036-0.078,0.033C41.171,25.653,41.147,25.604,41.147,25.604z"/>
				<path fill="#F1F2F2" d="M41.685,27.148c0,0-0.051-0.079-0.051-0.111c0-0.033,0.01-0.048,0.018-0.069
					c0.01-0.022,0.031-0.054,0.055-0.057c0.022-0.002,0.095,0.059,0.111,0.075c0.019,0.018,0.032,0.055,0.034,0.097
					c0.001,0.042-0.022,0.065-0.039,0.085c-0.016,0.02-0.055,0.037-0.079,0.034C41.71,27.198,41.685,27.148,41.685,27.148z"/>
				<path fill="#F1F2F2" d="M40.925,27.701c0,0-0.049-0.067-0.049-0.096c0-0.026,0.007-0.039,0.014-0.058
					c0.008-0.02,0.027-0.046,0.049-0.048s0.088,0.051,0.104,0.064c0.017,0.015,0.031,0.047,0.034,0.081
					c0.001,0.036-0.02,0.056-0.034,0.072c-0.016,0.017-0.049,0.031-0.072,0.028C40.949,27.743,40.925,27.701,40.925,27.701z"/>
				<path fill="#F1F2F2" d="M40.391,29.473c0,0,0.051-0.068,0.077-0.079c0.028-0.013,0.046-0.012,0.067-0.013
					c0.024-0.002,0.06,0.003,0.07,0.02c0.012,0.016-0.015,0.091-0.021,0.111c-0.01,0.019-0.035,0.044-0.07,0.061
					c-0.036,0.017-0.066,0.009-0.091,0.003c-0.022-0.005-0.055-0.027-0.06-0.046C40.357,29.511,40.391,29.473,40.391,29.473z"/>
				<path fill="#F1F2F2" d="M41.589,27.734c0,0-0.098-0.022-0.122-0.042c-0.025-0.02-0.033-0.031-0.045-0.051
					c-0.01-0.018-0.021-0.047-0.008-0.059c0.014-0.013,0.109-0.011,0.134-0.009c0.025,0.001,0.064,0.017,0.1,0.04
					c0.034,0.023,0.037,0.05,0.042,0.069c0.005,0.019-0.007,0.048-0.026,0.057C41.645,27.751,41.589,27.734,41.589,27.734z"/>
				<path fill="#F1F2F2" d="M40.94,26.358c0,0-0.051-0.08-0.051-0.113c0-0.031,0.008-0.047,0.018-0.069s0.031-0.052,0.054-0.056
					c0.023-0.003,0.096,0.059,0.112,0.075c0.017,0.018,0.032,0.054,0.034,0.096c0.001,0.042-0.022,0.065-0.039,0.085
					s-0.055,0.037-0.079,0.034C40.967,26.407,40.94,26.358,40.94,26.358z"/>
				<path fill="#F1F2F2" d="M41.11,26.794c0,0,0.005,0.089-0.013,0.117c-0.017,0.03-0.032,0.041-0.053,0.06
					c-0.021,0.018-0.058,0.041-0.08,0.035c-0.021-0.005-0.056-0.082-0.063-0.103s0-0.06,0.02-0.099s0.054-0.055,0.078-0.066
					c0.025-0.013,0.07-0.018,0.091-0.008C41.112,26.741,41.11,26.794,41.11,26.794z"/>
				<path fill="#F1F2F2" d="M40.521,22.465c0.005-0.009,0.029-0.014,0.045-0.011c0.018,0.003,0.133,0.063,0.13,0.072
					c-0.004,0.009-0.05,0.01-0.062,0.007c-0.013-0.004-0.071-0.02-0.082-0.025C40.541,22.502,40.52,22.473,40.521,22.465z"/>
				<path fill="#F1F2F2" d="M40.318,22.907c0,0,0.123,0.031,0.149,0.052s0.057,0.041,0.051,0.055
					c-0.005,0.015-0.026,0.069-0.06,0.073c-0.035,0.003-0.096-0.034-0.096-0.034s-0.063-0.006-0.086-0.023
					c-0.023-0.017,0-0.038-0.014-0.048c-0.016-0.012-0.064-0.04-0.036-0.063C40.256,22.896,40.318,22.907,40.318,22.907z"/>
				<path fill="#F1F2F2" d="M41.188,23.731c0.029-0.02,0.134-0.065,0.219-0.051c0.085,0.014,0.181,0.106,0.198,0.14
					c0.019,0.034,0.026,0.105,0,0.118c-0.024,0.015-0.086-0.017-0.117-0.009c-0.032,0.006-0.108,0.023-0.153,0.017
					c-0.047-0.007-0.133-0.076-0.133-0.076s-0.063-0.05-0.052-0.078C41.159,23.766,41.157,23.751,41.188,23.731z"/>
				<path fill="#F1F2F2" d="M39.979,34.893c0,0,0.087-0.003,0.116,0.018c0.028,0.021,0.038,0.151,0.036,0.133
					c-0.001-0.02,0.046,0.051,0.042,0.091c-0.001,0.041-0.017,0.069-0.084,0.084c-0.066,0.013-0.089-0.002-0.131-0.039
					c-0.042-0.036-0.11-0.172-0.086-0.215C39.897,34.922,39.979,34.893,39.979,34.893z"/>
				<path fill="#F1F2F2" d="M42.313,35.694c0,0,0.049-0.065,0.089-0.073c0.04-0.007,0.182,0.074,0.162,0.063
					c-0.021-0.012,0.08,0.001,0.121,0.031c0.04,0.029,0.062,0.06,0.033,0.116c-0.029,0.057-0.058,0.064-0.121,0.07
					c-0.063,0.006-0.249-0.036-0.277-0.084C42.291,35.774,42.313,35.694,42.313,35.694z"/>
				<path fill="#F1F2F2" d="M43.852,35.664c0.029,0.044,0.12-0.034,0.089-0.079c-0.029-0.046-0.036-0.047-0.056-0.083
					c-0.018-0.035,0.044-0.131,0.044-0.131l-0.095,0.063l-0.031,0.117C43.805,35.554,43.821,35.621,43.852,35.664z"/>
				<path fill="#F1F2F2" d="M42.785,36.031c0.057-0.017,0.261-0.13,0.26-0.157c0-0.026-0.021-0.033-0.132-0.018
					c-0.11,0.017-0.16,0.059-0.194,0.076C42.683,35.952,42.727,36.048,42.785,36.031z"/>
				<path fill="#F1F2F2" d="M44.584,35.09c0.018-0.013,0.074,0.034,0.074,0.034l0.09,0.089c0,0,0.062,0.032,0.07,0.054
					c0.012,0.021-0.004,0.056-0.034,0.034c-0.029-0.021-0.056-0.041-0.056-0.041l-0.088-0.088
					C44.639,35.172,44.567,35.104,44.584,35.09z"/>
				<path fill="#F1F2F2" d="M45.225,34.817c0.018-0.013,0.074,0.034,0.074,0.034l0.091,0.09c0,0,0.061,0.032,0.071,0.054
					c0.011,0.021-0.006,0.056-0.035,0.034c-0.028-0.021-0.056-0.041-0.056-0.041L45.281,34.9
					C45.28,34.899,45.208,34.832,45.225,34.817z"/>
				<path fill="#F1F2F2" d="M45.87,34.57c0.019-0.013,0.067,0.023,0.067,0.023l0.079,0.069c0,0,0.053,0.021,0.061,0.04
					c0.009,0.02-0.011,0.049-0.036,0.031c-0.025-0.017-0.05-0.031-0.05-0.031l-0.075-0.068C45.917,34.635,45.854,34.583,45.87,34.57
					z"/>
				<path fill="#F1F2F2" d="M52.144,31.806c0.064,0.004,0.184,0.08,0.169,0.116c-0.014,0.037-0.192,0.001-0.192,0.001
					s-0.189-0.031-0.182-0.07C51.947,31.815,52.075,31.801,52.144,31.806z"/>
				<path fill="#F1F2F2" d="M52.726,32.115c0.034,0.025,0.054-0.056,0.113-0.088s0.188,0.022,0.179-0.026
					c-0.01-0.048-0.094-0.164-0.273-0.133C52.563,31.899,52.69,32.089,52.726,32.115z"/>
				<path fill="#F1F2F2" d="M53.151,31.905c-0.008,0.029,0.155,0.084,0.19,0.069c0.036-0.014,0.036-0.075-0.018-0.11
					C53.271,31.828,53.16,31.875,53.151,31.905z"/>
				<path fill="#F1F2F2" d="M52.909,31.8c-0.032,0.002-0.044-0.033-0.079-0.029c-0.037,0.004-0.07,0.023-0.07,0.023
					s-0.06,0.031-0.07-0.007c-0.012-0.039,0.301-0.119,0.315-0.103C53.02,31.7,52.942,31.798,52.909,31.8z"/>
			</g>
			<g>
				<path fill="#F7941E" d="M55.653,40.32c0.013-0.225,0.113-0.403,0.221-0.4s0.185,0.188,0.172,0.414
					c-0.015,0.226-0.112,0.404-0.221,0.401C55.718,40.731,55.64,40.546,55.653,40.32z"/>
				<path fill="#F7941E" d="M56.721,39.989c-0.019-0.072-0.064-0.069-0.089-0.132c-0.024-0.061-0.012-0.406-0.252-0.373
					c-0.242,0.034-0.18,0.681-0.096,0.675c0.082-0.006,0.09-0.044,0.149-0.058c0.06-0.016,0.104,0.044,0.178,0.027
					C56.688,40.111,56.738,40.061,56.721,39.989z"/>
				<path fill="#F7941E" d="M55.665,42.944c0.183-0.065,0.348-0.534,0.204-0.661c-0.142-0.13-0.362-0.07-0.442-0.045
					c-0.077,0.026-0.253,0.133-0.292,0.22c-0.037,0.084-0.018,0.234,0.021,0.308s0.12,0.139,0.173,0.173
					C55.383,42.975,55.485,43.011,55.665,42.944z"/>
				<path fill="#F1F2F2" d="M56.47,37.81c0.042-0.015,0-0.155-0.055-0.256c-0.055-0.102-0.143-0.21-0.191-0.195
					c-0.05,0.015,0.024,0.15,0.046,0.2c0.018,0.051,0.086,0.123,0.104,0.158S56.426,37.822,56.47,37.81z"/>
				<path fill="#F1F2F2" d="M57.205,39.469c0.044-0.016,0-0.157-0.054-0.257c-0.056-0.102-0.143-0.209-0.191-0.195
					c-0.05,0.015,0.025,0.15,0.044,0.202c0.021,0.05,0.087,0.121,0.107,0.156C57.129,39.409,57.163,39.482,57.205,39.469z"/>
				<path fill="#F1F2F2" d="M57.664,40.946c0.046-0.007,0.042-0.152,0.014-0.259c-0.028-0.108-0.085-0.227-0.138-0.221
					c-0.054,0.007-0.014,0.151-0.008,0.205c0.006,0.052,0.052,0.133,0.063,0.17C57.605,40.877,57.619,40.954,57.664,40.946z"/>
				<path fill="#F1F2F2" d="M58.095,44c0.045-0.004,0.068-0.148,0.061-0.256c-0.008-0.108-0.042-0.233-0.096-0.233
					c-0.053,0.001-0.042,0.149-0.046,0.201c-0.005,0.053,0.028,0.139,0.031,0.176C58.048,43.926,58.048,44.003,58.095,44z"/>
				<path fill="#F1F2F2" d="M57.659,44.515c0.152-0.008,0.284-0.184,0.305-0.313c0.021-0.13-0.035-0.274-0.209-0.267
					c-0.173,0.007-0.199,0.183-0.234,0.247c-0.035,0.063,0.033,0.161,0.028,0.206C57.545,44.433,57.507,44.524,57.659,44.515z"/>
				<path fill="#F1F2F2" d="M57.019,44.494c-0.143,0.015-0.264,0.164-0.28,0.271c-0.017,0.106,0.039,0.226,0.205,0.212
					c0.164-0.012,0.184-0.156,0.215-0.211c0.033-0.055-0.033-0.132-0.029-0.17C57.131,44.56,57.162,44.483,57.019,44.494z"/>
				<path fill="#F1F2F2" d="M57.471,41.026c0.069-0.017,0.07-0.17,0.036-0.275c-0.036-0.107-0.114-0.22-0.192-0.203
					c-0.079,0.02-0.031,0.164-0.025,0.218c0.007,0.055,0.072,0.13,0.085,0.165C57.387,40.967,57.404,41.045,57.471,41.026z"/>
				<path fill="#F1F2F2" d="M56.924,39.536c0.043-0.009,0.004-0.179-0.048-0.302c-0.05-0.125-0.132-0.264-0.181-0.255
					c-0.048,0.008,0.021,0.175,0.04,0.237c0.017,0.061,0.08,0.155,0.099,0.197C56.854,39.456,56.882,39.545,56.924,39.536z"/>
				<path fill="#F1F2F2" d="M56.059,44.802c0,0,0.097-0.112,0.115-0.156c0.018-0.047-0.065-0.1-0.065-0.1s-0.104-0.066-0.15-0.078
					c-0.048-0.011-0.1,0.019-0.129,0.05c-0.028,0.031-0.091,0.136-0.094,0.183c-0.002,0.046-0.025,0.204,0.091,0.221
					C55.942,44.938,56.059,44.802,56.059,44.802z"/>
				<path fill="#F1F2F2" d="M54.396,43.223c0,0,0.099-0.112,0.116-0.157c0.018-0.047-0.066-0.099-0.066-0.099
					s-0.102-0.068-0.149-0.081c-0.047-0.01-0.1,0.021-0.129,0.051c-0.027,0.032-0.09,0.137-0.094,0.183
					c-0.003,0.046-0.023,0.205,0.093,0.221C54.282,43.356,54.396,43.223,54.396,43.223z"/>
				<path fill="#F1F2F2" d="M53.694,42.61c0,0,0.062-0.085,0.07-0.121c0.008-0.034-0.057-0.083-0.057-0.083
					s-0.081-0.061-0.115-0.071c-0.035-0.013-0.069,0.01-0.088,0.034c-0.018,0.023-0.053,0.105-0.05,0.143
					c0.001,0.037,0.001,0.164,0.084,0.184C53.624,42.714,53.694,42.61,53.694,42.61z"/>
				<path fill="#F1F2F2" d="M50.088,41.764c0,0,0.06-0.086,0.067-0.121c0.01-0.035-0.056-0.083-0.056-0.083
					s-0.078-0.061-0.114-0.072c-0.033-0.012-0.069,0.011-0.088,0.034s-0.053,0.106-0.05,0.145c0.002,0.035,0,0.164,0.085,0.184
					C50.017,41.866,50.088,41.764,50.088,41.764z"/>
				<path fill="#F1F2F2" d="M49.124,40.769c0,0,0.03-0.061,0.032-0.088c0.002-0.026-0.048-0.066-0.048-0.066
					s-0.056-0.05-0.079-0.062c-0.022-0.011-0.044,0.003-0.052,0.021c-0.007,0.018-0.022,0.076-0.017,0.104s0.018,0.124,0.074,0.144
					C49.091,40.842,49.124,40.769,49.124,40.769z"/>
				<path fill="#F1F2F2" d="M48.004,41.303c0,0,0.092-0.021,0.125-0.037c0.029-0.018,0.033-0.072,0.033-0.072
					s0.006-0.065-0.005-0.087c-0.009-0.022-0.042-0.025-0.068-0.019c-0.027,0.004-0.105,0.032-0.131,0.055
					c-0.026,0.021-0.121,0.091-0.094,0.139C47.892,41.326,48.004,41.303,48.004,41.303z"/>
				<path fill="#F1F2F2" d="M47.359,41.707c0,0,0.069,0.017,0.098,0.017c0.027,0,0.062-0.033,0.062-0.033s0.04-0.039,0.048-0.056
					c0.006-0.016-0.014-0.027-0.033-0.034c-0.018-0.005-0.083-0.012-0.113-0.007c-0.028,0.006-0.126,0.017-0.135,0.055
					C47.274,41.688,47.359,41.707,47.359,41.707z"/>
				<path fill="#F1F2F2" d="M46.715,41.455c0,0-0.066-0.023-0.096-0.026c-0.027-0.004-0.064,0.026-0.064,0.026
					s-0.047,0.035-0.056,0.051c-0.008,0.016,0.008,0.03,0.026,0.037s0.083,0.021,0.111,0.018c0.029-0.003,0.129-0.006,0.144-0.043
					C46.795,41.482,46.715,41.455,46.715,41.455z"/>
				<path fill="#F1F2F2" d="M45.477,41.425c0,0-0.045-0.044-0.067-0.057c-0.022-0.014-0.074,0.001-0.074,0.001
					s-0.063,0.016-0.082,0.024c-0.017,0.011-0.011,0.03,0.001,0.043c0.012,0.014,0.061,0.048,0.089,0.056
					c0.024,0.007,0.115,0.041,0.151,0.014C45.531,41.479,45.477,41.425,45.477,41.425z"/>
				<path fill="#F1F2F2" d="M44.726,41.033c0,0-0.045-0.046-0.067-0.057c-0.023-0.013-0.074,0-0.074,0s-0.064,0.016-0.081,0.025
					c-0.018,0.011-0.013,0.029,0,0.042c0.013,0.014,0.062,0.048,0.087,0.057c0.026,0.007,0.116,0.039,0.154,0.014
					C44.78,41.088,44.726,41.033,44.726,41.033z"/>
				<path fill="#F1F2F2" d="M44.619,40.407c0,0-0.002-0.055-0.013-0.074c-0.01-0.021-0.063-0.032-0.063-0.032
					s-0.062-0.015-0.085-0.015c-0.023,0.001-0.03,0.019-0.031,0.034c0,0.017,0.016,0.065,0.03,0.083
					c0.017,0.02,0.066,0.084,0.117,0.078C44.625,40.474,44.619,40.407,44.619,40.407z"/>
				<path fill="#F1F2F2" d="M44.123,39.543c0,0-0.003-0.045-0.009-0.061c-0.008-0.017-0.05-0.026-0.05-0.026
					s-0.052-0.013-0.07-0.011c-0.02,0-0.025,0.016-0.025,0.028c0,0.014,0.012,0.051,0.024,0.067
					c0.013,0.015,0.055,0.068,0.095,0.063S44.123,39.543,44.123,39.543z"/>
				<path fill="#F1F2F2" d="M43.511,39.101c0,0-0.003-0.045-0.011-0.062c-0.009-0.016-0.05-0.025-0.05-0.025
					s-0.052-0.012-0.072-0.011c-0.018,0.001-0.023,0.016-0.023,0.028c0,0.012,0.013,0.053,0.025,0.067s0.053,0.068,0.094,0.062
					C43.516,39.156,43.511,39.101,43.511,39.101z"/>
				<path fill="#F1F2F2" d="M43.091,38.259c0,0,0.027-0.05,0.028-0.073c0-0.021-0.039-0.05-0.039-0.05s-0.051-0.035-0.071-0.041
					c-0.021-0.008-0.039,0.007-0.045,0.021c-0.01,0.015-0.021,0.063-0.018,0.086c0.005,0.021,0.015,0.099,0.064,0.108
					C43.059,38.323,43.091,38.259,43.091,38.259z"/>
				<path fill="#F1F2F2" d="M42.947,37.105c0,0,0.115-0.01,0.152-0.021c0.038-0.013,0.036-0.067,0.036-0.067
					s-0.002-0.065-0.015-0.088c-0.014-0.021-0.056-0.029-0.09-0.028c-0.033,0.003-0.129,0.021-0.16,0.041
					c-0.031,0.018-0.144,0.075-0.103,0.126C42.809,37.118,42.947,37.105,42.947,37.105z"/>
				<path fill="#F1F2F2" d="M42.328,37.169c0,0-0.063-0.028-0.09-0.033s-0.07,0.021-0.07,0.021s-0.053,0.032-0.065,0.047
					c-0.011,0.014,0.003,0.03,0.021,0.037c0.019,0.008,0.081,0.026,0.109,0.026c0.029,0,0.13,0.004,0.153-0.031
					C42.406,37.202,42.328,37.169,42.328,37.169z"/>
				<path fill="#F1F2F2" d="M42.79,39.238c0,0,0.032-0.066,0.032-0.095c0.002-0.026-0.051-0.064-0.051-0.064
					s-0.065-0.047-0.092-0.056c-0.027-0.008-0.049,0.008-0.059,0.027c-0.009,0.019-0.024,0.082-0.017,0.111
					c0.006,0.028,0.023,0.128,0.085,0.143C42.754,39.318,42.79,39.238,42.79,39.238z"/>
				<path fill="#F1F2F2" d="M42.529,37.796c0,0,0.03-0.066,0.033-0.095c0-0.027-0.052-0.064-0.052-0.064s-0.065-0.047-0.092-0.055
					c-0.025-0.009-0.048,0.006-0.058,0.025c-0.01,0.019-0.024,0.082-0.018,0.112c0.007,0.028,0.023,0.128,0.086,0.143
					C42.493,37.877,42.529,37.796,42.529,37.796z"/>
				<path fill="#F1F2F2" d="M43.82,40.526c0,0-0.011-0.049-0.021-0.067c-0.013-0.017-0.063-0.032-0.063-0.032
					s-0.063-0.017-0.083-0.017s-0.027,0.015-0.025,0.028c0.002,0.015,0.021,0.057,0.038,0.074s0.07,0.078,0.117,0.076
					C43.833,40.586,43.82,40.526,43.82,40.526z"/>
				<path fill="#F1F2F2" d="M43.459,39.898c0,0-0.032-0.059-0.055-0.082c-0.021-0.024-0.099-0.051-0.099-0.051
					s-0.092-0.033-0.122-0.038c-0.03-0.006-0.033,0.012-0.024,0.028c0.008,0.018,0.05,0.072,0.081,0.097
					c0.03,0.022,0.128,0.106,0.192,0.113C43.498,39.973,43.459,39.898,43.459,39.898z"/>
				<path fill="#F1F2F2" d="M42.269,36.848c0,0,0.056-0.049,0.075-0.074c0.017-0.026,0.014-0.09,0.014-0.09
					s-0.002-0.077-0.009-0.101c-0.007-0.021-0.028-0.017-0.044-0.004c-0.016,0.014-0.064,0.066-0.077,0.098
					c-0.015,0.031-0.068,0.135-0.047,0.184C42.201,36.906,42.269,36.848,42.269,36.848z"/>
				<path fill="#F1F2F2" d="M46.116,41.204c0,0-0.052-0.054-0.078-0.069c-0.028-0.015-0.09-0.001-0.09-0.001
					s-0.078,0.017-0.099,0.028c-0.022,0.013-0.015,0.034,0,0.05c0.013,0.017,0.069,0.057,0.103,0.067
					c0.031,0.012,0.139,0.051,0.185,0.02C46.18,41.267,46.116,41.204,46.116,41.204z"/>
				<path fill="#F1F2F2" d="M52.787,42.339c0,0-0.11,0.064-0.141,0.1c-0.029,0.032,0.008,0.104,0.008,0.104s0.039,0.089,0.067,0.115
					c0.025,0.023,0.072,0.015,0.104-0.003c0.032-0.019,0.116-0.089,0.135-0.129c0.019-0.037,0.098-0.167,0.026-0.217
					C52.917,42.26,52.787,42.339,52.787,42.339z"/>
				<path fill="#F1F2F2" d="M56.427,41.519c0,0-0.13,0.188-0.148,0.259c-0.019,0.071,0.124,0.13,0.124,0.13s0.174,0.072,0.249,0.077
					c0.076,0.005,0.151-0.052,0.19-0.106c0.039-0.053,0.115-0.224,0.109-0.29c-0.007-0.067-0.004-0.307-0.188-0.302
					C56.577,41.291,56.427,41.519,56.427,41.519z"/>
				<path fill="#F1F2F2" d="M57.467,41.695c0,0,0.031-0.131,0.023-0.18s-0.116-0.078-0.116-0.078s-0.131-0.038-0.184-0.038
					c-0.051,0.001-0.083,0.044-0.095,0.08c-0.01,0.038-0.012,0.153,0.012,0.198c0.02,0.044,0.086,0.2,0.203,0.188
					C57.432,41.854,57.467,41.695,57.467,41.695z"/>
				<path fill="#F1F2F2" d="M57.64,45.424c0.007-0.011,0.047-0.07,0.047-0.09c0-0.021-0.045-0.052-0.07-0.047
					c-0.026,0.006-0.063,0.077-0.073,0.088c-0.008,0.014,0.003,0.055,0.021,0.065C57.58,45.454,57.634,45.436,57.64,45.424z"/>
				<path fill="#F1F2F2" d="M57.209,45.49c0.004-0.017,0.003-0.03,0.026-0.048c0.024-0.019,0.05-0.034,0.045-0.051
					c-0.006-0.019-0.04-0.021-0.063-0.012c-0.021,0.009-0.088,0.036-0.103,0.061c-0.016,0.026-0.005,0.076,0.01,0.084
					C57.139,45.533,57.205,45.508,57.209,45.49z"/>
				<path fill="#F1F2F2" d="M56.523,44.59c0.009-0.016,0.054-0.077,0.066-0.112c0.014-0.034,0.006-0.066-0.011-0.074
					c-0.018-0.007-0.085,0.021-0.097,0.036c-0.01,0.019-0.057,0.094-0.057,0.104c0.001,0.012-0.003,0.032,0.033,0.049
					C56.494,44.61,56.515,44.604,56.523,44.59z"/>
				<path fill="#F1F2F2" d="M56.483,45.607c0,0,0.03-0.055,0.023-0.075c-0.005-0.018-0.013-0.024-0.021-0.034
					c-0.013-0.012-0.034-0.024-0.052-0.021c-0.019,0.003-0.065,0.054-0.078,0.066c-0.011,0.013-0.018,0.038-0.013,0.062
					c0.006,0.023,0.026,0.033,0.042,0.04s0.049,0.01,0.065,0.001C56.471,45.64,56.483,45.607,56.483,45.607z"/>
				<path fill="#F1F2F2" d="M54.771,44.739c0,0,0.015-0.071,0.003-0.093c-0.012-0.021-0.022-0.03-0.039-0.043
					c-0.016-0.013-0.045-0.028-0.063-0.021c-0.02,0.006-0.058,0.07-0.065,0.086c-0.008,0.017-0.007,0.048,0.006,0.076
					c0.014,0.03,0.042,0.039,0.063,0.049c0.02,0.008,0.058,0.009,0.076-0.003C54.768,44.782,54.771,44.739,54.771,44.739z"/>
				<path fill="#F1F2F2" d="M54.314,44.194c0,0-0.044,0.071-0.039,0.096c0.003,0.026,0.013,0.037,0.023,0.054
					c0.013,0.017,0.034,0.038,0.059,0.036c0.022-0.001,0.085-0.059,0.102-0.075c0.015-0.017,0.026-0.048,0.023-0.081
					c-0.002-0.034-0.027-0.05-0.045-0.063c-0.018-0.012-0.058-0.021-0.081-0.016C54.335,44.153,54.314,44.194,54.314,44.194z"/>
				<path fill="#F1F2F2" d="M53.629,43.73c0,0,0.004,0.089,0.024,0.116c0.021,0.028,0.036,0.04,0.058,0.056
					c0.023,0.017,0.062,0.036,0.084,0.031c0.021-0.007,0.048-0.086,0.051-0.106c0.006-0.02-0.007-0.059-0.029-0.097
					c-0.024-0.038-0.06-0.051-0.086-0.062c-0.025-0.011-0.073-0.014-0.091-0.001C53.62,43.678,53.629,43.73,53.629,43.73z"/>
				<path fill="#F1F2F2" d="M53.081,43.276c0,0,0.057,0.079,0.089,0.097c0.035,0.018,0.056,0.021,0.086,0.029
					c0.029,0.008,0.075,0.012,0.092-0.001c0.016-0.012-0.009-0.093-0.018-0.113c-0.008-0.021-0.039-0.05-0.082-0.077
					c-0.045-0.024-0.084-0.023-0.113-0.024c-0.031-0.002-0.074,0.012-0.083,0.029C53.042,43.23,53.081,43.276,53.081,43.276z"/>
				<path fill="#F1F2F2" d="M51.742,42.043c0,0,0.055,0.077,0.091,0.096c0.032,0.02,0.054,0.021,0.083,0.029
					c0.029,0.007,0.076,0.014,0.092,0c0.017-0.013-0.008-0.092-0.016-0.113c-0.009-0.02-0.039-0.051-0.083-0.076
					c-0.046-0.027-0.084-0.025-0.115-0.027c-0.03,0-0.072,0.013-0.083,0.03C51.704,41.999,51.742,42.043,51.742,42.043z"/>
				<path fill="#F1F2F2" d="M50.709,42.189c0,0,0.045,0.07,0.074,0.086c0.027,0.016,0.045,0.019,0.07,0.024s0.064,0.008,0.079-0.004
					c0.016-0.012-0.003-0.083-0.01-0.102c-0.005-0.019-0.031-0.046-0.067-0.069c-0.035-0.021-0.07-0.02-0.096-0.02
					c-0.025-0.001-0.062,0.012-0.072,0.027C50.678,42.15,50.709,42.189,50.709,42.189z"/>
				<path fill="#F1F2F2" d="M48.502,41.487c0,0,0.104,0.007,0.132-0.003c0.028-0.011,0.036-0.021,0.053-0.034
					c0.016-0.015,0.03-0.038,0.019-0.055c-0.011-0.017-0.105-0.046-0.131-0.051c-0.025-0.006-0.067-0.004-0.106,0.009
					c-0.04,0.012-0.048,0.035-0.056,0.053s-0.002,0.049,0.015,0.063S48.502,41.487,48.502,41.487z"/>
				<path fill="#F1F2F2" d="M51.061,41.761c0,0-0.033,0.073-0.026,0.099c0.006,0.026,0.016,0.039,0.027,0.058
					c0.013,0.017,0.036,0.041,0.059,0.039c0.021-0.001,0.075-0.063,0.087-0.077c0.014-0.017,0.021-0.049,0.016-0.084
					c-0.007-0.035-0.032-0.052-0.05-0.066s-0.054-0.023-0.078-0.019C51.074,41.716,51.061,41.761,51.061,41.761z"/>
				<path fill="#F1F2F2" d="M52.153,42.963c0,0,0.056,0.078,0.09,0.097c0.033,0.018,0.056,0.021,0.085,0.028
					c0.029,0.008,0.075,0.014,0.092,0c0.016-0.014-0.009-0.092-0.017-0.112c-0.009-0.021-0.039-0.052-0.083-0.078
					c-0.044-0.024-0.083-0.023-0.114-0.026c-0.029-0.001-0.073,0.014-0.083,0.03C52.117,42.919,52.153,42.963,52.153,42.963z"/>
				<path fill="#F1F2F2" d="M51.785,42.604c0,0-0.092-0.055-0.132-0.062c-0.041-0.008-0.063-0.005-0.094-0.002
					c-0.031,0.002-0.075,0.011-0.083,0.028c-0.008,0.017,0.055,0.082,0.072,0.098c0.02,0.018,0.063,0.035,0.116,0.047
					c0.053,0.01,0.09-0.003,0.117-0.011c0.028-0.007,0.06-0.032,0.062-0.05C51.844,42.636,51.785,42.604,51.785,42.604z"/>
				<path fill="#F1F2F2" d="M56.072,45.491c0.011,0.003,0.031-0.008,0.038-0.02c0.008-0.012,0.01-0.116-0.002-0.121
					c-0.012-0.003-0.039,0.023-0.045,0.034c-0.003,0.01-0.021,0.055-0.021,0.064C56.043,45.457,56.063,45.49,56.072,45.491z"/>
				<path fill="#F1F2F2" d="M55.48,45.36c0,0,0.039-0.095,0.031-0.123s-0.012-0.06-0.03-0.063c-0.019-0.005-0.09-0.023-0.114-0.005
					c-0.023,0.02-0.02,0.078-0.02,0.078s-0.028,0.043-0.023,0.066c0.007,0.023,0.042,0.021,0.045,0.036
					c0.003,0.017,0.006,0.063,0.047,0.06C55.455,45.404,55.48,45.36,55.48,45.36z"/>
				<path fill="#F1F2F2" d="M55.106,44.343c0.038-0.007,0.147-0.045,0.183-0.106c0.034-0.061-0.009-0.172-0.034-0.203
					c-0.024-0.032-0.097-0.076-0.126-0.068c-0.028,0.008-0.033,0.061-0.06,0.078c-0.025,0.016-0.088,0.053-0.108,0.084
					c-0.02,0.033,0.007,0.127,0.007,0.127s0.017,0.067,0.052,0.077C55.054,44.34,55.067,44.351,55.106,44.343z"/>
				<path fill="#F1F2F2" d="M42.467,38.577c0,0,0.055-0.051,0.049-0.082c-0.005-0.03-0.14-0.111-0.119-0.101
					c0.019,0.011-0.028-0.059-0.073-0.079c-0.047-0.022-0.085-0.03-0.138,0.004c-0.053,0.035-0.05,0.055-0.037,0.104
					c0.016,0.047,0.12,0.169,0.181,0.179C42.388,38.611,42.467,38.577,42.467,38.577z"/>
				<path fill="#F1F2F2" d="M42.972,36.671c0,0,0.099,0.008,0.13-0.013s0.027-0.155,0.027-0.138c0,0.02,0.046-0.05,0.038-0.091
					c-0.009-0.043-0.029-0.074-0.107-0.089c-0.078-0.017-0.102-0.004-0.146,0.033c-0.044,0.035-0.106,0.175-0.074,0.219
					C42.873,36.638,42.972,36.671,42.972,36.671z"/>
				<path fill="#F1F2F2" d="M43.901,35.738c-0.029-0.046,0.106-0.055,0.136-0.011c0.031,0.047,0.028,0.051,0.057,0.083
					c0.028,0.034,0.164,0.05,0.164,0.05l-0.122,0.021l-0.144-0.05C43.993,35.833,43.932,35.782,43.901,35.738z"/>
				<path fill="#F1F2F2" d="M42.887,36.184c0.051-0.026,0.29-0.085,0.319-0.069c0.028,0.017,0.021,0.033-0.06,0.091
					c-0.081,0.059-0.153,0.065-0.193,0.075C42.913,36.291,42.836,36.21,42.887,36.184z"/>
				<path fill="#F1F2F2" d="M44.942,35.621c0.023-0.004,0.008-0.064,0.008-0.064l-0.044-0.107c0,0,0.002-0.057-0.017-0.076
					c-0.017-0.02-0.063-0.029-0.057,0.003c0.006,0.031,0.013,0.058,0.013,0.058l0.042,0.106
					C44.888,35.54,44.919,35.624,44.942,35.621z"/>
				<path fill="#F1F2F2" d="M45.608,35.385c0.023-0.003,0.007-0.064,0.007-0.064l-0.043-0.109c0,0,0-0.056-0.018-0.074
					c-0.017-0.021-0.063-0.029-0.056,0.003c0.006,0.032,0.011,0.058,0.011,0.058l0.043,0.106
					C45.553,35.303,45.583,35.388,45.608,35.385z"/>
				<path fill="#F1F2F2" d="M46.25,35.13c0.022-0.005,0.015-0.055,0.015-0.055l-0.028-0.087c0,0,0.006-0.049-0.008-0.063
					c-0.016-0.016-0.057-0.021-0.053,0.006c0.001,0.025,0.003,0.049,0.003,0.049l0.029,0.086
					C46.205,35.064,46.227,35.133,46.25,35.13z"/>
				<path fill="#F1F2F2" d="M52.864,32.874c0.034-0.044,0.022-0.161-0.025-0.173c-0.048-0.014-0.114,0.117-0.114,0.117
					s-0.077,0.135-0.031,0.152C52.74,32.987,52.83,32.917,52.864,32.874z"/>
				<path fill="#F1F2F2" d="M52.872,32.334c-0.007-0.036,0.091-0.001,0.161-0.019c0.068-0.018,0.084-0.13,0.129-0.096
					c0.047,0.035,0.122,0.154-0.017,0.248C53.008,32.561,52.88,32.37,52.872,32.334z"/>
				<path fill="#F1F2F2" d="M53.346,32.192c-0.035-0.012,0-0.145,0.037-0.158s0.101,0.021,0.108,0.075
					C53.5,32.164,53.384,32.204,53.346,32.192z"/>
				<path fill="#F1F2F2" d="M53.33,32.42c-0.022,0.019,0.011,0.046-0.016,0.065c-0.025,0.021-0.065,0.031-0.065,0.031
					s-0.069,0.018-0.035,0.047c0.037,0.031,0.305-0.115,0.296-0.133C53.502,32.412,53.35,32.402,53.33,32.42z"/>
			</g>
			<g>
				<path fill="#F1F2F2" d="M52.53,32.337c0,0-0.244,0.062-0.283,0.085c-0.039,0.022-0.396,0.153-0.396,0.153
					s-0.097,0.053-0.128,0.05c-0.035-0.002-0.027-0.013-0.055-0.003c-0.027,0.007-0.016,0.023-0.033,0.039
					c-0.018,0.015-0.104,0.036-0.139,0.055c-0.035,0.017-0.192,0.1-0.192,0.1L52.53,32.337z"/>
				<path fill="#F1F2F2" d="M51.25,32.836c0,0-0.027,0-0.049-0.007c-0.018,0.008-0.011,0.016-0.026,0.022
					c-0.017,0.008-0.046-0.028-0.081-0.01c-0.033,0.02-0.06,0.049-0.072,0.056c-0.014,0.007-0.045,0.017-0.045,0.017
					s-0.041,0.014-0.062,0.024c-0.021,0.012-0.148,0.085-0.148,0.085L51.25,32.836z"/>
			</g>
			<g>
				<path fill="#F1F2F2" d="M52.526,32.339c0,0-0.208,0.117-0.255,0.127c-0.048,0.011-0.396,0.154-0.396,0.154
					s-0.111,0.028-0.127,0.05c-0.017,0.022-0.001,0.024-0.026,0.036c-0.025,0.013-0.034-0.004-0.062-0.002
					c-0.026,0.002-0.1,0.044-0.138,0.054c-0.039,0.012-0.222,0.061-0.222,0.061L52.526,32.339z"/>
				<path fill="#F1F2F2" d="M51.247,32.838c0,0-0.017,0.017-0.021,0.034c-0.02,0.008-0.023-0.003-0.041,0.002
					c-0.018,0.006,0.005,0.045-0.036,0.054c-0.04,0.011-0.086,0.01-0.102,0.014s-0.044,0.017-0.044,0.017s-0.039,0.017-0.063,0.023
					c-0.021,0.008-0.176,0.042-0.176,0.042L51.247,32.838z"/>
			</g>
			<path fill="#F1F2F2" d="M51.198,32.83"/>
		</g>
	</g>
	<g opacity="0.8">
		<path fill="#004750" d="M40.4,38.191c0,0-0.031,0.02-0.09,0.057c-0.058,0.032-0.141,0.08-0.25,0.138
			c-0.218,0.113-0.539,0.266-0.967,0.417c-0.428,0.148-0.966,0.297-1.609,0.35c-0.639,0.056-1.4-0.004-2.155-0.31
			c-0.759-0.297-1.458-0.865-1.997-1.57c-0.13-0.177-0.269-0.36-0.381-0.566c-0.129-0.226-0.219-0.443-0.291-0.684
			c-0.144-0.479-0.171-0.991-0.108-1.48c0.124-0.989,0.546-1.886,1.024-2.725c0.484-0.842,1.049-1.634,1.616-2.413
			c0.567-0.777,1.148-1.54,1.658-2.321c0.253-0.389,0.488-0.783,0.674-1.187c0.183-0.401,0.322-0.82,0.309-1.212
			c-0.007-0.394-0.19-0.746-0.467-1.041c-0.275-0.292-0.62-0.521-0.971-0.714c-0.71-0.381-1.451-0.624-2.139-0.816
			c-1.383-0.376-2.575-0.545-3.408-0.652c-0.833-0.104-1.313-0.133-1.313-0.133s0.48,0.007,1.32,0.069
			c0.838,0.068,2.04,0.18,3.456,0.493c0.707,0.163,1.472,0.371,2.237,0.736c0.382,0.185,0.766,0.411,1.103,0.735
			c0.167,0.162,0.318,0.352,0.437,0.572c0.118,0.22,0.19,0.472,0.207,0.728c0.028,0.514-0.127,0.991-0.31,1.436
			c-0.189,0.445-0.424,0.865-0.674,1.275c-0.501,0.819-1.063,1.604-1.604,2.396c-0.54,0.79-1.068,1.583-1.503,2.396
			c-0.433,0.809-0.782,1.65-0.856,2.461c-0.038,0.405-0.002,0.794,0.115,1.146c0.056,0.172,0.138,0.351,0.225,0.489
			c0.095,0.166,0.215,0.312,0.334,0.463c0.484,0.588,1.06,1.014,1.654,1.222c0.593,0.216,1.188,0.246,1.709,0.184
			c0.523-0.063,0.974-0.202,1.334-0.341c0.361-0.144,0.632-0.283,0.81-0.384c0.089-0.051,0.155-0.09,0.197-0.116
			c0.039-0.027,0.06-0.039,0.06-0.039L40.4,38.191z"/>
	</g>
</g>
</svg>
