<?xml version="1.0" standalone="no"?>
<!DOCTYPE svg PUBLIC "-//W3C//DTD SVG 20010904//EN"
 "http://www.w3.org/TR/2001/REC-SVG-20010904/DTD/svg10.dtd">
<svg version="1.0" xmlns="http://www.w3.org/2000/svg"
 width="704.000000pt" height="704.000000pt" viewBox="0 0 704.000000 704.000000"
 preserveAspectRatio="xMidYMid meet">
<metadata>
Created by potrace 1.11, written by Peter Selinger 2001-2013
</metadata>
<g transform="translate(0.000000,704.000000) scale(0.100000,-0.100000)"
fill="#000000" stroke="none">
<path d="M2745 6526 c-59 -26 -112 -98 -175 -231 -50 -106 -51 -158 -5 -275 7
-19 30 -77 50 -129 21 -52 39 -101 40 -110 2 -9 4 -16 5 -16 1 0 3 -7 5 -15 3
-8 14 -46 26 -85 19 -61 21 -93 21 -240 0 -93 -3 -183 -7 -200 -24 -124 -28
-405 -6 -475 8 -25 18 -49 23 -54 13 -16 9 -46 -7 -51 -8 -3 -23 -8 -32 -12
-10 -3 -20 -7 -23 -8 -76 -26 -239 -126 -292 -179 -37 -38 -106 -135 -140
-196 -14 -25 -44 -74 -67 -109 -42 -65 -45 -76 -42 -146 1 -22 -7 -75 -18
-117 -28 -107 -19 -139 62 -251 47 -64 71 -118 97 -219 9 -33 27 -61 62 -97
27 -28 55 -54 62 -59 7 -4 30 -32 51 -62 21 -30 49 -65 62 -78 23 -22 103 -62
127 -62 6 0 36 -16 66 -36 63 -42 88 -52 139 -60 22 -3 46 -16 61 -33 32 -37
68 -47 157 -46 79 1 78 4 15 -64 -42 -47 -46 -64 -27 -105 15 -32 15 -36 -1
-61 -21 -32 -26 -70 -14 -113 6 -23 4 -48 -6 -83 -19 -63 -13 -93 35 -167 21
-32 48 -89 61 -127 24 -72 40 -93 134 -170 67 -55 74 -63 103 -109 92 -149
116 -169 253 -217 52 -18 107 -41 121 -51 45 -30 112 -55 169 -62 30 -4 73 -9
95 -12 43 -6 75 -11 115 -19 119 -24 309 -24 431 0 44 8 198 54 234 70 l35 14
59 -57 c69 -66 241 -167 411 -242 120 -52 379 -181 434 -215 17 -10 33 -19 36
-20 5 0 76 -52 96 -70 6 -5 33 -28 59 -50 26 -22 104 -95 174 -162 147 -142
164 -157 208 -184 32 -20 138 -54 198 -64 35 -6 71 -13 105 -21 14 -3 67 -7
118 -10 87 -3 96 -1 132 22 32 21 103 112 106 134 0 3 15 36 32 74 58 124 66
179 66 421 0 219 -4 266 -39 445 -12 63 -81 271 -114 345 -5 11 -23 56 -41
100 -17 44 -40 99 -51 122 -10 24 -19 45 -19 47 0 20 -150 321 -254 511 -6 11
-15 23 -21 27 -5 4 -6 8 -2 8 4 0 -3 15 -17 33 -15 19 -26 37 -26 40 0 10
-126 194 -171 251 -239 301 -350 421 -476 513 -35 24 -63 48 -64 51 0 4 -2 21
-5 37 -7 54 31 108 82 117 10 1 34 18 52 37 30 32 37 34 104 36 39 2 85 -1
102 -7 38 -11 126 -37 146 -42 8 -2 62 -18 120 -36 129 -39 118 -36 215 -61
90 -23 104 -32 86 -52 -6 -8 -8 -22 -5 -31 6 -15 9 -15 30 5 13 12 24 28 24
34 0 23 -39 47 -82 51 -42 4 -81 10 -85 14 -2 2 -6 3 -10 4 -14 3 -128 37
-143 42 -8 3 -17 5 -20 6 -3 0 -21 6 -40 13 -145 55 -248 80 -332 80 -76 0
-88 2 -88 17 0 9 -11 29 -24 45 -13 15 -22 35 -21 43 2 8 6 31 9 50 30 155 28
227 -10 375 -9 33 -18 68 -20 78 -2 10 -6 27 -9 37 -3 10 -7 27 -9 37 -11 55
-51 135 -77 158 -34 28 -91 37 -69 10 7 -8 20 -15 29 -15 32 -1 71 -53 86
-115 3 -11 16 -63 30 -115 13 -52 27 -106 30 -120 2 -14 9 -45 14 -69 12 -60
6 -154 -15 -223 -3 -10 -8 -30 -10 -45 -3 -15 -7 -29 -9 -31 -2 -2 -30 -5 -62
-6 -32 -1 -71 -8 -86 -14 -42 -18 -83 -15 -129 9 -58 30 -67 41 -78 101 -10
53 -37 144 -49 163 -3 6 -6 12 -7 15 -5 26 -117 251 -164 330 -18 30 -38 64
-44 75 -19 35 -110 180 -121 192 -5 6 -21 28 -35 48 -34 49 -181 237 -200 255
-8 8 -33 37 -54 64 -22 26 -49 58 -60 70 -12 12 -55 60 -97 107 -174 192 -489
497 -604 583 -73 55 -233 166 -240 166 -2 0 -39 22 -83 49 -166 104 -395 215
-507 248 -70 20 -165 44 -195 48 -14 2 -49 9 -79 14 -72 15 -139 13 -176 -3z"/>
<path d="M188 6523 c6 -2 18 -2 25 0 6 3 1 5 -13 5 -14 0 -19 -2 -12 -5z"/>
<path d="M233 6523 c3 -3 23 -7 44 -9 21 -3 65 -8 98 -13 33 -5 71 -9 85 -10
37 -2 53 -6 69 -15 11 -7 12 -6 6 5 -8 12 -6 12 8 0 14 -11 17 -11 17 0 0 12
2 12 9 1 5 -8 28 -15 55 -15 25 -1 46 -6 46 -11 0 -5 8 -2 17 5 11 10 14 10 9
2 -7 -12 23 -19 62 -14 6 1 12 -3 12 -10 0 -8 5 -7 17 2 11 10 14 10 9 2 -5
-9 -1 -13 11 -14 10 0 27 -3 38 -6 11 -2 30 -6 42 -7 13 -1 26 -6 30 -9 3 -4
13 -1 21 5 17 15 44 20 36 7 -3 -5 -9 -7 -14 -4 -5 3 -11 1 -15 -5 -3 -5 -1
-11 4 -11 6 -1 14 -2 19 -3 99 -25 163 -36 173 -30 8 4 9 3 5 -4 -4 -7 -4 -12
1 -13 28 -2 58 -11 68 -19 7 -5 15 -7 18 -3 4 3 12 1 19 -4 13 -11 77 -28 91
-25 4 1 7 -3 7 -10 0 -6 9 -3 20 7 11 10 20 13 20 7 0 -7 -5 -12 -12 -12 -18
0 4 -19 27 -23 11 -2 38 -11 60 -21 22 -10 48 -18 58 -19 9 -1 17 -5 17 -9 0
-4 7 -8 15 -8 8 0 15 5 15 11 0 5 5 7 11 3 8 -4 7 -9 -2 -15 -10 -6 -9 -9 6
-14 11 -4 29 -11 40 -17 11 -7 38 -21 60 -32 22 -12 42 -24 45 -28 3 -3 11 -8
19 -10 7 -2 28 -15 45 -31 17 -15 36 -25 43 -23 7 3 12 1 10 -3 -1 -5 22 -32
51 -60 28 -28 52 -55 52 -61 0 -5 8 -14 18 -19 10 -5 18 -20 19 -33 1 -12 7
-24 13 -26 5 -2 10 -13 10 -23 0 -11 4 -18 9 -15 5 4 7 -3 4 -14 -4 -13 1 -27
13 -36 11 -9 13 -12 5 -8 -10 5 -12 -3 -10 -40 2 -25 1 -46 -3 -46 -4 0 -6
-10 -4 -22 2 -13 0 -30 -5 -39 -4 -8 -9 -26 -11 -40 -2 -13 -7 -30 -11 -36 -5
-7 -5 -17 -2 -23 3 -5 1 -10 -6 -10 -7 0 -9 -10 -7 -24 4 -19 1 -23 -11 -18
-9 3 -13 2 -9 -2 3 -4 -11 -41 -32 -82 -22 -42 -33 -74 -27 -75 7 0 2 -4 -11
-10 -13 -5 -20 -13 -17 -19 3 -5 2 -10 -3 -10 -8 0 -29 -36 -30 -53 0 -5 -8
-14 -17 -21 -9 -6 -17 -21 -18 -33 0 -12 -6 -21 -12 -20 -5 1 -9 -9 -8 -23 1
-14 -1 -19 -4 -12 -6 16 -33 -3 -33 -24 0 -8 -4 -14 -8 -14 -5 0 -16 -16 -25
-35 -9 -19 -22 -35 -27 -35 -6 0 -8 -4 -5 -10 3 -5 -3 -15 -15 -22 -11 -7 -20
-20 -20 -30 0 -9 -6 -18 -12 -21 -10 -3 -9 -8 2 -23 14 -17 14 -18 -2 -6 -14
11 -18 11 -26 -5 -5 -10 -7 -25 -5 -33 4 -12 2 -12 -5 -2 -7 10 -11 10 -21 -2
-9 -11 -9 -15 1 -19 9 -4 8 -6 -3 -6 -17 -1 -55 -49 -51 -63 1 -5 -3 -8 -9 -8
-5 0 -7 -5 -3 -12 4 -7 3 -8 -4 -4 -6 4 -16 -4 -23 -16 -7 -12 -17 -28 -23
-34 -6 -7 -20 -24 -31 -40 -11 -15 -26 -33 -32 -40 -7 -7 -13 -18 -13 -24 0
-6 -7 -13 -15 -16 -8 -4 -15 -12 -15 -18 0 -7 -9 -22 -20 -34 -12 -12 -18 -22
-15 -22 3 0 -6 -12 -20 -27 -14 -15 -25 -31 -25 -34 0 -3 -9 -16 -20 -29 -11
-12 -17 -27 -14 -31 3 -5 -2 -9 -10 -9 -9 0 -16 -7 -16 -15 0 -8 -5 -15 -11
-15 -6 0 -9 -9 -6 -19 4 -15 1 -18 -12 -14 -9 4 -13 3 -10 -1 4 -4 -4 -19 -17
-33 -13 -14 -24 -30 -24 -34 0 -5 -16 -31 -35 -58 -36 -50 -44 -67 -23 -55 7
4 8 3 4 -5 -4 -6 -11 -9 -16 -6 -8 5 -76 -104 -72 -117 1 -5 -2 -8 -6 -8 -12
0 -33 -50 -26 -61 3 -5 0 -8 -8 -7 -7 2 -12 -3 -10 -9 1 -7 -3 -13 -9 -13 -6
0 -9 -9 -6 -20 3 -11 2 -18 -1 -16 -4 2 -13 -2 -20 -10 -7 -8 -10 -14 -8 -14
3 0 -4 -16 -15 -36 -11 -20 -18 -43 -15 -50 3 -8 0 -13 -6 -11 -7 1 -13 -2
-13 -8 -1 -5 -9 -27 -18 -49 -9 -21 -17 -40 -17 -42 0 -1 -5 -15 -12 -31 -16
-40 -19 -54 -21 -90 -1 -20 -4 -28 -9 -20 -5 8 -8 3 -9 -13 -2 -29 -4 -36 -12
-70 -12 -43 -17 -83 -23 -154 -4 -55 -3 -67 8 -60 10 6 11 5 2 -7 -15 -18 -11
-90 11 -189 9 -42 41 -130 47 -130 4 0 8 -7 8 -15 0 -18 38 -87 54 -97 6 -4 7
-8 1 -8 -7 0 -7 -3 0 -8 6 -4 15 -16 22 -27 6 -11 16 -19 22 -18 6 2 8 -4 5
-12 -4 -8 -1 -15 5 -15 6 0 11 -4 11 -10 0 -22 165 -194 179 -186 7 5 8 1 4
-10 -5 -14 -3 -16 11 -11 9 4 15 3 12 -2 -3 -5 19 -27 49 -50 30 -23 55 -38
55 -34 0 4 4 3 8 -3 13 -19 82 -55 92 -49 6 4 9 1 8 -7 -2 -7 4 -13 12 -13 8
0 21 -6 29 -13 7 -7 20 -11 27 -8 8 3 14 1 14 -4 0 -6 9 -10 19 -10 11 0 22
-4 25 -8 4 -8 84 -30 126 -36 8 -1 21 -5 29 -10 8 -5 16 -4 21 4 5 9 9 9 11 1
3 -7 36 -12 87 -14 46 -1 82 -6 82 -12 0 -7 3 -7 8 0 4 6 27 10 52 10 32 0 44
4 42 13 -1 8 2 11 8 7 6 -3 8 -10 5 -15 -8 -13 69 1 77 14 5 8 8 7 8 -1 0 -7
9 -10 23 -7 12 3 36 7 52 10 48 8 57 13 49 26 -6 10 -4 10 7 2 8 -6 23 -9 34
-7 11 3 32 7 48 10 15 3 27 9 27 14 0 5 6 6 14 3 8 -3 17 -1 21 5 3 6 15 11
26 11 11 0 17 4 14 10 -3 6 1 7 10 4 8 -4 22 -1 30 6 8 7 15 9 15 5 0 -4 6 -2
13 4 8 6 17 8 20 4 4 -3 7 0 7 7 0 7 3 11 6 7 7 -7 60 18 88 42 11 9 16 10 12
4 -4 -7 18 2 48 20 31 17 54 37 52 42 -2 6 -9 9 -15 7 -7 -1 -10 2 -7 7 7 11
-14 61 -26 61 -4 0 -8 6 -8 13 0 8 -9 22 -20 32 -11 10 -20 24 -20 32 0 7 -4
13 -10 13 -5 0 -10 6 -10 14 0 7 -6 19 -14 25 -17 14 -66 -5 -66 -26 0 -8 -5
-11 -11 -8 -10 7 -99 -34 -99 -45 0 -3 -12 -7 -27 -8 -14 -1 -35 -9 -45 -19
-10 -9 -18 -13 -18 -10 0 4 -20 -2 -45 -13 -25 -11 -49 -20 -53 -20 -4 0 -7
-4 -7 -9 0 -5 -4 -13 -8 -18 -5 -4 -8 -3 -7 2 5 24 -1 27 -16 9 -8 -10 -12
-13 -8 -5 6 11 3 13 -12 7 -24 -10 -50 -16 -94 -22 -130 -18 -158 -20 -193
-19 -24 1 -34 -1 -25 -6 9 -6 9 -9 1 -9 -6 0 -15 5 -18 10 -4 7 -12 7 -25 0
-24 -13 -40 -13 -20 0 11 7 5 10 -25 11 -38 1 -54 3 -65 8 -6 3 -49 11 -75 14
-11 1 -22 4 -25 7 -20 20 -48 28 -60 17 -10 -9 -11 -9 -6 1 6 11 0 14 -20 11
-4 0 -10 4 -13 9 -3 6 -13 12 -21 14 -8 2 -23 11 -34 21 -11 9 -26 17 -33 17
-7 0 -13 4 -13 8 0 5 -12 14 -27 21 -15 7 -33 21 -41 32 -7 10 -17 19 -22 19
-5 0 -32 24 -61 53 -28 28 -56 51 -61 49 -5 -1 -7 1 -4 6 3 5 -6 20 -19 34
-13 14 -21 29 -18 32 4 3 1 6 -5 6 -6 0 -19 14 -27 30 -9 18 -21 28 -27 24 -7
-4 -8 -3 -4 5 4 6 2 18 -4 26 -7 8 -10 15 -6 15 3 0 -2 9 -11 20 -9 10 -18 29
-20 41 -2 12 -8 28 -13 34 -5 7 -7 15 -3 18 3 4 1 7 -5 7 -7 0 -12 -5 -12 -12
0 -6 -3 -8 -6 -5 -4 4 -1 14 6 23 8 9 10 18 4 22 -5 4 -11 39 -12 77 -2 39 -9
76 -15 84 -8 9 -8 12 -1 8 7 -4 11 7 12 30 1 20 4 38 7 41 3 3 -2 17 -12 31
-16 25 -16 25 2 11 17 -14 18 -13 12 18 -5 23 -3 31 4 26 8 -5 10 3 7 24 -2
17 -1 29 4 26 4 -3 8 1 9 8 1 28 13 75 23 100 4 9 4 22 0 29 -4 7 -3 9 3 6 6
-4 18 15 28 46 9 28 34 86 54 127 21 42 35 82 33 89 -3 8 0 11 5 8 6 -4 19 14
29 38 10 25 22 45 26 45 4 0 8 6 8 14 0 7 6 19 14 25 8 7 13 21 11 32 -2 11 0
17 4 15 4 -3 14 7 22 22 8 15 22 36 32 46 9 11 17 24 17 28 0 5 10 22 22 38
18 26 19 31 7 47 -13 16 -12 17 3 5 12 -10 18 -10 23 -1 4 6 1 16 -6 21 -11 8
-10 9 3 4 12 -3 25 8 46 42 16 26 29 51 30 55 0 5 8 14 18 21 11 8 14 18 9 26
-6 9 -4 11 5 5 10 -6 12 -4 7 9 -4 9 -3 15 2 12 4 -3 18 8 29 24 24 32 28 45
10 34 -7 -4 -8 -3 -4 5 4 6 11 9 15 6 13 -7 63 75 57 91 -3 9 -1 12 4 9 6 -4
19 4 30 17 22 26 26 43 8 32 -7 -5 -8 -3 -4 5 5 7 10 10 13 7 7 -6 53 48 53
62 0 6 3 12 8 14 4 2 17 17 29 34 17 24 19 34 10 43 -9 9 -8 11 7 5 15 -6 18
-4 13 9 -4 12 -2 14 11 10 9 -3 14 -3 10 2 -4 4 6 25 22 45 17 21 30 43 30 49
0 6 4 11 8 11 5 0 21 22 36 50 15 27 34 57 43 66 13 13 14 20 5 35 -9 13 -9
20 0 25 6 4 8 3 4 -4 -3 -6 -2 -13 4 -17 6 -3 13 2 17 12 3 10 13 26 21 36 8
9 12 17 8 17 -4 0 5 16 20 35 14 19 22 35 18 35 -5 0 -4 4 3 8 14 9 107 205
101 215 -1 1 4 13 11 25 7 13 15 35 17 49 3 14 6 31 7 37 1 6 6 14 12 18 15
11 13 254 -3 270 -6 6 -12 20 -12 30 0 10 -5 18 -12 18 -6 0 -8 3 -5 6 10 11
-13 45 -25 38 -7 -4 -8 -3 -4 5 13 20 -92 151 -121 151 -7 0 -13 6 -13 13 0
12 -59 52 -73 49 -4 -1 -7 2 -7 8 0 5 -7 10 -15 10 -9 0 -18 7 -21 15 -4 8
-13 15 -21 15 -8 0 -12 -4 -8 -9 3 -5 1 -12 -4 -15 -4 -3 -8 4 -7 17 0 12 -4
22 -11 22 -7 0 -18 6 -24 13 -7 6 -18 12 -24 12 -5 0 -32 11 -58 25 -26 14
-52 23 -57 20 -6 -3 -10 -1 -10 5 0 6 -4 8 -10 5 -5 -3 -10 -2 -10 2 0 7 -56
28 -100 39 -3 0 -12 4 -20 7 -8 4 -26 8 -40 9 -14 2 -27 6 -30 10 -3 4 -17 9
-30 12 -14 3 -58 14 -98 25 -40 10 -75 20 -77 20 -3 1 -6 1 -7 2 -2 0 -10 2
-18 4 -8 1 -40 8 -71 14 -30 6 -69 14 -85 17 -16 3 -37 7 -47 10 -10 3 -25 0
-34 -8 -12 -9 -15 -9 -9 0 4 6 4 13 -1 13 -4 1 -17 3 -28 4 -80 12 -103 16
-125 20 -14 3 -47 7 -75 10 -27 2 -61 6 -74 9 -13 3 -56 8 -95 11 -39 3 -96 8
-126 11 -118 11 -152 12 -147 7z m821 -121 c3 -5 -1 -9 -9 -9 -8 0 -15 4 -15
9 0 4 4 8 9 8 6 0 12 -4 15 -8z m376 -102 c0 -5 -5 -10 -11 -10 -5 0 -7 5 -4
10 3 6 8 10 11 10 2 0 4 -4 4 -10z m80 -34 c0 -3 -4 -8 -10 -11 -5 -3 -10 -1
-10 4 0 6 5 11 10 11 6 0 10 -2 10 -4z m40 0 c0 -3 -4 -8 -10 -11 -5 -3 -10
-1 -10 4 0 6 5 11 10 11 6 0 10 -2 10 -4z m140 -68 c0 -4 -4 -8 -9 -8 -6 0
-12 4 -15 8 -3 5 1 9 9 9 8 0 15 -4 15 -9z m180 -92 c0 -3 -4 -8 -10 -11 -5
-3 -10 -1 -10 4 0 6 5 11 10 11 6 0 10 -2 10 -4z m80 -86 c0 -5 -5 -10 -11
-10 -5 0 -7 5 -4 10 3 6 8 10 11 10 2 0 4 -4 4 -10z m40 4 c0 -8 -19 -13 -24
-6 -3 5 1 9 9 9 8 0 15 -2 15 -3z m-45 -44 c3 -5 1 -10 -4 -10 -6 0 -11 5 -11
10 0 6 2 10 4 10 3 0 8 -4 11 -10z m80 -480 c3 -5 1 -10 -4 -10 -6 0 -11 5
-11 10 0 6 2 10 4 10 3 0 8 -4 11 -10z m40 0 c3 -5 1 -10 -4 -10 -6 0 -11 5
-11 10 0 6 2 10 4 10 3 0 8 -4 11 -10z m-40 -40 c3 -5 1 -10 -4 -10 -6 0 -11
5 -11 10 0 6 2 10 4 10 3 0 8 -4 11 -10z m45 0 c0 -5 -2 -10 -4 -10 -3 0 -8 5
-11 10 -3 6 -1 10 4 10 6 0 11 -4 11 -10z m-130 -254 c0 -2 -8 -10 -17 -17
-16 -13 -17 -12 -4 4 13 16 21 21 21 13z m-196 -184 c3 -5 -1 -9 -9 -9 -8 0
-12 4 -9 9 3 4 7 8 9 8 2 0 6 -4 9 -8z m86 -2 c0 -5 -5 -10 -11 -10 -5 0 -7 5
-4 10 3 6 8 10 11 10 2 0 4 -4 4 -10z m-80 -40 c0 -5 -2 -10 -4 -10 -3 0 -8 5
-11 10 -3 6 -1 10 4 10 6 0 11 -4 11 -10z m-45 -40 c3 -5 1 -10 -4 -10 -6 0
-11 5 -11 10 0 6 2 10 4 10 3 0 8 -4 11 -10z m45 0 c0 -5 -2 -10 -4 -10 -3 0
-8 5 -11 10 -3 6 -1 10 4 10 6 0 11 -4 11 -10z m-40 -40 c0 -5 -2 -10 -4 -10
-3 0 -8 5 -11 10 -3 6 -1 10 4 10 6 0 11 -4 11 -10z m40 0 c0 -5 -2 -10 -4
-10 -3 0 -8 5 -11 10 -3 6 -1 10 4 10 6 0 11 -4 11 -10z m-65 -49 c3 -5 2 -12
-3 -15 -5 -3 -9 1 -9 9 0 17 3 19 12 6z m-35 -11 c0 -5 -5 -10 -11 -10 -5 0
-7 5 -4 10 3 6 8 10 11 10 2 0 4 -4 4 -10z m20 -60 c0 -5 -2 -10 -4 -10 -3 0
-8 5 -11 10 -3 6 -1 10 4 10 6 0 11 -4 11 -10z m-200 -154 c0 -3 -4 -8 -10
-11 -5 -3 -10 -1 -10 4 0 6 5 11 10 11 6 0 10 -2 10 -4z m40 0 c0 -3 -4 -8
-10 -11 -5 -3 -10 -1 -10 4 0 6 5 11 10 11 6 0 10 -2 10 -4z m-40 -46 c0 -5
-5 -10 -11 -10 -5 0 -7 5 -4 10 3 6 8 10 11 10 2 0 4 -4 4 -10z m40 6 c0 -3
-4 -8 -10 -11 -5 -3 -10 -1 -10 4 0 6 5 11 10 11 6 0 10 -2 10 -4z m-40 -40
c0 -3 -4 -8 -10 -11 -5 -3 -10 -1 -10 4 0 6 5 11 10 11 6 0 10 -2 10 -4z m0
-40 c0 -3 -4 -8 -10 -11 -5 -3 -10 -1 -10 4 0 6 5 11 10 11 6 0 10 -2 10 -4z
m-60 -66 c0 -5 -5 -10 -11 -10 -5 0 -7 5 -4 10 3 6 8 10 11 10 2 0 4 -4 4 -10z
m-100 -54 c0 -3 -4 -8 -10 -11 -5 -3 -10 -1 -10 4 0 6 5 11 10 11 6 0 10 -2
10 -4z m40 0 c0 -3 -4 -8 -10 -11 -5 -3 -10 -1 -10 4 0 6 5 11 10 11 6 0 10
-2 10 -4z m-40 -46 c0 -5 -5 -10 -11 -10 -5 0 -7 5 -4 10 3 6 8 10 11 10 2 0
4 -4 4 -10z m40 6 c0 -3 -4 -8 -10 -11 -5 -3 -10 -1 -10 4 0 6 5 11 10 11 6 0
10 -2 10 -4z m-100 -26 c0 -5 -5 -10 -11 -10 -5 0 -7 5 -4 10 3 6 8 10 11 10
2 0 4 -4 4 -10z m60 -14 c0 -3 -4 -8 -10 -11 -5 -3 -10 -1 -10 4 0 6 5 11 10
11 6 0 10 -2 10 -4z m-60 -20 c0 -3 -4 -8 -10 -11 -5 -3 -10 -1 -10 4 0 6 5
11 10 11 6 0 10 -2 10 -4z m60 -20 c0 -3 -4 -8 -10 -11 -5 -3 -10 -1 -10 4 0
6 5 11 10 11 6 0 10 -2 10 -4z m-60 -20 c0 -2 -7 -7 -16 -10 -8 -3 -12 -2 -9
4 6 10 25 14 25 6z m-85 -55 c3 -5 2 -12 -3 -15 -5 -3 -9 1 -9 9 0 17 3 19 12
6z m-95 -131 c0 -5 -5 -10 -11 -10 -5 0 -7 5 -4 10 3 6 8 10 11 10 2 0 4 -4 4
-10z m40 0 c0 -5 -5 -10 -11 -10 -5 0 -7 5 -4 10 3 6 8 10 11 10 2 0 4 -4 4
-10z m0 -40 c0 -5 -5 -10 -11 -10 -5 0 -7 5 -4 10 3 6 8 10 11 10 2 0 4 -4 4
-10z m-80 -34 c0 -3 -4 -8 -10 -11 -5 -3 -10 -1 -10 4 0 6 5 11 10 11 6 0 10
-2 10 -4z m40 0 c0 -3 -4 -8 -10 -11 -5 -3 -10 -1 -10 4 0 6 5 11 10 11 6 0
10 -2 10 -4z m40 -6 c0 -5 -5 -10 -11 -10 -5 0 -7 5 -4 10 3 6 8 10 11 10 2 0
4 -4 4 -10z m-40 -34 c0 -3 -4 -8 -10 -11 -5 -3 -10 -1 -10 4 0 6 5 11 10 11
6 0 10 -2 10 -4z m40 0 c0 -3 -4 -8 -10 -11 -5 -3 -10 -1 -10 4 0 6 5 11 10
11 6 0 10 -2 10 -4z m-240 -286 c0 -5 -5 -10 -11 -10 -5 0 -7 5 -4 10 3 6 8
10 11 10 2 0 4 -4 4 -10z m40 0 c0 -5 -5 -10 -11 -10 -5 0 -7 5 -4 10 3 6 8
10 11 10 2 0 4 -4 4 -10z m40 0 c0 -5 -5 -10 -11 -10 -5 0 -7 5 -4 10 3 6 8
10 11 10 2 0 4 -4 4 -10z m-80 -40 c0 -5 -5 -10 -11 -10 -5 0 -7 5 -4 10 3 6
8 10 11 10 2 0 4 -4 4 -10z m40 6 c0 -3 -4 -8 -10 -11 -5 -3 -10 -1 -10 4 0 6
5 11 10 11 6 0 10 -2 10 -4z m40 -6 c0 -5 -5 -10 -11 -10 -5 0 -7 5 -4 10 3 6
8 10 11 10 2 0 4 -4 4 -10z m-40 -40 c0 -5 -5 -10 -11 -10 -5 0 -7 5 -4 10 3
6 8 10 11 10 2 0 4 -4 4 -10z m40 6 c0 -3 -4 -8 -10 -11 -5 -3 -10 -1 -10 4 0
6 5 11 10 11 6 0 10 -2 10 -4z m-40 -46 c0 -5 -5 -10 -11 -10 -5 0 -7 5 -4 10
3 6 8 10 11 10 2 0 4 -4 4 -10z m40 0 c0 -5 -5 -10 -11 -10 -5 0 -7 5 -4 10 3
6 8 10 11 10 2 0 4 -4 4 -10z m-180 -300 c0 -5 -5 -10 -11 -10 -5 0 -7 5 -4
10 3 6 8 10 11 10 2 0 4 -4 4 -10z m220 -340 c0 -5 -5 -10 -11 -10 -5 0 -7 5
-4 10 3 6 8 10 11 10 2 0 4 -4 4 -10z m0 -34 c0 -3 -4 -8 -10 -11 -5 -3 -10
-1 -10 4 0 6 5 11 10 11 6 0 10 -2 10 -4z m177 -231 c0 -8 -4 -12 -9 -9 -4 3
-8 9 -8 15 0 5 4 9 8 9 5 0 9 -7 9 -15z m40 -30 c0 -8 -4 -12 -9 -9 -5 3 -6
10 -3 15 9 13 12 11 12 -6z m-153 -3 c3 -5 -1 -9 -9 -9 -8 0 -15 4 -15 9 0 4
4 8 9 8 6 0 12 -4 15 -8z m111 -2 c3 -5 1 -10 -4 -10 -6 0 -11 5 -11 10 0 6 2
10 4 10 3 0 8 -4 11 -10z m80 0 c3 -5 1 -10 -4 -10 -6 0 -11 5 -11 10 0 6 2
10 4 10 3 0 8 -4 11 -10z m-195 -38 c0 -5 -7 -9 -15 -9 -8 0 -12 4 -9 9 3 4 9
8 15 8 5 0 9 -4 9 -8z m120 -4 c0 -4 -4 -8 -9 -8 -6 0 -12 4 -15 8 -3 5 1 9 9
9 8 0 15 -4 15 -9z m0 -32 c0 -3 -4 -8 -10 -11 -5 -3 -10 -1 -10 4 0 6 5 11
10 11 6 0 10 -2 10 -4z m40 -6 c0 -5 -5 -10 -11 -10 -5 0 -7 5 -4 10 3 6 8 10
11 10 2 0 4 -4 4 -10z m40 6 c0 -3 -4 -8 -10 -11 -5 -3 -10 -1 -10 4 0 6 5 11
10 11 6 0 10 -2 10 -4z m-119 -43 c13 -16 12 -17 -3 -4 -10 7 -18 15 -18 17 0
8 8 3 21 -13z m44 -3 c3 -6 -1 -7 -9 -4 -18 7 -21 14 -7 14 6 0 13 -4 16 -10z
m29 -50 c-6 -6 -10 -3 -10 10 0 13 4 16 10 10 7 -7 7 -13 0 -20z m79 15 c-3
-9 -8 -14 -10 -11 -3 3 -2 9 2 15 9 16 15 13 8 -4z m-38 -5 c3 -5 1 -10 -4
-10 -6 0 -11 5 -11 10 0 6 2 10 4 10 3 0 8 -4 11 -10z m785 -20 c0 -5 -5 -10
-11 -10 -5 0 -7 5 -4 10 3 6 8 10 11 10 2 0 4 -4 4 -10z m40 0 c0 -5 -5 -10
-11 -10 -5 0 -7 5 -4 10 3 6 8 10 11 10 2 0 4 -4 4 -10z m40 0 c0 -5 -5 -10
-11 -10 -5 0 -7 5 -4 10 3 6 8 10 11 10 2 0 4 -4 4 -10z m40 6 c0 -3 -4 -8
-10 -11 -5 -3 -10 -1 -10 4 0 6 5 11 10 11 6 0 10 -2 10 -4z m-456 -24 c3 -5
-1 -9 -9 -9 -8 0 -12 4 -9 9 3 4 7 8 9 8 2 0 6 -4 9 -8z m891 -1 c3 -5 2 -12
-3 -15 -5 -3 -9 1 -9 9 0 17 3 19 12 6z m-1235 -61 c0 -5 -5 -10 -11 -10 -5 0
-7 5 -4 10 3 6 8 10 11 10 2 0 4 -4 4 -10z m880 -80 c0 -5 -2 -10 -4 -10 -3 0
-8 5 -11 10 -3 6 -1 10 4 10 6 0 11 -4 11 -10z"/>
</g>
</svg>
